<?xml version="1.0" encoding="UTF-8" standalone="no"?>
<!DOCTYPE svg PUBLIC "-//W3C//DTD SVG 1.1//EN"
 "http://www.w3.org/Graphics/SVG/1.1/DTD/svg11.dtd">
<!-- Generated by graphviz version 2.38.0 (20140413.2041)
 -->
<!-- Title: FSM Pages: 1 -->
<svg width="360pt" height="62pt"
 viewBox="0.00 0.00 360.00 61.58" xmlns="http://www.w3.org/2000/svg" xmlns:xlink="http://www.w3.org/1999/xlink">
<g id="graph0" class="graph" transform="scale(0.593287 0.593287) rotate(0) translate(4 99.7982)">
<title>FSM</title>
<polygon fill="white" stroke="none" points="-4,4 -4,-99.7982 602.789,-99.7982 602.789,4 -4,4"/>
<!-- 0 -->
<g id="node1" class="node"><title>0</title>
<ellipse fill="none" stroke="black" stroke-width="2" cx="18" cy="-50.7982" rx="18" ry="18"/>
<text text-anchor="middle" x="18" y="-47.0982" font-family="Helvetica,sans-Serif" font-size="14.00">0</text>
</g>
<!-- 1 -->
<g id="node2" class="node"><title>1</title>
<ellipse fill="none" stroke="black" cx="111" cy="-75.7982" rx="18" ry="18"/>
<text text-anchor="middle" x="111" y="-72.0982" font-family="Helvetica,sans-Serif" font-size="14.00">1</text>
</g>
<!-- 0&#45;&gt;1 -->
<g id="edge1" class="edge"><title>0&#45;&gt;1</title>
<path fill="none" stroke="black" d="M35.6908,-55.3835C49.0315,-59.0486 67.9854,-64.2557 83.4114,-68.4936"/>
<polygon fill="black" stroke="black" points="82.8451,-71.9676 93.415,-71.2418 84.6995,-65.2177 82.8451,-71.9676"/>
<text text-anchor="middle" x="64.5" y="-70.5982" font-family="Helvetica,sans-Serif" font-size="14.00">G:G</text>
</g>
<!-- 8 -->
<g id="node3" class="node"><title>8</title>
<ellipse fill="none" stroke="black" cx="111" cy="-21.7982" rx="18" ry="18"/>
<text text-anchor="middle" x="111" y="-18.0982" font-family="Helvetica,sans-Serif" font-size="14.00">8</text>
</g>
<!-- 0&#45;&gt;8 -->
<g id="edge2" class="edge"><title>0&#45;&gt;8</title>
<path fill="none" stroke="black" d="M35.2423,-45.0918C40.2802,-43.355 45.8589,-41.4654 51,-39.7982 61.6962,-36.3293 73.5436,-32.6779 83.7985,-29.5772"/>
<polygon fill="black" stroke="black" points="84.8503,-32.9159 93.4209,-26.6873 82.8368,-26.2117 84.8503,-32.9159"/>
<text text-anchor="middle" x="64.5" y="-43.5982" font-family="Helvetica,sans-Serif" font-size="14.00">s:s</text>
</g>
<!-- 2 -->
<g id="node4" class="node"><title>2</title>
<ellipse fill="none" stroke="black" cx="196" cy="-76.7982" rx="18" ry="18"/>
<text text-anchor="middle" x="196" y="-73.0982" font-family="Helvetica,sans-Serif" font-size="14.00">2</text>
</g>
<!-- 1&#45;&gt;2 -->
<g id="edge3" class="edge"><title>1&#45;&gt;2</title>
<path fill="none" stroke="black" d="M129.198,-76.0054C140.326,-76.1394 155.055,-76.3169 167.756,-76.4699"/>
<polygon fill="black" stroke="black" points="167.783,-79.9704 177.824,-76.5912 167.867,-72.9709 167.783,-79.9704"/>
<text text-anchor="middle" x="153.5" y="-79.5982" font-family="Helvetica,sans-Serif" font-size="14.00">e:e</text>
</g>
<!-- 9 -->
<g id="node9" class="node"><title>9</title>
<ellipse fill="none" stroke="black" cx="196" cy="-21.7982" rx="18" ry="18"/>
<text text-anchor="middle" x="196" y="-18.0982" font-family="Helvetica,sans-Serif" font-size="14.00">9</text>
</g>
<!-- 8&#45;&gt;9 -->
<g id="edge8" class="edge"><title>8&#45;&gt;9</title>
<path fill="none" stroke="black" d="M129.198,-21.7982C140.326,-21.7982 155.055,-21.7982 167.756,-21.7982"/>
<polygon fill="black" stroke="black" points="167.824,-25.2983 177.824,-21.7982 167.824,-18.2983 167.824,-25.2983"/>
<text text-anchor="middle" x="153.5" y="-25.5982" font-family="Helvetica,sans-Serif" font-size="14.00">c:c</text>
</g>
<!-- 3 -->
<g id="node5" class="node"><title>3</title>
<ellipse fill="none" stroke="black" cx="283.798" cy="-77.7982" rx="18" ry="18"/>
<text text-anchor="middle" x="283.798" y="-74.0982" font-family="Helvetica,sans-Serif" font-size="14.00">3</text>
</g>
<!-- 2&#45;&gt;3 -->
<g id="edge4" class="edge"><title>2&#45;&gt;3</title>
<path fill="none" stroke="black" d="M214.363,-77.0005C226.185,-77.1383 242.077,-77.3235 255.57,-77.4808"/>
<polygon fill="black" stroke="black" points="255.714,-80.9826 265.754,-77.5995 255.796,-73.9831 255.714,-80.9826"/>
<text text-anchor="middle" x="238.5" y="-80.5982" font-family="Helvetica,sans-Serif" font-size="14.00">i:i</text>
</g>
<!-- 4 -->
<g id="node6" class="node"><title>4</title>
<ellipse fill="none" stroke="black" cx="374.394" cy="-77.7982" rx="18" ry="18"/>
<text text-anchor="middle" x="374.394" y="-74.0982" font-family="Helvetica,sans-Serif" font-size="14.00">4</text>
</g>
<!-- 3&#45;&gt;4 -->
<g id="edge5" class="edge"><title>3&#45;&gt;4</title>
<path fill="none" stroke="black" d="M301.88,-77.7982C314.382,-77.7982 331.606,-77.7982 346.017,-77.7982"/>
<polygon fill="black" stroke="black" points="346.365,-81.2983 356.365,-77.7982 346.365,-74.2983 346.365,-81.2983"/>
<text text-anchor="middle" x="329.096" y="-81.5982" font-family="Helvetica,sans-Serif" font-size="14.00">s:s</text>
</g>
<!-- 5 -->
<g id="node7" class="node"><title>5</title>
<ellipse fill="none" stroke="black" cx="464.991" cy="-77.7982" rx="18" ry="18"/>
<text text-anchor="middle" x="464.991" y="-74.0982" font-family="Helvetica,sans-Serif" font-size="14.00">5</text>
</g>
<!-- 4&#45;&gt;5 -->
<g id="edge6" class="edge"><title>4&#45;&gt;5</title>
<path fill="none" stroke="black" d="M392.477,-77.7982C404.978,-77.7982 422.202,-77.7982 436.613,-77.7982"/>
<polygon fill="black" stroke="black" points="436.961,-81.2983 446.961,-77.7982 436.961,-74.2983 436.961,-81.2983"/>
<text text-anchor="middle" x="419.693" y="-81.5982" font-family="Helvetica,sans-Serif" font-size="14.00">t:t</text>
</g>
<!-- 7 -->
<g id="node8" class="node"><title>7</title>
<ellipse fill="none" stroke="black" cx="576.789" cy="-50.7982" rx="18" ry="18"/>
<ellipse fill="none" stroke="black" cx="576.789" cy="-50.7982" rx="22" ry="22"/>
<text text-anchor="middle" x="576.789" y="-47.0982" font-family="Helvetica,sans-Serif" font-size="14.00">7</text>
</g>
<!-- 5&#45;&gt;7 -->
<g id="edge7" class="edge"><title>5&#45;&gt;7</title>
<path fill="none" stroke="black" d="M482.667,-73.6974C499.295,-69.6085 525.21,-63.2358 545.484,-58.2502"/>
<polygon fill="black" stroke="black" points="546.33,-61.6466 555.205,-55.8598 544.659,-54.8491 546.33,-61.6466"/>
<text text-anchor="middle" x="520.289" y="-72.5982" font-family="Helvetica,sans-Serif" font-size="14.00">ε:&lt;N&gt;</text>
</g>
<!-- 10 -->
<g id="node10" class="node"><title>10</title>
<ellipse fill="none" stroke="black" cx="283.798" cy="-20.7982" rx="20.5982" ry="20.5982"/>
<text text-anchor="middle" x="283.798" y="-17.0982" font-family="Helvetica,sans-Serif" font-size="14.00">10</text>
</g>
<!-- 9&#45;&gt;10 -->
<g id="edge9" class="edge"><title>9&#45;&gt;10</title>
<path fill="none" stroke="black" d="M214.363,-21.5958C225.303,-21.4683 239.728,-21.3001 252.513,-21.1511"/>
<polygon fill="black" stroke="black" points="252.795,-24.6482 262.753,-21.0318 252.713,-17.6487 252.795,-24.6482"/>
<text text-anchor="middle" x="238.5" y="-25.5982" font-family="Helvetica,sans-Serif" font-size="14.00">h:h</text>
</g>
<!-- 11 -->
<g id="node11" class="node"><title>11</title>
<ellipse fill="none" stroke="black" cx="374.394" cy="-20.7982" rx="20.5982" ry="20.5982"/>
<text text-anchor="middle" x="374.394" y="-17.0982" font-family="Helvetica,sans-Serif" font-size="14.00">11</text>
</g>
<!-- 10&#45;&gt;11 -->
<g id="edge10" class="edge"><title>10&#45;&gt;11</title>
<path fill="none" stroke="black" d="M304.902,-20.7982C316.23,-20.7982 330.602,-20.7982 343.253,-20.7982"/>
<polygon fill="black" stroke="black" points="343.37,-24.2983 353.37,-20.7982 343.37,-17.2983 343.37,-24.2983"/>
<text text-anchor="middle" x="329.096" y="-24.5982" font-family="Helvetica,sans-Serif" font-size="14.00">ö:ö</text>
</g>
<!-- 12 -->
<g id="node12" class="node"><title>12</title>
<ellipse fill="none" stroke="black" cx="464.991" cy="-20.7982" rx="20.5982" ry="20.5982"/>
<text text-anchor="middle" x="464.991" y="-17.0982" font-family="Helvetica,sans-Serif" font-size="14.00">12</text>
</g>
<!-- 11&#45;&gt;12 -->
<g id="edge11" class="edge"><title>11&#45;&gt;12</title>
<path fill="none" stroke="black" d="M395.498,-20.7982C406.826,-20.7982 421.198,-20.7982 433.849,-20.7982"/>
<polygon fill="black" stroke="black" points="433.966,-24.2983 443.966,-20.7982 433.966,-17.2983 433.966,-24.2983"/>
<text text-anchor="middle" x="419.693" y="-24.5982" font-family="Helvetica,sans-Serif" font-size="14.00">n:n</text>
</g>
<!-- 12&#45;&gt;7 -->
<g id="edge12" class="edge"><title>12&#45;&gt;7</title>
<path fill="none" stroke="black" d="M485.422,-26.0285C500.309,-30.0442 521.355,-35.7401 539.789,-40.7982 541.666,-41.3131 543.597,-41.8447 545.544,-42.3819"/>
<polygon fill="black" stroke="black" points="544.663,-45.7697 555.235,-45.0646 546.531,-39.0234 544.663,-45.7697"/>
<text text-anchor="middle" x="520.289" y="-44.5982" font-family="Helvetica,sans-Serif" font-size="14.00">ε:&lt;A&gt;</text>
</g>
</g>
</svg>
