<?xml version="1.0" encoding="UTF-8" standalone="no"?>
<!DOCTYPE svg PUBLIC "-//W3C//DTD SVG 1.1//EN"
 "http://www.w3.org/Graphics/SVG/1.1/DTD/svg11.dtd">
<!-- Generated by graphviz version 2.38.0 (20140413.2041)
 -->
<!-- Title: FSM Pages: 1 -->
<svg width="360pt" height="47pt"
 viewBox="0.00 0.00 360.00 47.12" xmlns="http://www.w3.org/2000/svg" xmlns:xlink="http://www.w3.org/1999/xlink">
<g id="graph0" class="graph" transform="scale(0.262093 0.262093) rotate(0) translate(4 175.798)">
<title>FSM</title>
<polygon fill="white" stroke="none" points="-4,4 -4,-175.798 1369.56,-175.798 1369.56,4 -4,4"/>
<!-- 0 -->
<g id="node1" class="node"><title>0</title>
<ellipse fill="none" stroke="black" stroke-width="2" cx="18" cy="-121.798" rx="18" ry="18"/>
<text text-anchor="middle" x="18" y="-118.098" font-family="Helvetica,sans-Serif" font-size="14.00">0</text>
</g>
<!-- 13 -->
<g id="node2" class="node"><title>13</title>
<ellipse fill="none" stroke="black" cx="105.798" cy="-92.7982" rx="20.5982" ry="20.5982"/>
<text text-anchor="middle" x="105.798" y="-89.0982" font-family="Helvetica,sans-Serif" font-size="14.00">13</text>
</g>
<!-- 0&#45;&gt;13 -->
<g id="edge1" class="edge"><title>0&#45;&gt;13</title>
<path fill="none" stroke="black" d="M35.5427,-116.207C47.0287,-112.324 62.6303,-107.051 76.1177,-102.492"/>
<polygon fill="black" stroke="black" points="77.5636,-105.698 85.9163,-99.1803 75.3221,-99.0667 77.5636,-105.698"/>
<text text-anchor="middle" x="60.5" y="-114.598" font-family="Helvetica,sans-Serif" font-size="14.00">u:u</text>
</g>
<!-- 15 -->
<g id="node3" class="node"><title>15</title>
<ellipse fill="none" stroke="black" cx="306.991" cy="-141.798" rx="20.5982" ry="20.5982"/>
<text text-anchor="middle" x="306.991" y="-138.098" font-family="Helvetica,sans-Serif" font-size="14.00">15</text>
</g>
<!-- 0&#45;&gt;15 -->
<g id="edge2" class="edge"><title>0&#45;&gt;15</title>
<path fill="none" stroke="black" d="M35.8757,-125.389C40.7373,-126.307 46.0617,-127.202 51,-127.798 131.855,-137.556 227.963,-140.518 275.805,-141.414"/>
<polygon fill="black" stroke="black" points="276.018,-144.918 286.076,-141.588 276.137,-137.919 276.018,-144.918"/>
<text text-anchor="middle" x="152.096" y="-141.598" font-family="Helvetica,sans-Serif" font-size="14.00">ε:ε</text>
</g>
<!-- 14 -->
<g id="node16" class="node"><title>14</title>
<ellipse fill="none" stroke="black" cx="198.394" cy="-62.7982" rx="20.5982" ry="20.5982"/>
<text text-anchor="middle" x="198.394" y="-59.0982" font-family="Helvetica,sans-Serif" font-size="14.00">14</text>
</g>
<!-- 13&#45;&gt;14 -->
<g id="edge15" class="edge"><title>13&#45;&gt;14</title>
<path fill="none" stroke="black" d="M126.011,-86.4359C138.467,-82.3115 154.913,-76.8654 168.88,-72.2403"/>
<polygon fill="black" stroke="black" points="170.127,-75.5145 178.52,-69.0483 167.926,-68.8694 170.127,-75.5145"/>
<text text-anchor="middle" x="152.096" y="-84.5982" font-family="Helvetica,sans-Serif" font-size="14.00">n:n</text>
</g>
<!-- 13&#45;&gt;14 -->
<g id="edge16" class="edge"><title>13&#45;&gt;14</title>
<path fill="none" stroke="black" d="M117.906,-75.734C123.906,-68.1108 132.045,-59.927 141.596,-55.7982 149.97,-52.1784 159.664,-52.1335 168.6,-53.5361"/>
<polygon fill="black" stroke="black" points="168.1,-57.0093 178.616,-55.7201 169.591,-50.17 168.1,-57.0093"/>
<text text-anchor="middle" x="152.096" y="-59.5982" font-family="Helvetica,sans-Serif" font-size="14.00">r:r</text>
</g>
<!-- 1 -->
<g id="node4" class="node"><title>1</title>
<ellipse fill="none" stroke="black" cx="402.789" cy="-80.7982" rx="18" ry="18"/>
<text text-anchor="middle" x="402.789" y="-77.0982" font-family="Helvetica,sans-Serif" font-size="14.00">1</text>
</g>
<!-- 15&#45;&gt;1 -->
<g id="edge3" class="edge"><title>15&#45;&gt;1</title>
<path fill="none" stroke="black" d="M327.237,-136.538C340.044,-132.454 356.832,-125.937 369.789,-116.798 375.26,-112.939 380.439,-107.973 384.973,-102.969"/>
<polygon fill="black" stroke="black" points="387.733,-105.126 391.517,-95.2296 382.388,-100.606 387.733,-105.126"/>
<text text-anchor="middle" x="356.289" y="-134.598" font-family="Helvetica,sans-Serif" font-size="14.00">G:G</text>
</g>
<!-- 8 -->
<g id="node5" class="node"><title>8</title>
<ellipse fill="none" stroke="black" cx="402.789" cy="-137.798" rx="18" ry="18"/>
<text text-anchor="middle" x="402.789" y="-134.098" font-family="Helvetica,sans-Serif" font-size="14.00">8</text>
</g>
<!-- 15&#45;&gt;8 -->
<g id="edge4" class="edge"><title>15&#45;&gt;8</title>
<path fill="none" stroke="black" d="M326.426,-150.078C331.613,-152.021 337.331,-153.812 342.789,-154.798 354.598,-156.932 358.145,-157.699 369.789,-154.798 372.65,-154.085 375.537,-153.063 378.343,-151.87"/>
<polygon fill="black" stroke="black" points="380.031,-154.939 387.423,-147.349 376.911,-148.673 380.031,-154.939"/>
<text text-anchor="middle" x="356.289" y="-160.598" font-family="Helvetica,sans-Serif" font-size="14.00">s:s</text>
</g>
<!-- 2 -->
<g id="node6" class="node"><title>2</title>
<ellipse fill="none" stroke="black" cx="487.789" cy="-80.7982" rx="18" ry="18"/>
<text text-anchor="middle" x="487.789" y="-77.0982" font-family="Helvetica,sans-Serif" font-size="14.00">2</text>
</g>
<!-- 1&#45;&gt;2 -->
<g id="edge5" class="edge"><title>1&#45;&gt;2</title>
<path fill="none" stroke="black" d="M420.987,-80.7982C432.115,-80.7982 446.844,-80.7982 459.545,-80.7982"/>
<polygon fill="black" stroke="black" points="459.613,-84.2983 469.613,-80.7982 459.613,-77.2983 459.613,-84.2983"/>
<text text-anchor="middle" x="445.289" y="-84.5982" font-family="Helvetica,sans-Serif" font-size="14.00">e:e</text>
</g>
<!-- 9 -->
<g id="node12" class="node"><title>9</title>
<ellipse fill="none" stroke="black" cx="487.789" cy="-137.798" rx="18" ry="18"/>
<text text-anchor="middle" x="487.789" y="-134.098" font-family="Helvetica,sans-Serif" font-size="14.00">9</text>
</g>
<!-- 8&#45;&gt;9 -->
<g id="edge10" class="edge"><title>8&#45;&gt;9</title>
<path fill="none" stroke="black" d="M420.987,-137.798C432.115,-137.798 446.844,-137.798 459.545,-137.798"/>
<polygon fill="black" stroke="black" points="459.613,-141.298 469.613,-137.798 459.613,-134.298 459.613,-141.298"/>
<text text-anchor="middle" x="445.289" y="-141.598" font-family="Helvetica,sans-Serif" font-size="14.00">c:c</text>
</g>
<!-- 3 -->
<g id="node7" class="node"><title>3</title>
<ellipse fill="none" stroke="black" cx="575.587" cy="-80.7982" rx="18" ry="18"/>
<text text-anchor="middle" x="575.587" y="-77.0982" font-family="Helvetica,sans-Serif" font-size="14.00">3</text>
</g>
<!-- 2&#45;&gt;3 -->
<g id="edge6" class="edge"><title>2&#45;&gt;3</title>
<path fill="none" stroke="black" d="M506.151,-80.7982C517.974,-80.7982 533.866,-80.7982 547.359,-80.7982"/>
<polygon fill="black" stroke="black" points="547.543,-84.2983 557.543,-80.7982 547.543,-77.2983 547.543,-84.2983"/>
<text text-anchor="middle" x="530.289" y="-84.5982" font-family="Helvetica,sans-Serif" font-size="14.00">i:i</text>
</g>
<!-- 4 -->
<g id="node8" class="node"><title>4</title>
<ellipse fill="none" stroke="black" cx="666.183" cy="-80.7982" rx="18" ry="18"/>
<text text-anchor="middle" x="666.183" y="-77.0982" font-family="Helvetica,sans-Serif" font-size="14.00">4</text>
</g>
<!-- 3&#45;&gt;4 -->
<g id="edge7" class="edge"><title>3&#45;&gt;4</title>
<path fill="none" stroke="black" d="M593.669,-80.7982C606.171,-80.7982 623.394,-80.7982 637.806,-80.7982"/>
<polygon fill="black" stroke="black" points="638.154,-84.2983 648.154,-80.7982 638.154,-77.2983 638.154,-84.2983"/>
<text text-anchor="middle" x="620.885" y="-84.5982" font-family="Helvetica,sans-Serif" font-size="14.00">s:s</text>
</g>
<!-- 5 -->
<g id="node9" class="node"><title>5</title>
<ellipse fill="none" stroke="black" cx="756.78" cy="-80.7982" rx="18" ry="18"/>
<text text-anchor="middle" x="756.78" y="-77.0982" font-family="Helvetica,sans-Serif" font-size="14.00">5</text>
</g>
<!-- 4&#45;&gt;5 -->
<g id="edge8" class="edge"><title>4&#45;&gt;5</title>
<path fill="none" stroke="black" d="M684.266,-80.7982C696.767,-80.7982 713.991,-80.7982 728.402,-80.7982"/>
<polygon fill="black" stroke="black" points="728.75,-84.2983 738.75,-80.7982 728.75,-77.2983 728.75,-84.2983"/>
<text text-anchor="middle" x="711.482" y="-84.5982" font-family="Helvetica,sans-Serif" font-size="14.00">t:t</text>
</g>
<!-- 16 -->
<g id="node10" class="node"><title>16</title>
<ellipse fill="none" stroke="black" cx="867.376" cy="-80.7982" rx="20.5982" ry="20.5982"/>
<text text-anchor="middle" x="867.376" y="-77.0982" font-family="Helvetica,sans-Serif" font-size="14.00">16</text>
</g>
<!-- 5&#45;&gt;16 -->
<g id="edge9" class="edge"><title>5&#45;&gt;16</title>
<path fill="none" stroke="black" d="M775.228,-80.7982C791.694,-80.7982 816.721,-80.7982 836.388,-80.7982"/>
<polygon fill="black" stroke="black" points="836.391,-84.2983 846.391,-80.7982 836.391,-77.2983 836.391,-84.2983"/>
<text text-anchor="middle" x="812.078" y="-84.5982" font-family="Helvetica,sans-Serif" font-size="14.00">ε:&lt;N&gt;</text>
</g>
<!-- 7 -->
<g id="node11" class="node"><title>7</title>
<ellipse fill="none" stroke="black" cx="1343.56" cy="-80.7982" rx="18" ry="18"/>
<ellipse fill="none" stroke="black" cx="1343.56" cy="-80.7982" rx="22" ry="22"/>
<text text-anchor="middle" x="1343.56" y="-77.0982" font-family="Helvetica,sans-Serif" font-size="14.00">7</text>
</g>
<!-- 16&#45;&gt;7 -->
<g id="edge18" class="edge"><title>16&#45;&gt;7</title>
<path fill="none" stroke="black" d="M883.008,-94.971C899.549,-109.443 927.97,-129.798 956.972,-129.798 956.972,-129.798 956.972,-129.798 1232.76,-129.798 1263.63,-129.798 1295.47,-113.449 1316.86,-99.6377"/>
<polygon fill="black" stroke="black" points="1319.01,-102.412 1325.36,-93.9293 1315.11,-96.6019 1319.01,-102.412"/>
<text text-anchor="middle" x="1094.87" y="-133.598" font-family="Helvetica,sans-Serif" font-size="14.00">ε:ε</text>
</g>
<!-- 26 -->
<g id="node17" class="node"><title>26</title>
<ellipse fill="none" stroke="black" cx="306.991" cy="-62.7982" rx="20.5982" ry="20.5982"/>
<text text-anchor="middle" x="306.991" y="-59.0982" font-family="Helvetica,sans-Serif" font-size="14.00">26</text>
</g>
<!-- 16&#45;&gt;26 -->
<g id="edge21" class="edge"><title>16&#45;&gt;26</title>
<path fill="none" stroke="black" d="M850.544,-67.9287C830.313,-52.8204 793.606,-29.7982 757.78,-29.7982 401.789,-29.7982 401.789,-29.7982 401.789,-29.7982 378.084,-29.7982 352.821,-39.2933 334.492,-48.0971"/>
<polygon fill="black" stroke="black" points="332.684,-45.0893 325.331,-52.7178 335.836,-51.3393 332.684,-45.0893"/>
<text text-anchor="middle" x="575.587" y="-33.5982" font-family="Helvetica,sans-Serif" font-size="14.00">ε:ε</text>
</g>
<!-- 17 -->
<g id="node18" class="node"><title>17</title>
<ellipse fill="none" stroke="black" cx="957.972" cy="-80.7982" rx="20.5982" ry="20.5982"/>
<text text-anchor="middle" x="957.972" y="-77.0982" font-family="Helvetica,sans-Serif" font-size="14.00">17</text>
</g>
<!-- 16&#45;&gt;17 -->
<g id="edge19" class="edge"><title>16&#45;&gt;17</title>
<path fill="none" stroke="black" d="M888.48,-80.7982C899.807,-80.7982 914.18,-80.7982 926.831,-80.7982"/>
<polygon fill="black" stroke="black" points="926.948,-84.2983 936.948,-80.7982 926.948,-77.2983 926.948,-84.2983"/>
<text text-anchor="middle" x="912.674" y="-84.5982" font-family="Helvetica,sans-Serif" font-size="14.00">l:l</text>
</g>
<!-- 21 -->
<g id="node19" class="node"><title>21</title>
<ellipse fill="none" stroke="black" cx="957.972" cy="-20.7982" rx="20.5982" ry="20.5982"/>
<text text-anchor="middle" x="957.972" y="-17.0982" font-family="Helvetica,sans-Serif" font-size="14.00">21</text>
</g>
<!-- 16&#45;&gt;21 -->
<g id="edge20" class="edge"><title>16&#45;&gt;21</title>
<path fill="none" stroke="black" d="M885.04,-69.5126C898.281,-60.5455 917.007,-47.8642 932.033,-37.6881"/>
<polygon fill="black" stroke="black" points="934.065,-40.5385 940.383,-32.0331 930.14,-34.7426 934.065,-40.5385"/>
<text text-anchor="middle" x="912.674" y="-60.5982" font-family="Helvetica,sans-Serif" font-size="14.00">h:h</text>
</g>
<!-- 10 -->
<g id="node13" class="node"><title>10</title>
<ellipse fill="none" stroke="black" cx="575.587" cy="-137.798" rx="20.5982" ry="20.5982"/>
<text text-anchor="middle" x="575.587" y="-134.098" font-family="Helvetica,sans-Serif" font-size="14.00">10</text>
</g>
<!-- 9&#45;&gt;10 -->
<g id="edge11" class="edge"><title>9&#45;&gt;10</title>
<path fill="none" stroke="black" d="M506.151,-137.798C517.092,-137.798 531.517,-137.798 544.302,-137.798"/>
<polygon fill="black" stroke="black" points="544.542,-141.298 554.542,-137.798 544.542,-134.298 544.542,-141.298"/>
<text text-anchor="middle" x="530.289" y="-141.598" font-family="Helvetica,sans-Serif" font-size="14.00">h:h</text>
</g>
<!-- 11 -->
<g id="node14" class="node"><title>11</title>
<ellipse fill="none" stroke="black" cx="666.183" cy="-137.798" rx="20.5982" ry="20.5982"/>
<text text-anchor="middle" x="666.183" y="-134.098" font-family="Helvetica,sans-Serif" font-size="14.00">11</text>
</g>
<!-- 10&#45;&gt;11 -->
<g id="edge12" class="edge"><title>10&#45;&gt;11</title>
<path fill="none" stroke="black" d="M596.691,-137.798C608.019,-137.798 622.391,-137.798 635.042,-137.798"/>
<polygon fill="black" stroke="black" points="635.159,-141.298 645.159,-137.798 635.159,-134.298 635.159,-141.298"/>
<text text-anchor="middle" x="620.885" y="-141.598" font-family="Helvetica,sans-Serif" font-size="14.00">ö:ö</text>
</g>
<!-- 12 -->
<g id="node15" class="node"><title>12</title>
<ellipse fill="none" stroke="black" cx="756.78" cy="-137.798" rx="20.5982" ry="20.5982"/>
<text text-anchor="middle" x="756.78" y="-134.098" font-family="Helvetica,sans-Serif" font-size="14.00">12</text>
</g>
<!-- 11&#45;&gt;12 -->
<g id="edge13" class="edge"><title>11&#45;&gt;12</title>
<path fill="none" stroke="black" d="M687.287,-137.798C698.615,-137.798 712.987,-137.798 725.638,-137.798"/>
<polygon fill="black" stroke="black" points="725.755,-141.298 735.755,-137.798 725.755,-134.298 725.755,-141.298"/>
<text text-anchor="middle" x="711.482" y="-141.598" font-family="Helvetica,sans-Serif" font-size="14.00">n:n</text>
</g>
<!-- 12&#45;&gt;16 -->
<g id="edge14" class="edge"><title>12&#45;&gt;16</title>
<path fill="none" stroke="black" d="M775.738,-128.705C790.721,-121.081 812.608,-109.859 831.578,-99.7982 834.288,-98.361 837.108,-96.8484 839.92,-95.3303"/>
<polygon fill="black" stroke="black" points="841.604,-98.3984 848.718,-90.5472 838.261,-92.2484 841.604,-98.3984"/>
<text text-anchor="middle" x="812.078" y="-123.598" font-family="Helvetica,sans-Serif" font-size="14.00">ε:&lt;A&gt;</text>
</g>
<!-- 14&#45;&gt;26 -->
<g id="edge17" class="edge"><title>14&#45;&gt;26</title>
<path fill="none" stroke="black" d="M219.444,-62.7982C235.375,-62.7982 257.905,-62.7982 275.984,-62.7982"/>
<polygon fill="black" stroke="black" points="276.031,-66.2983 286.031,-62.7982 276.031,-59.2983 276.031,-66.2983"/>
<text text-anchor="middle" x="252.693" y="-66.5982" font-family="Helvetica,sans-Serif" font-size="14.00">ε:&lt;p&gt;</text>
</g>
<!-- 26&#45;&gt;1 -->
<g id="edge30" class="edge"><title>26&#45;&gt;1</title>
<path fill="none" stroke="black" d="M327.788,-60.7865C340.072,-60.1076 356.073,-60.263 369.789,-63.7982 372.644,-64.5342 375.527,-65.5706 378.331,-66.7728"/>
<polygon fill="black" stroke="black" points="376.898,-69.9693 387.409,-71.3027 380.024,-63.7058 376.898,-69.9693"/>
<text text-anchor="middle" x="356.289" y="-67.5982" font-family="Helvetica,sans-Serif" font-size="14.00">g:G</text>
</g>
<!-- 26&#45;&gt;8 -->
<g id="edge31" class="edge"><title>26&#45;&gt;8</title>
<path fill="none" stroke="black" d="M326.187,-70.8153C339.153,-77.0503 356.556,-86.5227 369.789,-97.7982 375.52,-102.681 380.959,-108.709 385.674,-114.59"/>
<polygon fill="black" stroke="black" points="383.182,-117.097 392.012,-122.952 388.761,-112.868 383.182,-117.097"/>
<text text-anchor="middle" x="356.289" y="-101.598" font-family="Helvetica,sans-Serif" font-size="14.00">s:s</text>
</g>
<!-- 18 -->
<g id="node20" class="node"><title>18</title>
<ellipse fill="none" stroke="black" cx="1048.57" cy="-80.7982" rx="20.5982" ry="20.5982"/>
<text text-anchor="middle" x="1048.57" y="-77.0982" font-family="Helvetica,sans-Serif" font-size="14.00">18</text>
</g>
<!-- 17&#45;&gt;18 -->
<g id="edge22" class="edge"><title>17&#45;&gt;18</title>
<path fill="none" stroke="black" d="M979.076,-80.7982C990.404,-80.7982 1004.78,-80.7982 1017.43,-80.7982"/>
<polygon fill="black" stroke="black" points="1017.54,-84.2983 1027.54,-80.7982 1017.54,-77.2983 1017.54,-84.2983"/>
<text text-anchor="middle" x="1003.27" y="-84.5982" font-family="Helvetica,sans-Serif" font-size="14.00">i:i</text>
</g>
<!-- 22 -->
<g id="node23" class="node"><title>22</title>
<ellipse fill="none" stroke="black" cx="1048.57" cy="-20.7982" rx="20.5982" ry="20.5982"/>
<text text-anchor="middle" x="1048.57" y="-17.0982" font-family="Helvetica,sans-Serif" font-size="14.00">22</text>
</g>
<!-- 21&#45;&gt;22 -->
<g id="edge26" class="edge"><title>21&#45;&gt;22</title>
<path fill="none" stroke="black" d="M979.076,-20.7982C990.404,-20.7982 1004.78,-20.7982 1017.43,-20.7982"/>
<polygon fill="black" stroke="black" points="1017.54,-24.2983 1027.54,-20.7982 1017.54,-17.2983 1017.54,-24.2983"/>
<text text-anchor="middle" x="1003.27" y="-24.5982" font-family="Helvetica,sans-Serif" font-size="14.00">e:e</text>
</g>
<!-- 19 -->
<g id="node21" class="node"><title>19</title>
<ellipse fill="none" stroke="black" cx="1141.16" cy="-80.7982" rx="20.5982" ry="20.5982"/>
<text text-anchor="middle" x="1141.16" y="-77.0982" font-family="Helvetica,sans-Serif" font-size="14.00">19</text>
</g>
<!-- 18&#45;&gt;19 -->
<g id="edge23" class="edge"><title>18&#45;&gt;19</title>
<path fill="none" stroke="black" d="M1069.67,-80.7982C1081.52,-80.7982 1096.74,-80.7982 1110,-80.7982"/>
<polygon fill="black" stroke="black" points="1110.11,-84.2983 1120.11,-80.7982 1110.11,-77.2983 1110.11,-84.2983"/>
<text text-anchor="middle" x="1094.87" y="-84.5982" font-family="Helvetica,sans-Serif" font-size="14.00">c:c</text>
</g>
<!-- 20 -->
<g id="node22" class="node"><title>20</title>
<ellipse fill="none" stroke="black" cx="1231.76" cy="-80.7982" rx="20.5982" ry="20.5982"/>
<text text-anchor="middle" x="1231.76" y="-77.0982" font-family="Helvetica,sans-Serif" font-size="14.00">20</text>
</g>
<!-- 19&#45;&gt;20 -->
<g id="edge24" class="edge"><title>19&#45;&gt;20</title>
<path fill="none" stroke="black" d="M1162.27,-80.7982C1173.6,-80.7982 1187.97,-80.7982 1200.62,-80.7982"/>
<polygon fill="black" stroke="black" points="1200.74,-84.2983 1210.74,-80.7982 1200.74,-77.2983 1200.74,-84.2983"/>
<text text-anchor="middle" x="1186.46" y="-84.5982" font-family="Helvetica,sans-Serif" font-size="14.00">h:h</text>
</g>
<!-- 20&#45;&gt;7 -->
<g id="edge25" class="edge"><title>20&#45;&gt;7</title>
<path fill="none" stroke="black" d="M1252.64,-80.7982C1268.94,-80.7982 1292.3,-80.7982 1311.13,-80.7982"/>
<polygon fill="black" stroke="black" points="1311.33,-84.2983 1321.33,-80.7982 1311.33,-77.2983 1311.33,-84.2983"/>
<text text-anchor="middle" x="1287.06" y="-84.5982" font-family="Helvetica,sans-Serif" font-size="14.00">ε:&lt;A&gt;</text>
</g>
<!-- 24 -->
<g id="node24" class="node"><title>24</title>
<ellipse fill="none" stroke="black" cx="1141.16" cy="-20.7982" rx="20.5982" ry="20.5982"/>
<text text-anchor="middle" x="1141.16" y="-17.0982" font-family="Helvetica,sans-Serif" font-size="14.00">24</text>
</g>
<!-- 22&#45;&gt;24 -->
<g id="edge27" class="edge"><title>22&#45;&gt;24</title>
<path fill="none" stroke="black" d="M1069.67,-20.7982C1081.52,-20.7982 1096.74,-20.7982 1110,-20.7982"/>
<polygon fill="black" stroke="black" points="1110.11,-24.2983 1120.11,-20.7982 1110.11,-17.2983 1110.11,-24.2983"/>
<text text-anchor="middle" x="1094.87" y="-24.5982" font-family="Helvetica,sans-Serif" font-size="14.00">i:i</text>
</g>
<!-- 25 -->
<g id="node25" class="node"><title>25</title>
<ellipse fill="none" stroke="black" cx="1231.76" cy="-20.7982" rx="20.5982" ry="20.5982"/>
<text text-anchor="middle" x="1231.76" y="-17.0982" font-family="Helvetica,sans-Serif" font-size="14.00">25</text>
</g>
<!-- 24&#45;&gt;25 -->
<g id="edge28" class="edge"><title>24&#45;&gt;25</title>
<path fill="none" stroke="black" d="M1162.27,-20.7982C1173.6,-20.7982 1187.97,-20.7982 1200.62,-20.7982"/>
<polygon fill="black" stroke="black" points="1200.74,-24.2983 1210.74,-20.7982 1200.74,-17.2983 1200.74,-24.2983"/>
<text text-anchor="middle" x="1186.46" y="-24.5982" font-family="Helvetica,sans-Serif" font-size="14.00">t:t</text>
</g>
<!-- 25&#45;&gt;7 -->
<g id="edge29" class="edge"><title>25&#45;&gt;7</title>
<path fill="none" stroke="black" d="M1250.4,-30.4382C1267.86,-39.9754 1294.82,-54.7106 1315.08,-65.7823"/>
<polygon fill="black" stroke="black" points="1313.41,-68.8556 1323.86,-70.5796 1316.76,-62.7129 1313.41,-68.8556"/>
<text text-anchor="middle" x="1287.06" y="-63.5982" font-family="Helvetica,sans-Serif" font-size="14.00">ε:&lt;N&gt;</text>
</g>
</g>
</svg>
