<?xml version="1.0" encoding="UTF-8" standalone="no"?>
<!DOCTYPE svg PUBLIC "-//W3C//DTD SVG 1.1//EN"
 "http://www.w3.org/Graphics/SVG/1.1/DTD/svg11.dtd">
<!-- Generated by graphviz version 2.38.0 (20140413.2041)
 -->
<!-- Title: FSM Pages: 1 -->
<svg width="360pt" height="33pt"
 viewBox="0.00 0.00 360.00 32.67" xmlns="http://www.w3.org/2000/svg" xmlns:xlink="http://www.w3.org/1999/xlink">
<g id="graph0" class="graph" transform="scale(0.628272 0.628272) rotate(0) translate(4 48)">
<title>FSM</title>
<polygon fill="white" stroke="none" points="-4,4 -4,-48 569,-48 569,4 -4,4"/>
<!-- 0 -->
<g id="node1" class="node"><title>0</title>
<ellipse fill="none" stroke="black" stroke-width="2" cx="18" cy="-22" rx="18" ry="18"/>
<text text-anchor="middle" x="18" y="-18.3" font-family="Helvetica,sans-Serif" font-size="14.00">0</text>
</g>
<!-- 1 -->
<g id="node2" class="node"><title>1</title>
<ellipse fill="none" stroke="black" cx="111" cy="-22" rx="18" ry="18"/>
<text text-anchor="middle" x="111" y="-18.3" font-family="Helvetica,sans-Serif" font-size="14.00">1</text>
</g>
<!-- 0&#45;&gt;1 -->
<g id="edge1" class="edge"><title>0&#45;&gt;1</title>
<path fill="none" stroke="black" d="M36.1164,-22C49.2082,-22 67.5198,-22 82.6373,-22"/>
<polygon fill="black" stroke="black" points="82.9604,-25.5001 92.9603,-22 82.9603,-18.5001 82.9604,-25.5001"/>
<text text-anchor="middle" x="64.5" y="-25.8" font-family="Helvetica,sans-Serif" font-size="14.00">G:G</text>
</g>
<!-- 2 -->
<g id="node3" class="node"><title>2</title>
<ellipse fill="none" stroke="black" cx="196" cy="-22" rx="18" ry="18"/>
<text text-anchor="middle" x="196" y="-18.3" font-family="Helvetica,sans-Serif" font-size="14.00">2</text>
</g>
<!-- 1&#45;&gt;2 -->
<g id="edge2" class="edge"><title>1&#45;&gt;2</title>
<path fill="none" stroke="black" d="M129.198,-22C140.326,-22 155.055,-22 167.756,-22"/>
<polygon fill="black" stroke="black" points="167.824,-25.5001 177.824,-22 167.824,-18.5001 167.824,-25.5001"/>
<text text-anchor="middle" x="153.5" y="-25.8" font-family="Helvetica,sans-Serif" font-size="14.00">e:e</text>
</g>
<!-- 3 -->
<g id="node4" class="node"><title>3</title>
<ellipse fill="none" stroke="black" cx="272" cy="-22" rx="18" ry="18"/>
<text text-anchor="middle" x="272" y="-18.3" font-family="Helvetica,sans-Serif" font-size="14.00">3</text>
</g>
<!-- 2&#45;&gt;3 -->
<g id="edge3" class="edge"><title>2&#45;&gt;3</title>
<path fill="none" stroke="black" d="M214.163,-22C222.942,-22 233.837,-22 243.733,-22"/>
<polygon fill="black" stroke="black" points="243.93,-25.5001 253.93,-22 243.93,-18.5001 243.93,-25.5001"/>
<text text-anchor="middle" x="234" y="-25.8" font-family="Helvetica,sans-Serif" font-size="14.00">i:i</text>
</g>
<!-- 4 -->
<g id="node5" class="node"><title>4</title>
<ellipse fill="none" stroke="black" cx="356" cy="-22" rx="18" ry="18"/>
<text text-anchor="middle" x="356" y="-18.3" font-family="Helvetica,sans-Serif" font-size="14.00">4</text>
</g>
<!-- 3&#45;&gt;4 -->
<g id="edge4" class="edge"><title>3&#45;&gt;4</title>
<path fill="none" stroke="black" d="M290.39,-22C301.226,-22 315.399,-22 327.709,-22"/>
<polygon fill="black" stroke="black" points="327.916,-25.5001 337.916,-22 327.916,-18.5001 327.916,-25.5001"/>
<text text-anchor="middle" x="314" y="-25.8" font-family="Helvetica,sans-Serif" font-size="14.00">s:s</text>
</g>
<!-- 5 -->
<g id="node6" class="node"><title>5</title>
<ellipse fill="none" stroke="black" cx="434" cy="-22" rx="18" ry="18"/>
<text text-anchor="middle" x="434" y="-18.3" font-family="Helvetica,sans-Serif" font-size="14.00">5</text>
</g>
<!-- 4&#45;&gt;5 -->
<g id="edge5" class="edge"><title>4&#45;&gt;5</title>
<path fill="none" stroke="black" d="M374.246,-22C383.477,-22 395.065,-22 405.505,-22"/>
<polygon fill="black" stroke="black" points="405.823,-25.5001 415.823,-22 405.823,-18.5001 405.823,-25.5001"/>
<text text-anchor="middle" x="395" y="-25.8" font-family="Helvetica,sans-Serif" font-size="14.00">t:t</text>
</g>
<!-- 7 -->
<g id="node7" class="node"><title>7</title>
<ellipse fill="none" stroke="black" cx="543" cy="-22" rx="18" ry="18"/>
<ellipse fill="none" stroke="black" cx="543" cy="-22" rx="22" ry="22"/>
<text text-anchor="middle" x="543" y="-18.3" font-family="Helvetica,sans-Serif" font-size="14.00">7</text>
</g>
<!-- 5&#45;&gt;7 -->
<g id="edge6" class="edge"><title>5&#45;&gt;7</title>
<path fill="none" stroke="black" d="M452.191,-22C467.942,-22 491.643,-22 510.743,-22"/>
<polygon fill="black" stroke="black" points="510.8,-25.5001 520.8,-22 510.8,-18.5001 510.8,-25.5001"/>
<text text-anchor="middle" x="486.5" y="-25.8" font-family="Helvetica,sans-Serif" font-size="14.00">ε:&lt;N&gt;</text>
</g>
</g>
</svg>
