<?xml version="1.0" encoding="UTF-8" standalone="no"?>
<!DOCTYPE svg PUBLIC "-//W3C//DTD SVG 1.1//EN"
 "http://www.w3.org/Graphics/SVG/1.1/DTD/svg11.dtd">
<!-- Generated by graphviz version 2.38.0 (20140413.2041)
 -->
<!-- Title: FSM Pages: 1 -->
<svg width="360pt" height="43pt"
 viewBox="0.00 0.00 360.00 42.93" xmlns="http://www.w3.org/2000/svg" xmlns:xlink="http://www.w3.org/1999/xlink">
<g id="graph0" class="graph" transform="scale(0.262093 0.262093) rotate(0) translate(4 159.798)">
<title>FSM</title>
<polygon fill="white" stroke="none" points="-4,4 -4,-159.798 1369.56,-159.798 1369.56,4 -4,4"/>
<!-- 0 -->
<g id="node1" class="node"><title>0</title>
<ellipse fill="none" stroke="black" stroke-width="2" cx="18" cy="-80.7982" rx="18" ry="18"/>
<text text-anchor="middle" x="18" y="-77.0982" font-family="Helvetica,sans-Serif" font-size="14.00">0</text>
</g>
<!-- 13 -->
<g id="node2" class="node"><title>13</title>
<ellipse fill="none" stroke="black" cx="105.798" cy="-109.798" rx="20.5982" ry="20.5982"/>
<text text-anchor="middle" x="105.798" y="-106.098" font-family="Helvetica,sans-Serif" font-size="14.00">13</text>
</g>
<!-- 0&#45;&gt;13 -->
<g id="edge1" class="edge"><title>0&#45;&gt;13</title>
<path fill="none" stroke="black" d="M35.5427,-86.3896C47.0287,-90.2719 62.6303,-95.5453 76.1177,-100.104"/>
<polygon fill="black" stroke="black" points="75.3221,-103.53 85.9163,-103.416 77.5636,-96.8982 75.3221,-103.53"/>
<text text-anchor="middle" x="60.5" y="-102.598" font-family="Helvetica,sans-Serif" font-size="14.00">u:u</text>
</g>
<!-- 15 -->
<g id="node3" class="node"><title>15</title>
<ellipse fill="none" stroke="black" cx="306.991" cy="-80.7982" rx="20.5982" ry="20.5982"/>
<text text-anchor="middle" x="306.991" y="-77.0982" font-family="Helvetica,sans-Serif" font-size="14.00">15</text>
</g>
<!-- 0&#45;&gt;15 -->
<g id="edge2" class="edge"><title>0&#45;&gt;15</title>
<path fill="none" stroke="black" d="M36.0928,-80.4682C49.4169,-80.2281 68.384,-79.924 85,-79.7982 144.639,-79.3464 159.552,-79.4546 219.193,-79.7982 237.983,-79.9064 259.06,-80.1464 275.739,-80.3642"/>
<polygon fill="black" stroke="black" points="275.95,-83.8672 285.996,-80.5025 276.044,-76.8679 275.95,-83.8672"/>
<text text-anchor="middle" x="152.096" y="-83.5982" font-family="Helvetica,sans-Serif" font-size="14.00">ε:ε</text>
</g>
<!-- 14 -->
<g id="node16" class="node"><title>14</title>
<ellipse fill="none" stroke="black" cx="198.394" cy="-109.798" rx="20.5982" ry="20.5982"/>
<text text-anchor="middle" x="198.394" y="-106.098" font-family="Helvetica,sans-Serif" font-size="14.00">14</text>
</g>
<!-- 13&#45;&gt;14 -->
<g id="edge15" class="edge"><title>13&#45;&gt;14</title>
<path fill="none" stroke="black" d="M125.735,-116.278C130.824,-117.732 136.368,-119.062 141.596,-119.798 150.838,-121.1 153.354,-121.1 162.596,-119.798 164.557,-119.522 166.562,-119.162 168.571,-118.744"/>
<polygon fill="black" stroke="black" points="169.603,-122.094 178.458,-116.278 167.908,-115.302 169.603,-122.094"/>
<text text-anchor="middle" x="152.096" y="-124.598" font-family="Helvetica,sans-Serif" font-size="14.00">n:n</text>
</g>
<!-- 13&#45;&gt;14 -->
<g id="edge16" class="edge"><title>13&#45;&gt;14</title>
<path fill="none" stroke="black" d="M125.773,-103.965C130.862,-102.656 136.397,-101.46 141.596,-100.798 150.855,-99.6202 153.338,-99.6202 162.596,-100.798 164.546,-101.046 166.543,-101.37 168.546,-101.746"/>
<polygon fill="black" stroke="black" points="167.895,-105.187 178.419,-103.965 169.43,-98.3571 167.895,-105.187"/>
<text text-anchor="middle" x="152.096" y="-105.598" font-family="Helvetica,sans-Serif" font-size="14.00">r:r</text>
</g>
<!-- 1 -->
<g id="node4" class="node"><title>1</title>
<ellipse fill="none" stroke="black" cx="402.789" cy="-134.798" rx="18" ry="18"/>
<text text-anchor="middle" x="402.789" y="-131.098" font-family="Helvetica,sans-Serif" font-size="14.00">1</text>
</g>
<!-- 15&#45;&gt;1 -->
<g id="edge3" class="edge"><title>15&#45;&gt;1</title>
<path fill="none" stroke="black" d="M325.633,-90.9551C340.362,-99.4342 361.499,-111.603 377.77,-120.97"/>
<polygon fill="black" stroke="black" points="376.29,-124.157 386.702,-126.113 379.782,-118.09 376.29,-124.157"/>
<text text-anchor="middle" x="356.289" y="-119.598" font-family="Helvetica,sans-Serif" font-size="14.00">G:G</text>
</g>
<!-- 8 -->
<g id="node5" class="node"><title>8</title>
<ellipse fill="none" stroke="black" cx="402.789" cy="-80.7982" rx="18" ry="18"/>
<text text-anchor="middle" x="402.789" y="-77.0982" font-family="Helvetica,sans-Serif" font-size="14.00">8</text>
</g>
<!-- 15&#45;&gt;8 -->
<g id="edge4" class="edge"><title>15&#45;&gt;8</title>
<path fill="none" stroke="black" d="M327.883,-80.7982C341.471,-80.7982 359.647,-80.7982 374.573,-80.7982"/>
<polygon fill="black" stroke="black" points="374.755,-84.2983 384.755,-80.7982 374.755,-77.2983 374.755,-84.2983"/>
<text text-anchor="middle" x="356.289" y="-84.5982" font-family="Helvetica,sans-Serif" font-size="14.00">s:s</text>
</g>
<!-- 2 -->
<g id="node6" class="node"><title>2</title>
<ellipse fill="none" stroke="black" cx="487.789" cy="-135.798" rx="18" ry="18"/>
<text text-anchor="middle" x="487.789" y="-132.098" font-family="Helvetica,sans-Serif" font-size="14.00">2</text>
</g>
<!-- 1&#45;&gt;2 -->
<g id="edge5" class="edge"><title>1&#45;&gt;2</title>
<path fill="none" stroke="black" d="M420.987,-135.005C432.115,-135.139 446.844,-135.317 459.545,-135.47"/>
<polygon fill="black" stroke="black" points="459.572,-138.97 469.613,-135.591 459.656,-131.971 459.572,-138.97"/>
<text text-anchor="middle" x="445.289" y="-139.598" font-family="Helvetica,sans-Serif" font-size="14.00">e:e</text>
</g>
<!-- 9 -->
<g id="node12" class="node"><title>9</title>
<ellipse fill="none" stroke="black" cx="487.789" cy="-80.7982" rx="18" ry="18"/>
<text text-anchor="middle" x="487.789" y="-77.0982" font-family="Helvetica,sans-Serif" font-size="14.00">9</text>
</g>
<!-- 8&#45;&gt;9 -->
<g id="edge10" class="edge"><title>8&#45;&gt;9</title>
<path fill="none" stroke="black" d="M420.987,-80.7982C432.115,-80.7982 446.844,-80.7982 459.545,-80.7982"/>
<polygon fill="black" stroke="black" points="459.613,-84.2983 469.613,-80.7982 459.613,-77.2983 459.613,-84.2983"/>
<text text-anchor="middle" x="445.289" y="-84.5982" font-family="Helvetica,sans-Serif" font-size="14.00">c:c</text>
</g>
<!-- 3 -->
<g id="node7" class="node"><title>3</title>
<ellipse fill="none" stroke="black" cx="575.587" cy="-137.798" rx="18" ry="18"/>
<text text-anchor="middle" x="575.587" y="-134.098" font-family="Helvetica,sans-Serif" font-size="14.00">3</text>
</g>
<!-- 2&#45;&gt;3 -->
<g id="edge6" class="edge"><title>2&#45;&gt;3</title>
<path fill="none" stroke="black" d="M506.151,-136.203C517.974,-136.478 533.866,-136.849 547.359,-137.163"/>
<polygon fill="black" stroke="black" points="547.464,-140.667 557.543,-137.401 547.627,-133.669 547.464,-140.667"/>
<text text-anchor="middle" x="530.289" y="-141.598" font-family="Helvetica,sans-Serif" font-size="14.00">i:i</text>
</g>
<!-- 4 -->
<g id="node8" class="node"><title>4</title>
<ellipse fill="none" stroke="black" cx="666.183" cy="-137.798" rx="18" ry="18"/>
<text text-anchor="middle" x="666.183" y="-134.098" font-family="Helvetica,sans-Serif" font-size="14.00">4</text>
</g>
<!-- 3&#45;&gt;4 -->
<g id="edge7" class="edge"><title>3&#45;&gt;4</title>
<path fill="none" stroke="black" d="M593.669,-137.798C606.171,-137.798 623.394,-137.798 637.806,-137.798"/>
<polygon fill="black" stroke="black" points="638.154,-141.298 648.154,-137.798 638.154,-134.298 638.154,-141.298"/>
<text text-anchor="middle" x="620.885" y="-141.598" font-family="Helvetica,sans-Serif" font-size="14.00">s:s</text>
</g>
<!-- 5 -->
<g id="node9" class="node"><title>5</title>
<ellipse fill="none" stroke="black" cx="756.78" cy="-137.798" rx="18" ry="18"/>
<text text-anchor="middle" x="756.78" y="-134.098" font-family="Helvetica,sans-Serif" font-size="14.00">5</text>
</g>
<!-- 4&#45;&gt;5 -->
<g id="edge8" class="edge"><title>4&#45;&gt;5</title>
<path fill="none" stroke="black" d="M684.266,-137.798C696.767,-137.798 713.991,-137.798 728.402,-137.798"/>
<polygon fill="black" stroke="black" points="728.75,-141.298 738.75,-137.798 728.75,-134.298 728.75,-141.298"/>
<text text-anchor="middle" x="711.482" y="-141.598" font-family="Helvetica,sans-Serif" font-size="14.00">t:t</text>
</g>
<!-- 16 -->
<g id="node10" class="node"><title>16</title>
<ellipse fill="none" stroke="black" cx="867.376" cy="-80.7982" rx="20.5982" ry="20.5982"/>
<text text-anchor="middle" x="867.376" y="-77.0982" font-family="Helvetica,sans-Serif" font-size="14.00">16</text>
</g>
<!-- 5&#45;&gt;16 -->
<g id="edge9" class="edge"><title>5&#45;&gt;16</title>
<path fill="none" stroke="black" d="M773.101,-130.046C788.066,-122.441 811.463,-110.467 831.578,-99.7982 834.288,-98.361 837.108,-96.8484 839.92,-95.3303"/>
<polygon fill="black" stroke="black" points="841.604,-98.3984 848.718,-90.5472 838.261,-92.2484 841.604,-98.3984"/>
<text text-anchor="middle" x="812.078" y="-123.598" font-family="Helvetica,sans-Serif" font-size="14.00">ε:&lt;N&gt;</text>
</g>
<!-- 16&#45;&gt;15 -->
<g id="edge21" class="edge"><title>16&#45;&gt;15</title>
<path fill="none" stroke="black" d="M851.019,-67.4498C830.994,-51.4589 794.206,-26.7982 757.78,-26.7982 401.789,-26.7982 401.789,-26.7982 401.789,-26.7982 374.251,-26.7982 347.502,-44.4957 329.664,-59.6279"/>
<polygon fill="black" stroke="black" points="327.275,-57.0686 322.124,-66.3271 331.924,-62.3014 327.275,-57.0686"/>
<text text-anchor="middle" x="575.587" y="-30.5982" font-family="Helvetica,sans-Serif" font-size="14.00">ε:ε</text>
</g>
<!-- 7 -->
<g id="node11" class="node"><title>7</title>
<ellipse fill="none" stroke="black" cx="1343.56" cy="-80.7982" rx="18" ry="18"/>
<ellipse fill="none" stroke="black" cx="1343.56" cy="-80.7982" rx="22" ry="22"/>
<text text-anchor="middle" x="1343.56" y="-77.0982" font-family="Helvetica,sans-Serif" font-size="14.00">7</text>
</g>
<!-- 16&#45;&gt;7 -->
<g id="edge18" class="edge"><title>16&#45;&gt;7</title>
<path fill="none" stroke="black" d="M883.008,-94.971C899.549,-109.443 927.97,-129.798 956.972,-129.798 956.972,-129.798 956.972,-129.798 1232.76,-129.798 1263.63,-129.798 1295.47,-113.449 1316.86,-99.6377"/>
<polygon fill="black" stroke="black" points="1319.01,-102.412 1325.36,-93.9293 1315.11,-96.6019 1319.01,-102.412"/>
<text text-anchor="middle" x="1094.87" y="-133.598" font-family="Helvetica,sans-Serif" font-size="14.00">ε:ε</text>
</g>
<!-- 17 -->
<g id="node17" class="node"><title>17</title>
<ellipse fill="none" stroke="black" cx="957.972" cy="-80.7982" rx="20.5982" ry="20.5982"/>
<text text-anchor="middle" x="957.972" y="-77.0982" font-family="Helvetica,sans-Serif" font-size="14.00">17</text>
</g>
<!-- 16&#45;&gt;17 -->
<g id="edge19" class="edge"><title>16&#45;&gt;17</title>
<path fill="none" stroke="black" d="M888.48,-80.7982C899.807,-80.7982 914.18,-80.7982 926.831,-80.7982"/>
<polygon fill="black" stroke="black" points="926.948,-84.2983 936.948,-80.7982 926.948,-77.2983 926.948,-84.2983"/>
<text text-anchor="middle" x="912.674" y="-84.5982" font-family="Helvetica,sans-Serif" font-size="14.00">l:l</text>
</g>
<!-- 21 -->
<g id="node18" class="node"><title>21</title>
<ellipse fill="none" stroke="black" cx="957.972" cy="-20.7982" rx="20.5982" ry="20.5982"/>
<text text-anchor="middle" x="957.972" y="-17.0982" font-family="Helvetica,sans-Serif" font-size="14.00">21</text>
</g>
<!-- 16&#45;&gt;21 -->
<g id="edge20" class="edge"><title>16&#45;&gt;21</title>
<path fill="none" stroke="black" d="M885.04,-69.5126C898.281,-60.5455 917.007,-47.8642 932.033,-37.6881"/>
<polygon fill="black" stroke="black" points="934.065,-40.5385 940.383,-32.0331 930.14,-34.7426 934.065,-40.5385"/>
<text text-anchor="middle" x="912.674" y="-60.5982" font-family="Helvetica,sans-Serif" font-size="14.00">h:h</text>
</g>
<!-- 10 -->
<g id="node13" class="node"><title>10</title>
<ellipse fill="none" stroke="black" cx="575.587" cy="-80.7982" rx="20.5982" ry="20.5982"/>
<text text-anchor="middle" x="575.587" y="-77.0982" font-family="Helvetica,sans-Serif" font-size="14.00">10</text>
</g>
<!-- 9&#45;&gt;10 -->
<g id="edge11" class="edge"><title>9&#45;&gt;10</title>
<path fill="none" stroke="black" d="M506.151,-80.7982C517.092,-80.7982 531.517,-80.7982 544.302,-80.7982"/>
<polygon fill="black" stroke="black" points="544.542,-84.2983 554.542,-80.7982 544.542,-77.2983 544.542,-84.2983"/>
<text text-anchor="middle" x="530.289" y="-84.5982" font-family="Helvetica,sans-Serif" font-size="14.00">h:h</text>
</g>
<!-- 11 -->
<g id="node14" class="node"><title>11</title>
<ellipse fill="none" stroke="black" cx="666.183" cy="-80.7982" rx="20.5982" ry="20.5982"/>
<text text-anchor="middle" x="666.183" y="-77.0982" font-family="Helvetica,sans-Serif" font-size="14.00">11</text>
</g>
<!-- 10&#45;&gt;11 -->
<g id="edge12" class="edge"><title>10&#45;&gt;11</title>
<path fill="none" stroke="black" d="M596.691,-80.7982C608.019,-80.7982 622.391,-80.7982 635.042,-80.7982"/>
<polygon fill="black" stroke="black" points="635.159,-84.2983 645.159,-80.7982 635.159,-77.2983 635.159,-84.2983"/>
<text text-anchor="middle" x="620.885" y="-84.5982" font-family="Helvetica,sans-Serif" font-size="14.00">ö:ö</text>
</g>
<!-- 12 -->
<g id="node15" class="node"><title>12</title>
<ellipse fill="none" stroke="black" cx="756.78" cy="-80.7982" rx="20.5982" ry="20.5982"/>
<text text-anchor="middle" x="756.78" y="-77.0982" font-family="Helvetica,sans-Serif" font-size="14.00">12</text>
</g>
<!-- 11&#45;&gt;12 -->
<g id="edge13" class="edge"><title>11&#45;&gt;12</title>
<path fill="none" stroke="black" d="M687.287,-80.7982C698.615,-80.7982 712.987,-80.7982 725.638,-80.7982"/>
<polygon fill="black" stroke="black" points="725.755,-84.2983 735.755,-80.7982 725.755,-77.2983 725.755,-84.2983"/>
<text text-anchor="middle" x="711.482" y="-84.5982" font-family="Helvetica,sans-Serif" font-size="14.00">n:n</text>
</g>
<!-- 12&#45;&gt;16 -->
<g id="edge14" class="edge"><title>12&#45;&gt;16</title>
<path fill="none" stroke="black" d="M777.698,-80.7982C794.051,-80.7982 817.472,-80.7982 836.138,-80.7982"/>
<polygon fill="black" stroke="black" points="836.216,-84.2983 846.216,-80.7982 836.216,-77.2983 836.216,-84.2983"/>
<text text-anchor="middle" x="812.078" y="-84.5982" font-family="Helvetica,sans-Serif" font-size="14.00">ε:&lt;A&gt;</text>
</g>
<!-- 14&#45;&gt;15 -->
<g id="edge17" class="edge"><title>14&#45;&gt;15</title>
<path fill="none" stroke="black" d="M218.946,-104.479C235.174,-100.064 258.493,-93.7201 276.911,-88.7094"/>
<polygon fill="black" stroke="black" points="277.833,-92.0859 286.563,-86.0835 275.995,-85.3314 277.833,-92.0859"/>
<text text-anchor="middle" x="252.693" y="-103.598" font-family="Helvetica,sans-Serif" font-size="14.00">ε:&lt;p&gt;</text>
</g>
<!-- 18 -->
<g id="node19" class="node"><title>18</title>
<ellipse fill="none" stroke="black" cx="1048.57" cy="-80.7982" rx="20.5982" ry="20.5982"/>
<text text-anchor="middle" x="1048.57" y="-77.0982" font-family="Helvetica,sans-Serif" font-size="14.00">18</text>
</g>
<!-- 17&#45;&gt;18 -->
<g id="edge22" class="edge"><title>17&#45;&gt;18</title>
<path fill="none" stroke="black" d="M979.076,-80.7982C990.404,-80.7982 1004.78,-80.7982 1017.43,-80.7982"/>
<polygon fill="black" stroke="black" points="1017.54,-84.2983 1027.54,-80.7982 1017.54,-77.2983 1017.54,-84.2983"/>
<text text-anchor="middle" x="1003.27" y="-84.5982" font-family="Helvetica,sans-Serif" font-size="14.00">i:i</text>
</g>
<!-- 22 -->
<g id="node22" class="node"><title>22</title>
<ellipse fill="none" stroke="black" cx="1048.57" cy="-20.7982" rx="20.5982" ry="20.5982"/>
<text text-anchor="middle" x="1048.57" y="-17.0982" font-family="Helvetica,sans-Serif" font-size="14.00">22</text>
</g>
<!-- 21&#45;&gt;22 -->
<g id="edge26" class="edge"><title>21&#45;&gt;22</title>
<path fill="none" stroke="black" d="M979.076,-20.7982C990.404,-20.7982 1004.78,-20.7982 1017.43,-20.7982"/>
<polygon fill="black" stroke="black" points="1017.54,-24.2983 1027.54,-20.7982 1017.54,-17.2983 1017.54,-24.2983"/>
<text text-anchor="middle" x="1003.27" y="-24.5982" font-family="Helvetica,sans-Serif" font-size="14.00">e:e</text>
</g>
<!-- 19 -->
<g id="node20" class="node"><title>19</title>
<ellipse fill="none" stroke="black" cx="1141.16" cy="-80.7982" rx="20.5982" ry="20.5982"/>
<text text-anchor="middle" x="1141.16" y="-77.0982" font-family="Helvetica,sans-Serif" font-size="14.00">19</text>
</g>
<!-- 18&#45;&gt;19 -->
<g id="edge23" class="edge"><title>18&#45;&gt;19</title>
<path fill="none" stroke="black" d="M1069.67,-80.7982C1081.52,-80.7982 1096.74,-80.7982 1110,-80.7982"/>
<polygon fill="black" stroke="black" points="1110.11,-84.2983 1120.11,-80.7982 1110.11,-77.2983 1110.11,-84.2983"/>
<text text-anchor="middle" x="1094.87" y="-84.5982" font-family="Helvetica,sans-Serif" font-size="14.00">c:c</text>
</g>
<!-- 20 -->
<g id="node21" class="node"><title>20</title>
<ellipse fill="none" stroke="black" cx="1231.76" cy="-80.7982" rx="20.5982" ry="20.5982"/>
<text text-anchor="middle" x="1231.76" y="-77.0982" font-family="Helvetica,sans-Serif" font-size="14.00">20</text>
</g>
<!-- 19&#45;&gt;20 -->
<g id="edge24" class="edge"><title>19&#45;&gt;20</title>
<path fill="none" stroke="black" d="M1162.27,-80.7982C1173.6,-80.7982 1187.97,-80.7982 1200.62,-80.7982"/>
<polygon fill="black" stroke="black" points="1200.74,-84.2983 1210.74,-80.7982 1200.74,-77.2983 1200.74,-84.2983"/>
<text text-anchor="middle" x="1186.46" y="-84.5982" font-family="Helvetica,sans-Serif" font-size="14.00">h:h</text>
</g>
<!-- 20&#45;&gt;7 -->
<g id="edge25" class="edge"><title>20&#45;&gt;7</title>
<path fill="none" stroke="black" d="M1252.64,-80.7982C1268.94,-80.7982 1292.3,-80.7982 1311.13,-80.7982"/>
<polygon fill="black" stroke="black" points="1311.33,-84.2983 1321.33,-80.7982 1311.33,-77.2983 1311.33,-84.2983"/>
<text text-anchor="middle" x="1287.06" y="-84.5982" font-family="Helvetica,sans-Serif" font-size="14.00">ε:&lt;A&gt;</text>
</g>
<!-- 24 -->
<g id="node23" class="node"><title>24</title>
<ellipse fill="none" stroke="black" cx="1141.16" cy="-20.7982" rx="20.5982" ry="20.5982"/>
<text text-anchor="middle" x="1141.16" y="-17.0982" font-family="Helvetica,sans-Serif" font-size="14.00">24</text>
</g>
<!-- 22&#45;&gt;24 -->
<g id="edge27" class="edge"><title>22&#45;&gt;24</title>
<path fill="none" stroke="black" d="M1069.67,-20.7982C1081.52,-20.7982 1096.74,-20.7982 1110,-20.7982"/>
<polygon fill="black" stroke="black" points="1110.11,-24.2983 1120.11,-20.7982 1110.11,-17.2983 1110.11,-24.2983"/>
<text text-anchor="middle" x="1094.87" y="-24.5982" font-family="Helvetica,sans-Serif" font-size="14.00">i:i</text>
</g>
<!-- 25 -->
<g id="node24" class="node"><title>25</title>
<ellipse fill="none" stroke="black" cx="1231.76" cy="-20.7982" rx="20.5982" ry="20.5982"/>
<text text-anchor="middle" x="1231.76" y="-17.0982" font-family="Helvetica,sans-Serif" font-size="14.00">25</text>
</g>
<!-- 24&#45;&gt;25 -->
<g id="edge28" class="edge"><title>24&#45;&gt;25</title>
<path fill="none" stroke="black" d="M1162.27,-20.7982C1173.6,-20.7982 1187.97,-20.7982 1200.62,-20.7982"/>
<polygon fill="black" stroke="black" points="1200.74,-24.2983 1210.74,-20.7982 1200.74,-17.2983 1200.74,-24.2983"/>
<text text-anchor="middle" x="1186.46" y="-24.5982" font-family="Helvetica,sans-Serif" font-size="14.00">t:t</text>
</g>
<!-- 25&#45;&gt;7 -->
<g id="edge29" class="edge"><title>25&#45;&gt;7</title>
<path fill="none" stroke="black" d="M1250.4,-30.4382C1267.86,-39.9754 1294.82,-54.7106 1315.08,-65.7823"/>
<polygon fill="black" stroke="black" points="1313.41,-68.8556 1323.86,-70.5796 1316.76,-62.7129 1313.41,-68.8556"/>
<text text-anchor="middle" x="1287.06" y="-63.5982" font-family="Helvetica,sans-Serif" font-size="14.00">ε:&lt;N&gt;</text>
</g>
</g>
</svg>
