<?xml version="1.0" encoding="UTF-8" standalone="no"?>
<!DOCTYPE svg PUBLIC "-//W3C//DTD SVG 1.1//EN"
 "http://www.w3.org/Graphics/SVG/1.1/DTD/svg11.dtd">
<!-- Generated by graphviz version 2.38.0 (20140413.2041)
 -->
<!-- Title: FSM Pages: 1 -->
<svg width="360pt" height="40pt"
 viewBox="0.00 0.00 360.00 40.05" xmlns="http://www.w3.org/2000/svg" xmlns:xlink="http://www.w3.org/1999/xlink">
<g id="graph0" class="graph" transform="scale(0.262093 0.262093) rotate(0) translate(4 148.798)">
<title>FSM</title>
<polygon fill="white" stroke="none" points="-4,4 -4,-148.798 1369.56,-148.798 1369.56,4 -4,4"/>
<!-- 0 -->
<g id="node1" class="node"><title>0</title>
<ellipse fill="none" stroke="black" stroke-width="2" cx="18" cy="-74.7982" rx="18" ry="18"/>
<text text-anchor="middle" x="18" y="-71.0982" font-family="Helvetica,sans-Serif" font-size="14.00">0</text>
</g>
<!-- 13 -->
<g id="node2" class="node"><title>13</title>
<ellipse fill="none" stroke="black" cx="105.798" cy="-103.798" rx="20.5982" ry="20.5982"/>
<text text-anchor="middle" x="105.798" y="-100.098" font-family="Helvetica,sans-Serif" font-size="14.00">13</text>
</g>
<!-- 0&#45;&gt;13 -->
<g id="edge1" class="edge"><title>0&#45;&gt;13</title>
<path fill="none" stroke="black" d="M35.5427,-80.3896C47.0287,-84.2719 62.6303,-89.5453 76.1177,-94.1041"/>
<polygon fill="black" stroke="black" points="75.3221,-97.5296 85.9163,-97.416 77.5636,-90.8982 75.3221,-97.5296"/>
<text text-anchor="middle" x="60.5" y="-96.5982" font-family="Helvetica,sans-Serif" font-size="14.00">u:u</text>
</g>
<!-- 15 -->
<g id="node3" class="node"><title>15</title>
<ellipse fill="none" stroke="black" cx="306.991" cy="-74.7982" rx="20.5982" ry="20.5982"/>
<text text-anchor="middle" x="306.991" y="-71.0982" font-family="Helvetica,sans-Serif" font-size="14.00">15</text>
</g>
<!-- 0&#45;&gt;15 -->
<g id="edge2" class="edge"><title>0&#45;&gt;15</title>
<path fill="none" stroke="black" d="M36.0928,-74.4682C49.4169,-74.2281 68.384,-73.924 85,-73.7982 144.639,-73.3464 159.552,-73.4546 219.193,-73.7982 237.983,-73.9064 259.06,-74.1464 275.739,-74.3642"/>
<polygon fill="black" stroke="black" points="275.95,-77.8672 285.996,-74.5025 276.044,-70.8679 275.95,-77.8672"/>
<text text-anchor="middle" x="152.096" y="-77.5982" font-family="Helvetica,sans-Serif" font-size="14.00">ε:ε</text>
</g>
<!-- 14 -->
<g id="node16" class="node"><title>14</title>
<ellipse fill="none" stroke="black" cx="198.394" cy="-103.798" rx="20.5982" ry="20.5982"/>
<text text-anchor="middle" x="198.394" y="-100.098" font-family="Helvetica,sans-Serif" font-size="14.00">14</text>
</g>
<!-- 13&#45;&gt;14 -->
<g id="edge15" class="edge"><title>13&#45;&gt;14</title>
<path fill="none" stroke="black" d="M125.735,-110.278C130.824,-111.732 136.368,-113.062 141.596,-113.798 150.838,-115.1 153.354,-115.1 162.596,-113.798 164.557,-113.522 166.562,-113.162 168.571,-112.744"/>
<polygon fill="black" stroke="black" points="169.603,-116.094 178.458,-110.278 167.908,-109.302 169.603,-116.094"/>
<text text-anchor="middle" x="152.096" y="-118.598" font-family="Helvetica,sans-Serif" font-size="14.00">n:n</text>
</g>
<!-- 13&#45;&gt;14 -->
<g id="edge16" class="edge"><title>13&#45;&gt;14</title>
<path fill="none" stroke="black" d="M125.773,-97.9651C130.862,-96.6561 136.397,-95.4597 141.596,-94.7982 150.855,-93.6202 153.338,-93.6202 162.596,-94.7982 164.546,-95.0462 166.543,-95.3695 168.546,-95.7458"/>
<polygon fill="black" stroke="black" points="167.895,-99.1867 178.419,-97.9651 169.43,-92.3571 167.895,-99.1867"/>
<text text-anchor="middle" x="152.096" y="-99.5982" font-family="Helvetica,sans-Serif" font-size="14.00">r:r</text>
</g>
<!-- 1 -->
<g id="node4" class="node"><title>1</title>
<ellipse fill="none" stroke="black" cx="402.789" cy="-105.798" rx="18" ry="18"/>
<text text-anchor="middle" x="402.789" y="-102.098" font-family="Helvetica,sans-Serif" font-size="14.00">1</text>
</g>
<!-- 15&#45;&gt;1 -->
<g id="edge3" class="edge"><title>15&#45;&gt;1</title>
<path fill="none" stroke="black" d="M326.972,-81.0715C341.024,-85.7156 360.333,-92.0973 375.816,-97.2141"/>
<polygon fill="black" stroke="black" points="374.75,-100.548 385.343,-100.363 376.947,-93.9016 374.75,-100.548"/>
<text text-anchor="middle" x="356.289" y="-99.5982" font-family="Helvetica,sans-Serif" font-size="14.00">G:G</text>
</g>
<!-- 8 -->
<g id="node5" class="node"><title>8</title>
<ellipse fill="none" stroke="black" cx="402.789" cy="-51.7982" rx="18" ry="18"/>
<text text-anchor="middle" x="402.789" y="-48.0982" font-family="Helvetica,sans-Serif" font-size="14.00">8</text>
</g>
<!-- 15&#45;&gt;8 -->
<g id="edge4" class="edge"><title>15&#45;&gt;8</title>
<path fill="none" stroke="black" d="M327.077,-69.0792C332.165,-67.6189 337.671,-66.096 342.789,-64.7982 353.278,-62.1384 364.894,-59.5111 375.026,-57.3221"/>
<polygon fill="black" stroke="black" points="375.883,-60.7182 384.938,-55.2167 374.429,-53.871 375.883,-60.7182"/>
<text text-anchor="middle" x="356.289" y="-68.5982" font-family="Helvetica,sans-Serif" font-size="14.00">s:s</text>
</g>
<!-- 2 -->
<g id="node6" class="node"><title>2</title>
<ellipse fill="none" stroke="black" cx="487.789" cy="-106.798" rx="18" ry="18"/>
<text text-anchor="middle" x="487.789" y="-103.098" font-family="Helvetica,sans-Serif" font-size="14.00">2</text>
</g>
<!-- 1&#45;&gt;2 -->
<g id="edge5" class="edge"><title>1&#45;&gt;2</title>
<path fill="none" stroke="black" d="M420.987,-106.005C432.115,-106.139 446.844,-106.317 459.545,-106.47"/>
<polygon fill="black" stroke="black" points="459.572,-109.97 469.613,-106.591 459.656,-102.971 459.572,-109.97"/>
<text text-anchor="middle" x="445.289" y="-110.598" font-family="Helvetica,sans-Serif" font-size="14.00">e:e</text>
</g>
<!-- 9 -->
<g id="node12" class="node"><title>9</title>
<ellipse fill="none" stroke="black" cx="487.789" cy="-51.7982" rx="18" ry="18"/>
<text text-anchor="middle" x="487.789" y="-48.0982" font-family="Helvetica,sans-Serif" font-size="14.00">9</text>
</g>
<!-- 8&#45;&gt;9 -->
<g id="edge10" class="edge"><title>8&#45;&gt;9</title>
<path fill="none" stroke="black" d="M420.987,-51.7982C432.115,-51.7982 446.844,-51.7982 459.545,-51.7982"/>
<polygon fill="black" stroke="black" points="459.613,-55.2983 469.613,-51.7982 459.613,-48.2983 459.613,-55.2983"/>
<text text-anchor="middle" x="445.289" y="-55.5982" font-family="Helvetica,sans-Serif" font-size="14.00">c:c</text>
</g>
<!-- 3 -->
<g id="node7" class="node"><title>3</title>
<ellipse fill="none" stroke="black" cx="575.587" cy="-107.798" rx="18" ry="18"/>
<text text-anchor="middle" x="575.587" y="-104.098" font-family="Helvetica,sans-Serif" font-size="14.00">3</text>
</g>
<!-- 2&#45;&gt;3 -->
<g id="edge6" class="edge"><title>2&#45;&gt;3</title>
<path fill="none" stroke="black" d="M506.151,-107.001C517.974,-107.138 533.866,-107.324 547.359,-107.481"/>
<polygon fill="black" stroke="black" points="547.503,-110.983 557.543,-107.6 547.585,-103.983 547.503,-110.983"/>
<text text-anchor="middle" x="530.289" y="-111.598" font-family="Helvetica,sans-Serif" font-size="14.00">i:i</text>
</g>
<!-- 4 -->
<g id="node8" class="node"><title>4</title>
<ellipse fill="none" stroke="black" cx="666.183" cy="-107.798" rx="18" ry="18"/>
<text text-anchor="middle" x="666.183" y="-104.098" font-family="Helvetica,sans-Serif" font-size="14.00">4</text>
</g>
<!-- 3&#45;&gt;4 -->
<g id="edge7" class="edge"><title>3&#45;&gt;4</title>
<path fill="none" stroke="black" d="M593.669,-107.798C606.171,-107.798 623.394,-107.798 637.806,-107.798"/>
<polygon fill="black" stroke="black" points="638.154,-111.298 648.154,-107.798 638.154,-104.298 638.154,-111.298"/>
<text text-anchor="middle" x="620.885" y="-111.598" font-family="Helvetica,sans-Serif" font-size="14.00">s:s</text>
</g>
<!-- 5 -->
<g id="node9" class="node"><title>5</title>
<ellipse fill="none" stroke="black" cx="756.78" cy="-107.798" rx="18" ry="18"/>
<text text-anchor="middle" x="756.78" y="-104.098" font-family="Helvetica,sans-Serif" font-size="14.00">5</text>
</g>
<!-- 4&#45;&gt;5 -->
<g id="edge8" class="edge"><title>4&#45;&gt;5</title>
<path fill="none" stroke="black" d="M684.266,-107.798C696.767,-107.798 713.991,-107.798 728.402,-107.798"/>
<polygon fill="black" stroke="black" points="728.75,-111.298 738.75,-107.798 728.75,-104.298 728.75,-111.298"/>
<text text-anchor="middle" x="711.482" y="-111.598" font-family="Helvetica,sans-Serif" font-size="14.00">t:t</text>
</g>
<!-- 16 -->
<g id="node10" class="node"><title>16</title>
<ellipse fill="none" stroke="black" cx="867.376" cy="-80.7982" rx="20.5982" ry="20.5982"/>
<text text-anchor="middle" x="867.376" y="-77.0982" font-family="Helvetica,sans-Serif" font-size="14.00">16</text>
</g>
<!-- 5&#45;&gt;16 -->
<g id="edge9" class="edge"><title>5&#45;&gt;16</title>
<path fill="none" stroke="black" d="M774.748,-103.579C791.41,-99.4368 817.162,-93.0342 837.127,-88.0703"/>
<polygon fill="black" stroke="black" points="838.101,-91.4347 846.961,-85.6252 836.412,-84.6415 838.101,-91.4347"/>
<text text-anchor="middle" x="812.078" y="-103.598" font-family="Helvetica,sans-Serif" font-size="14.00">ε:&lt;N&gt;</text>
</g>
<!-- 7 -->
<g id="node11" class="node"><title>7</title>
<ellipse fill="none" stroke="black" cx="1343.56" cy="-80.7982" rx="18" ry="18"/>
<ellipse fill="none" stroke="black" cx="1343.56" cy="-80.7982" rx="22" ry="22"/>
<text text-anchor="middle" x="1343.56" y="-77.0982" font-family="Helvetica,sans-Serif" font-size="14.00">7</text>
</g>
<!-- 16&#45;&gt;7 -->
<g id="edge18" class="edge"><title>16&#45;&gt;7</title>
<path fill="none" stroke="black" d="M883.008,-94.971C899.549,-109.443 927.97,-129.798 956.972,-129.798 956.972,-129.798 956.972,-129.798 1232.76,-129.798 1263.63,-129.798 1295.47,-113.449 1316.86,-99.6377"/>
<polygon fill="black" stroke="black" points="1319.01,-102.412 1325.36,-93.9293 1315.11,-96.6019 1319.01,-102.412"/>
<text text-anchor="middle" x="1094.87" y="-133.598" font-family="Helvetica,sans-Serif" font-size="14.00">ε:ε</text>
</g>
<!-- 17 -->
<g id="node17" class="node"><title>17</title>
<ellipse fill="none" stroke="black" cx="957.972" cy="-80.7982" rx="20.5982" ry="20.5982"/>
<text text-anchor="middle" x="957.972" y="-77.0982" font-family="Helvetica,sans-Serif" font-size="14.00">17</text>
</g>
<!-- 16&#45;&gt;17 -->
<g id="edge19" class="edge"><title>16&#45;&gt;17</title>
<path fill="none" stroke="black" d="M888.48,-80.7982C899.807,-80.7982 914.18,-80.7982 926.831,-80.7982"/>
<polygon fill="black" stroke="black" points="926.948,-84.2983 936.948,-80.7982 926.948,-77.2983 926.948,-84.2983"/>
<text text-anchor="middle" x="912.674" y="-84.5982" font-family="Helvetica,sans-Serif" font-size="14.00">l:l</text>
</g>
<!-- 21 -->
<g id="node18" class="node"><title>21</title>
<ellipse fill="none" stroke="black" cx="957.972" cy="-20.7982" rx="20.5982" ry="20.5982"/>
<text text-anchor="middle" x="957.972" y="-17.0982" font-family="Helvetica,sans-Serif" font-size="14.00">21</text>
</g>
<!-- 16&#45;&gt;21 -->
<g id="edge20" class="edge"><title>16&#45;&gt;21</title>
<path fill="none" stroke="black" d="M885.04,-69.5126C898.281,-60.5455 917.007,-47.8642 932.033,-37.6881"/>
<polygon fill="black" stroke="black" points="934.065,-40.5385 940.383,-32.0331 930.14,-34.7426 934.065,-40.5385"/>
<text text-anchor="middle" x="912.674" y="-60.5982" font-family="Helvetica,sans-Serif" font-size="14.00">h:h</text>
</g>
<!-- 10 -->
<g id="node13" class="node"><title>10</title>
<ellipse fill="none" stroke="black" cx="575.587" cy="-50.7982" rx="20.5982" ry="20.5982"/>
<text text-anchor="middle" x="575.587" y="-47.0982" font-family="Helvetica,sans-Serif" font-size="14.00">10</text>
</g>
<!-- 9&#45;&gt;10 -->
<g id="edge11" class="edge"><title>9&#45;&gt;10</title>
<path fill="none" stroke="black" d="M506.151,-51.5958C517.092,-51.4683 531.517,-51.3001 544.302,-51.1511"/>
<polygon fill="black" stroke="black" points="544.584,-54.6482 554.542,-51.0318 544.502,-47.6487 544.584,-54.6482"/>
<text text-anchor="middle" x="530.289" y="-55.5982" font-family="Helvetica,sans-Serif" font-size="14.00">h:h</text>
</g>
<!-- 11 -->
<g id="node14" class="node"><title>11</title>
<ellipse fill="none" stroke="black" cx="666.183" cy="-50.7982" rx="20.5982" ry="20.5982"/>
<text text-anchor="middle" x="666.183" y="-47.0982" font-family="Helvetica,sans-Serif" font-size="14.00">11</text>
</g>
<!-- 10&#45;&gt;11 -->
<g id="edge12" class="edge"><title>10&#45;&gt;11</title>
<path fill="none" stroke="black" d="M596.691,-50.7982C608.019,-50.7982 622.391,-50.7982 635.042,-50.7982"/>
<polygon fill="black" stroke="black" points="635.159,-54.2983 645.159,-50.7982 635.159,-47.2983 635.159,-54.2983"/>
<text text-anchor="middle" x="620.885" y="-54.5982" font-family="Helvetica,sans-Serif" font-size="14.00">ö:ö</text>
</g>
<!-- 12 -->
<g id="node15" class="node"><title>12</title>
<ellipse fill="none" stroke="black" cx="756.78" cy="-50.7982" rx="20.5982" ry="20.5982"/>
<text text-anchor="middle" x="756.78" y="-47.0982" font-family="Helvetica,sans-Serif" font-size="14.00">12</text>
</g>
<!-- 11&#45;&gt;12 -->
<g id="edge13" class="edge"><title>11&#45;&gt;12</title>
<path fill="none" stroke="black" d="M687.287,-50.7982C698.615,-50.7982 712.987,-50.7982 725.638,-50.7982"/>
<polygon fill="black" stroke="black" points="725.755,-54.2983 735.755,-50.7982 725.755,-47.2983 725.755,-54.2983"/>
<text text-anchor="middle" x="711.482" y="-54.5982" font-family="Helvetica,sans-Serif" font-size="14.00">n:n</text>
</g>
<!-- 12&#45;&gt;16 -->
<g id="edge14" class="edge"><title>12&#45;&gt;16</title>
<path fill="none" stroke="black" d="M777.224,-55.9815C792.118,-59.9726 813.167,-65.6583 831.578,-70.7982 833.485,-71.3306 835.45,-71.8834 837.429,-72.4435"/>
<polygon fill="black" stroke="black" points="836.67,-75.8665 847.246,-75.2443 838.59,-69.1351 836.67,-75.8665"/>
<text text-anchor="middle" x="812.078" y="-75.5982" font-family="Helvetica,sans-Serif" font-size="14.00">ε:&lt;A&gt;</text>
</g>
<!-- 14&#45;&gt;15 -->
<g id="edge17" class="edge"><title>14&#45;&gt;15</title>
<path fill="none" stroke="black" d="M218.946,-98.4791C235.174,-94.0642 258.493,-87.7201 276.911,-82.7094"/>
<polygon fill="black" stroke="black" points="277.833,-86.0859 286.563,-80.0835 275.995,-79.3314 277.833,-86.0859"/>
<text text-anchor="middle" x="252.693" y="-97.5982" font-family="Helvetica,sans-Serif" font-size="14.00">ε:&lt;p&gt;</text>
</g>
<!-- 18 -->
<g id="node19" class="node"><title>18</title>
<ellipse fill="none" stroke="black" cx="1048.57" cy="-80.7982" rx="20.5982" ry="20.5982"/>
<text text-anchor="middle" x="1048.57" y="-77.0982" font-family="Helvetica,sans-Serif" font-size="14.00">18</text>
</g>
<!-- 17&#45;&gt;18 -->
<g id="edge21" class="edge"><title>17&#45;&gt;18</title>
<path fill="none" stroke="black" d="M979.076,-80.7982C990.404,-80.7982 1004.78,-80.7982 1017.43,-80.7982"/>
<polygon fill="black" stroke="black" points="1017.54,-84.2983 1027.54,-80.7982 1017.54,-77.2983 1017.54,-84.2983"/>
<text text-anchor="middle" x="1003.27" y="-84.5982" font-family="Helvetica,sans-Serif" font-size="14.00">i:i</text>
</g>
<!-- 22 -->
<g id="node22" class="node"><title>22</title>
<ellipse fill="none" stroke="black" cx="1048.57" cy="-20.7982" rx="20.5982" ry="20.5982"/>
<text text-anchor="middle" x="1048.57" y="-17.0982" font-family="Helvetica,sans-Serif" font-size="14.00">22</text>
</g>
<!-- 21&#45;&gt;22 -->
<g id="edge25" class="edge"><title>21&#45;&gt;22</title>
<path fill="none" stroke="black" d="M979.076,-20.7982C990.404,-20.7982 1004.78,-20.7982 1017.43,-20.7982"/>
<polygon fill="black" stroke="black" points="1017.54,-24.2983 1027.54,-20.7982 1017.54,-17.2983 1017.54,-24.2983"/>
<text text-anchor="middle" x="1003.27" y="-24.5982" font-family="Helvetica,sans-Serif" font-size="14.00">e:e</text>
</g>
<!-- 19 -->
<g id="node20" class="node"><title>19</title>
<ellipse fill="none" stroke="black" cx="1141.16" cy="-80.7982" rx="20.5982" ry="20.5982"/>
<text text-anchor="middle" x="1141.16" y="-77.0982" font-family="Helvetica,sans-Serif" font-size="14.00">19</text>
</g>
<!-- 18&#45;&gt;19 -->
<g id="edge22" class="edge"><title>18&#45;&gt;19</title>
<path fill="none" stroke="black" d="M1069.67,-80.7982C1081.52,-80.7982 1096.74,-80.7982 1110,-80.7982"/>
<polygon fill="black" stroke="black" points="1110.11,-84.2983 1120.11,-80.7982 1110.11,-77.2983 1110.11,-84.2983"/>
<text text-anchor="middle" x="1094.87" y="-84.5982" font-family="Helvetica,sans-Serif" font-size="14.00">c:c</text>
</g>
<!-- 20 -->
<g id="node21" class="node"><title>20</title>
<ellipse fill="none" stroke="black" cx="1231.76" cy="-80.7982" rx="20.5982" ry="20.5982"/>
<text text-anchor="middle" x="1231.76" y="-77.0982" font-family="Helvetica,sans-Serif" font-size="14.00">20</text>
</g>
<!-- 19&#45;&gt;20 -->
<g id="edge23" class="edge"><title>19&#45;&gt;20</title>
<path fill="none" stroke="black" d="M1162.27,-80.7982C1173.6,-80.7982 1187.97,-80.7982 1200.62,-80.7982"/>
<polygon fill="black" stroke="black" points="1200.74,-84.2983 1210.74,-80.7982 1200.74,-77.2983 1200.74,-84.2983"/>
<text text-anchor="middle" x="1186.46" y="-84.5982" font-family="Helvetica,sans-Serif" font-size="14.00">h:h</text>
</g>
<!-- 20&#45;&gt;7 -->
<g id="edge24" class="edge"><title>20&#45;&gt;7</title>
<path fill="none" stroke="black" d="M1252.64,-80.7982C1268.94,-80.7982 1292.3,-80.7982 1311.13,-80.7982"/>
<polygon fill="black" stroke="black" points="1311.33,-84.2983 1321.33,-80.7982 1311.33,-77.2983 1311.33,-84.2983"/>
<text text-anchor="middle" x="1287.06" y="-84.5982" font-family="Helvetica,sans-Serif" font-size="14.00">ε:&lt;A&gt;</text>
</g>
<!-- 24 -->
<g id="node23" class="node"><title>24</title>
<ellipse fill="none" stroke="black" cx="1141.16" cy="-20.7982" rx="20.5982" ry="20.5982"/>
<text text-anchor="middle" x="1141.16" y="-17.0982" font-family="Helvetica,sans-Serif" font-size="14.00">24</text>
</g>
<!-- 22&#45;&gt;24 -->
<g id="edge26" class="edge"><title>22&#45;&gt;24</title>
<path fill="none" stroke="black" d="M1069.67,-20.7982C1081.52,-20.7982 1096.74,-20.7982 1110,-20.7982"/>
<polygon fill="black" stroke="black" points="1110.11,-24.2983 1120.11,-20.7982 1110.11,-17.2983 1110.11,-24.2983"/>
<text text-anchor="middle" x="1094.87" y="-24.5982" font-family="Helvetica,sans-Serif" font-size="14.00">i:i</text>
</g>
<!-- 25 -->
<g id="node24" class="node"><title>25</title>
<ellipse fill="none" stroke="black" cx="1231.76" cy="-20.7982" rx="20.5982" ry="20.5982"/>
<text text-anchor="middle" x="1231.76" y="-17.0982" font-family="Helvetica,sans-Serif" font-size="14.00">25</text>
</g>
<!-- 24&#45;&gt;25 -->
<g id="edge27" class="edge"><title>24&#45;&gt;25</title>
<path fill="none" stroke="black" d="M1162.27,-20.7982C1173.6,-20.7982 1187.97,-20.7982 1200.62,-20.7982"/>
<polygon fill="black" stroke="black" points="1200.74,-24.2983 1210.74,-20.7982 1200.74,-17.2983 1200.74,-24.2983"/>
<text text-anchor="middle" x="1186.46" y="-24.5982" font-family="Helvetica,sans-Serif" font-size="14.00">t:t</text>
</g>
<!-- 25&#45;&gt;7 -->
<g id="edge28" class="edge"><title>25&#45;&gt;7</title>
<path fill="none" stroke="black" d="M1250.4,-30.4382C1267.86,-39.9754 1294.82,-54.7106 1315.08,-65.7823"/>
<polygon fill="black" stroke="black" points="1313.41,-68.8556 1323.86,-70.5796 1316.76,-62.7129 1313.41,-68.8556"/>
<text text-anchor="middle" x="1287.06" y="-63.5982" font-family="Helvetica,sans-Serif" font-size="14.00">ε:&lt;N&gt;</text>
</g>
</g>
</svg>
