<?xml version="1.0" encoding="UTF-8" standalone="no"?>
<!DOCTYPE svg PUBLIC "-//W3C//DTD SVG 1.1//EN"
 "http://www.w3.org/Graphics/SVG/1.1/DTD/svg11.dtd">
<!-- Generated by graphviz version 2.38.0 (20140413.2041)
 -->
<!-- Title: FSM Pages: 1 -->
<svg width="360pt" height="43pt"
 viewBox="0.00 0.00 360.00 42.79" xmlns="http://www.w3.org/2000/svg" xmlns:xlink="http://www.w3.org/1999/xlink">
<g id="graph0" class="graph" transform="scale(0.400633 0.400633) rotate(0) translate(4 102.798)">
<title>FSM</title>
<polygon fill="white" stroke="none" points="-4,4 -4,-102.798 894.578,-102.798 894.578,4 -4,4"/>
<!-- 0 -->
<g id="node1" class="node"><title>0</title>
<ellipse fill="none" stroke="black" stroke-width="2" cx="18" cy="-44.7982" rx="18" ry="18"/>
<text text-anchor="middle" x="18" y="-41.0982" font-family="Helvetica,sans-Serif" font-size="14.00">0</text>
</g>
<!-- 13 -->
<g id="node2" class="node"><title>13</title>
<ellipse fill="none" stroke="black" cx="105.798" cy="-73.7982" rx="20.5982" ry="20.5982"/>
<text text-anchor="middle" x="105.798" y="-70.0982" font-family="Helvetica,sans-Serif" font-size="14.00">13</text>
</g>
<!-- 0&#45;&gt;13 -->
<g id="edge1" class="edge"><title>0&#45;&gt;13</title>
<path fill="none" stroke="black" d="M35.5427,-50.3896C47.0287,-54.2719 62.6303,-59.5453 76.1177,-64.1041"/>
<polygon fill="black" stroke="black" points="75.3221,-67.5296 85.9163,-67.416 77.5636,-60.8982 75.3221,-67.5296"/>
<text text-anchor="middle" x="60.5" y="-66.5982" font-family="Helvetica,sans-Serif" font-size="14.00">u:u</text>
</g>
<!-- 15 -->
<g id="node3" class="node"><title>15</title>
<ellipse fill="none" stroke="black" cx="306.991" cy="-44.7982" rx="20.5982" ry="20.5982"/>
<text text-anchor="middle" x="306.991" y="-41.0982" font-family="Helvetica,sans-Serif" font-size="14.00">15</text>
</g>
<!-- 0&#45;&gt;15 -->
<g id="edge2" class="edge"><title>0&#45;&gt;15</title>
<path fill="none" stroke="black" d="M36.0928,-44.4682C49.4169,-44.2281 68.384,-43.924 85,-43.7982 144.639,-43.3464 159.552,-43.4546 219.193,-43.7982 237.983,-43.9064 259.06,-44.1464 275.739,-44.3642"/>
<polygon fill="black" stroke="black" points="275.95,-47.8672 285.996,-44.5025 276.044,-40.8679 275.95,-47.8672"/>
<text text-anchor="middle" x="152.096" y="-47.5982" font-family="Helvetica,sans-Serif" font-size="14.00">ε:ε</text>
</g>
<!-- 14 -->
<g id="node15" class="node"><title>14</title>
<ellipse fill="none" stroke="black" cx="198.394" cy="-73.7982" rx="20.5982" ry="20.5982"/>
<text text-anchor="middle" x="198.394" y="-70.0982" font-family="Helvetica,sans-Serif" font-size="14.00">14</text>
</g>
<!-- 13&#45;&gt;14 -->
<g id="edge15" class="edge"><title>13&#45;&gt;14</title>
<path fill="none" stroke="black" d="M125.735,-80.2775C130.824,-81.732 136.368,-83.0618 141.596,-83.7982 150.838,-85.0998 153.354,-85.0998 162.596,-83.7982 164.557,-83.522 166.562,-83.1624 168.571,-82.7441"/>
<polygon fill="black" stroke="black" points="169.603,-86.0941 178.458,-80.2775 167.908,-79.3022 169.603,-86.0941"/>
<text text-anchor="middle" x="152.096" y="-87.5982" font-family="Helvetica,sans-Serif" font-size="14.00">n:n</text>
</g>
<!-- 13&#45;&gt;14 -->
<g id="edge16" class="edge"><title>13&#45;&gt;14</title>
<path fill="none" stroke="black" d="M125.735,-67.3188C130.824,-65.8643 136.368,-64.5345 141.596,-63.7982 150.838,-62.4965 153.354,-62.4965 162.596,-63.7982 164.557,-64.0743 166.562,-64.4339 168.571,-64.8522"/>
<polygon fill="black" stroke="black" points="167.908,-68.2941 178.458,-67.3188 169.603,-61.5023 167.908,-68.2941"/>
<text text-anchor="middle" x="152.096" y="-68.5982" font-family="Helvetica,sans-Serif" font-size="14.00">r:r</text>
</g>
<!-- 1 -->
<g id="node4" class="node"><title>1</title>
<ellipse fill="none" stroke="black" cx="402.789" cy="-75.7982" rx="18" ry="18"/>
<text text-anchor="middle" x="402.789" y="-72.0982" font-family="Helvetica,sans-Serif" font-size="14.00">1</text>
</g>
<!-- 15&#45;&gt;1 -->
<g id="edge3" class="edge"><title>15&#45;&gt;1</title>
<path fill="none" stroke="black" d="M326.972,-51.0715C341.024,-55.7156 360.333,-62.0973 375.816,-67.2141"/>
<polygon fill="black" stroke="black" points="374.75,-70.548 385.343,-70.3629 376.947,-63.9016 374.75,-70.548"/>
<text text-anchor="middle" x="356.289" y="-69.5982" font-family="Helvetica,sans-Serif" font-size="14.00">G:G</text>
</g>
<!-- 8 -->
<g id="node5" class="node"><title>8</title>
<ellipse fill="none" stroke="black" cx="402.789" cy="-21.7982" rx="18" ry="18"/>
<text text-anchor="middle" x="402.789" y="-18.0982" font-family="Helvetica,sans-Serif" font-size="14.00">8</text>
</g>
<!-- 15&#45;&gt;8 -->
<g id="edge4" class="edge"><title>15&#45;&gt;8</title>
<path fill="none" stroke="black" d="M327.077,-39.0792C332.165,-37.6189 337.671,-36.096 342.789,-34.7982 353.278,-32.1384 364.894,-29.5111 375.026,-27.3221"/>
<polygon fill="black" stroke="black" points="375.883,-30.7182 384.938,-25.2167 374.429,-23.871 375.883,-30.7182"/>
<text text-anchor="middle" x="356.289" y="-38.5982" font-family="Helvetica,sans-Serif" font-size="14.00">s:s</text>
</g>
<!-- 2 -->
<g id="node6" class="node"><title>2</title>
<ellipse fill="none" stroke="black" cx="487.789" cy="-76.7982" rx="18" ry="18"/>
<text text-anchor="middle" x="487.789" y="-73.0982" font-family="Helvetica,sans-Serif" font-size="14.00">2</text>
</g>
<!-- 1&#45;&gt;2 -->
<g id="edge5" class="edge"><title>1&#45;&gt;2</title>
<path fill="none" stroke="black" d="M420.987,-76.0054C432.115,-76.1394 446.844,-76.3169 459.545,-76.4699"/>
<polygon fill="black" stroke="black" points="459.572,-79.9704 469.613,-76.5912 459.656,-72.9709 459.572,-79.9704"/>
<text text-anchor="middle" x="445.289" y="-80.5982" font-family="Helvetica,sans-Serif" font-size="14.00">e:e</text>
</g>
<!-- 9 -->
<g id="node11" class="node"><title>9</title>
<ellipse fill="none" stroke="black" cx="487.789" cy="-21.7982" rx="18" ry="18"/>
<text text-anchor="middle" x="487.789" y="-18.0982" font-family="Helvetica,sans-Serif" font-size="14.00">9</text>
</g>
<!-- 8&#45;&gt;9 -->
<g id="edge10" class="edge"><title>8&#45;&gt;9</title>
<path fill="none" stroke="black" d="M420.987,-21.7982C432.115,-21.7982 446.844,-21.7982 459.545,-21.7982"/>
<polygon fill="black" stroke="black" points="459.613,-25.2983 469.613,-21.7982 459.613,-18.2983 459.613,-25.2983"/>
<text text-anchor="middle" x="445.289" y="-25.5982" font-family="Helvetica,sans-Serif" font-size="14.00">c:c</text>
</g>
<!-- 3 -->
<g id="node7" class="node"><title>3</title>
<ellipse fill="none" stroke="black" cx="575.587" cy="-77.7982" rx="18" ry="18"/>
<text text-anchor="middle" x="575.587" y="-74.0982" font-family="Helvetica,sans-Serif" font-size="14.00">3</text>
</g>
<!-- 2&#45;&gt;3 -->
<g id="edge6" class="edge"><title>2&#45;&gt;3</title>
<path fill="none" stroke="black" d="M506.151,-77.0005C517.974,-77.1383 533.866,-77.3235 547.359,-77.4808"/>
<polygon fill="black" stroke="black" points="547.503,-80.9826 557.543,-77.5995 547.585,-73.9831 547.503,-80.9826"/>
<text text-anchor="middle" x="530.289" y="-81.5982" font-family="Helvetica,sans-Serif" font-size="14.00">i:i</text>
</g>
<!-- 4 -->
<g id="node8" class="node"><title>4</title>
<ellipse fill="none" stroke="black" cx="666.183" cy="-77.7982" rx="18" ry="18"/>
<text text-anchor="middle" x="666.183" y="-74.0982" font-family="Helvetica,sans-Serif" font-size="14.00">4</text>
</g>
<!-- 3&#45;&gt;4 -->
<g id="edge7" class="edge"><title>3&#45;&gt;4</title>
<path fill="none" stroke="black" d="M593.669,-77.7982C606.171,-77.7982 623.394,-77.7982 637.806,-77.7982"/>
<polygon fill="black" stroke="black" points="638.154,-81.2983 648.154,-77.7982 638.154,-74.2983 638.154,-81.2983"/>
<text text-anchor="middle" x="620.885" y="-81.5982" font-family="Helvetica,sans-Serif" font-size="14.00">s:s</text>
</g>
<!-- 5 -->
<g id="node9" class="node"><title>5</title>
<ellipse fill="none" stroke="black" cx="756.78" cy="-77.7982" rx="18" ry="18"/>
<text text-anchor="middle" x="756.78" y="-74.0982" font-family="Helvetica,sans-Serif" font-size="14.00">5</text>
</g>
<!-- 4&#45;&gt;5 -->
<g id="edge8" class="edge"><title>4&#45;&gt;5</title>
<path fill="none" stroke="black" d="M684.266,-77.7982C696.767,-77.7982 713.991,-77.7982 728.402,-77.7982"/>
<polygon fill="black" stroke="black" points="728.75,-81.2983 738.75,-77.7982 728.75,-74.2983 728.75,-81.2983"/>
<text text-anchor="middle" x="711.482" y="-81.5982" font-family="Helvetica,sans-Serif" font-size="14.00">t:t</text>
</g>
<!-- 7 -->
<g id="node10" class="node"><title>7</title>
<ellipse fill="none" stroke="black" cx="868.578" cy="-50.7982" rx="18" ry="18"/>
<ellipse fill="none" stroke="black" cx="868.578" cy="-50.7982" rx="22" ry="22"/>
<text text-anchor="middle" x="868.578" y="-47.0982" font-family="Helvetica,sans-Serif" font-size="14.00">7</text>
</g>
<!-- 5&#45;&gt;7 -->
<g id="edge9" class="edge"><title>5&#45;&gt;7</title>
<path fill="none" stroke="black" d="M774.456,-73.6974C791.084,-69.6085 816.999,-63.2358 837.273,-58.2502"/>
<polygon fill="black" stroke="black" points="838.119,-61.6466 846.994,-55.8598 836.448,-54.8491 838.119,-61.6466"/>
<text text-anchor="middle" x="812.078" y="-73.5982" font-family="Helvetica,sans-Serif" font-size="14.00">ε:&lt;N&gt;</text>
</g>
<!-- 10 -->
<g id="node12" class="node"><title>10</title>
<ellipse fill="none" stroke="black" cx="575.587" cy="-20.7982" rx="20.5982" ry="20.5982"/>
<text text-anchor="middle" x="575.587" y="-17.0982" font-family="Helvetica,sans-Serif" font-size="14.00">10</text>
</g>
<!-- 9&#45;&gt;10 -->
<g id="edge11" class="edge"><title>9&#45;&gt;10</title>
<path fill="none" stroke="black" d="M506.151,-21.5958C517.092,-21.4683 531.517,-21.3001 544.302,-21.1511"/>
<polygon fill="black" stroke="black" points="544.584,-24.6482 554.542,-21.0318 544.502,-17.6487 544.584,-24.6482"/>
<text text-anchor="middle" x="530.289" y="-25.5982" font-family="Helvetica,sans-Serif" font-size="14.00">h:h</text>
</g>
<!-- 11 -->
<g id="node13" class="node"><title>11</title>
<ellipse fill="none" stroke="black" cx="666.183" cy="-20.7982" rx="20.5982" ry="20.5982"/>
<text text-anchor="middle" x="666.183" y="-17.0982" font-family="Helvetica,sans-Serif" font-size="14.00">11</text>
</g>
<!-- 10&#45;&gt;11 -->
<g id="edge12" class="edge"><title>10&#45;&gt;11</title>
<path fill="none" stroke="black" d="M596.691,-20.7982C608.019,-20.7982 622.391,-20.7982 635.042,-20.7982"/>
<polygon fill="black" stroke="black" points="635.159,-24.2983 645.159,-20.7982 635.159,-17.2983 635.159,-24.2983"/>
<text text-anchor="middle" x="620.885" y="-24.5982" font-family="Helvetica,sans-Serif" font-size="14.00">ö:ö</text>
</g>
<!-- 12 -->
<g id="node14" class="node"><title>12</title>
<ellipse fill="none" stroke="black" cx="756.78" cy="-20.7982" rx="20.5982" ry="20.5982"/>
<text text-anchor="middle" x="756.78" y="-17.0982" font-family="Helvetica,sans-Serif" font-size="14.00">12</text>
</g>
<!-- 11&#45;&gt;12 -->
<g id="edge13" class="edge"><title>11&#45;&gt;12</title>
<path fill="none" stroke="black" d="M687.287,-20.7982C698.615,-20.7982 712.987,-20.7982 725.638,-20.7982"/>
<polygon fill="black" stroke="black" points="725.755,-24.2983 735.755,-20.7982 725.755,-17.2983 725.755,-24.2983"/>
<text text-anchor="middle" x="711.482" y="-24.5982" font-family="Helvetica,sans-Serif" font-size="14.00">n:n</text>
</g>
<!-- 12&#45;&gt;7 -->
<g id="edge14" class="edge"><title>12&#45;&gt;7</title>
<path fill="none" stroke="black" d="M777.157,-26.0925C793.856,-30.6552 818.24,-37.3176 837.479,-42.5743"/>
<polygon fill="black" stroke="black" points="836.71,-45.9925 847.279,-45.252 838.555,-39.24 836.71,-45.9925"/>
<text text-anchor="middle" x="812.078" y="-44.5982" font-family="Helvetica,sans-Serif" font-size="14.00">ε:&lt;A&gt;</text>
</g>
<!-- 14&#45;&gt;15 -->
<g id="edge17" class="edge"><title>14&#45;&gt;15</title>
<path fill="none" stroke="black" d="M218.946,-68.4791C235.174,-64.0642 258.493,-57.7201 276.911,-52.7094"/>
<polygon fill="black" stroke="black" points="277.833,-56.0859 286.563,-50.0835 275.995,-49.3314 277.833,-56.0859"/>
<text text-anchor="middle" x="252.693" y="-67.5982" font-family="Helvetica,sans-Serif" font-size="14.00">ε:&lt;p&gt;</text>
</g>
</g>
</svg>
