<?xml version="1.0" encoding="utf-8"?>
<!-- Generator: Adobe Illustrator 15.0.0, SVG Export Plug-In . SVG Version: 6.00 Build 0)  -->
<!DOCTYPE svg PUBLIC "-//W3C//DTD SVG 1.1//EN" "http://www.w3.org/Graphics/SVG/1.1/DTD/svg11.dtd">
<svg version="1.1" id="Ebene_1" xmlns="http://www.w3.org/2000/svg" xmlns:xlink="http://www.w3.org/1999/xlink" x="0px" y="0px"
	 width="765.35px" height="765.35px" viewBox="0 0 765.35 765.35" enable-background="new 0 0 765.35 765.35" xml:space="preserve">
<path fill="#FFFFFF" d="M765.349,708.656c0,31.311-25.383,56.693-56.693,56.693H56.693C25.382,765.35,0,739.967,0,708.656V56.693
	C0,25.382,25.382,0,56.693,0h651.962c31.311,0,56.693,25.382,56.693,56.693V708.656z"/>
<path fill="#E52421" d="M717.538,11.45c0,0-108.479,270.366,0,719.306c11.683,28.373-140.189-115.154-432.251,0
	C348.706,283.484,717.538,11.45,717.538,11.45z"/>
<path d="M405.482,107.578c-127.805,0-231.411,103.606-231.411,231.411s103.606,231.411,231.411,231.411
	c127.804,0,231.41-103.605,231.41-231.411S533.286,107.578,405.482,107.578z M405.555,543.583
	c-113.885,0-206.207-92.322-206.207-206.209c0-113.885,92.322-206.206,206.207-206.206s206.209,92.321,206.209,206.206
	C611.764,451.261,519.439,543.583,405.555,543.583z"/>
<line fill="#FFFFFF" stroke="#000000" stroke-width="3" stroke-miterlimit="10" x1="409.206" y1="122.97" x2="392.383" y2="331.926"/>
<line fill="none" stroke="#000000" stroke-width="3" stroke-miterlimit="10" x1="388.84" y1="318.646" x2="568.58" y2="194.688"/>
<line fill="none" stroke="#000000" stroke-width="3" stroke-miterlimit="10" x1="411.861" y1="346.094" x2="424.258" y2="122.97"/>
<line fill="none" stroke="#000000" stroke-width="3" stroke-miterlimit="10" x1="250.718" y1="179.636" x2="393.27" y2="339.895"/>
<line fill="none" stroke="#000000" stroke-width="3" stroke-miterlimit="10" x1="187.853" y1="331.926" x2="389.727" y2="328.384"/>
<line fill="none" stroke="#000000" stroke-width="3" stroke-miterlimit="10" x1="202.02" y1="405.414" x2="400.35" y2="329.27"/>
<line fill="none" stroke="#000000" stroke-width="3" stroke-miterlimit="10" x1="441.967" y1="554.163" x2="402.123" y2="330.156"/>
<line fill="none" stroke="#000000" stroke-width="3" stroke-miterlimit="10" x1="341.915" y1="539.997" x2="393.27" y2="339.895"/>
<line fill="none" stroke="#000000" stroke-width="3" stroke-miterlimit="10" x1="479.154" y1="539.997" x2="385.299" y2="343.435"/>
<line fill="none" stroke="#000000" stroke-width="3" stroke-miterlimit="10" x1="504.831" y1="154.844" x2="419.832" y2="336.354"/>
<line fill="none" stroke="#000000" stroke-width="3" stroke-miterlimit="10" x1="620.818" y1="296.511" x2="400.35" y2="331.926"/>
<line fill="none" stroke="#000000" stroke-width="3" stroke-miterlimit="10" x1="608.423" y1="407.186" x2="409.206" y2="331.039"/>
<line fill="none" stroke="#000000" stroke-width="3" stroke-miterlimit="10" x1="424.258" y1="345.206" x2="619.934" y2="392.135"/>
<line fill="none" stroke="#000000" stroke-width="3" stroke-miterlimit="10" x1="430.41" y1="355.33" x2="607.538" y2="276.145"/>
<line fill="none" stroke="#000000" stroke-width="3" stroke-miterlimit="10" x1="390.612" y1="345.206" x2="200.249" y2="305.364"/>
<line fill="none" stroke="#000000" stroke-width="3" stroke-miterlimit="10" x1="395.926" y1="340.779" x2="262.228" y2="497.498"/>
<line fill="none" stroke="#000000" stroke-width="3" stroke-miterlimit="10" x1="231.238" y1="466.509" x2="416.288" y2="354.061"/>
<line fill="none" stroke="#000000" stroke-width="3" stroke-miterlimit="10" x1="511.913" y1="522.289" x2="402.123" y2="343.435"/>
<line fill="none" stroke="#000000" stroke-width="3" stroke-miterlimit="10" x1="537.59" y1="505.467" x2="395.926" y2="353.174"/>
<polygon fill="#7186B2" points="58.46,522.743 19.994,407.616 378.214,354.263 "/>
<polygon fill="#314F88" points="514.241,82.469 606.215,176.513 411.292,324.403 "/>
<rect x="257.786" y="268.299" transform="matrix(0.4458 0.8952 -0.8952 0.4458 519.3355 -14.6925)" width="27.494" height="287.492"/>
<polygon fill="#2DAB98" points="517.324,636.262 430.422,666.347 402.82,353.695 "/>
<polygon points="429.49,625.901 402.062,627.781 383.681,360.24 411.111,358.357 "/>
<polygon fill="#E5CF2C" points="95.246,169.84 144.505,81.82 395.104,317.841 "/>
<rect x="256.044" y="127.371" transform="matrix(0.4569 -0.8895 0.8895 0.4569 -94.6048 387.2252)" width="27.495" height="287.425"/>
<rect x="494.443" y="293.121" transform="matrix(0.5921 -0.8058 0.8058 0.5921 -136.9883 583.7632)" width="27.496" height="268.175"/>
<rect x="362.821" y="57.177" transform="matrix(0.9876 -0.1572 0.1572 0.9876 -27.6705 61.7462)" width="27.493" height="297.297"/>
<rect x="500.807" y="118.074" transform="matrix(-0.6073 -0.7945 0.7945 -0.6073 618.5523 830.6332)" width="27.493" height="288.756"/>
</svg>
