<?xml version="1.0" encoding="utf-8"?>
<!-- Generator: Adobe Illustrator 15.0.0, SVG Export Plug-In . SVG Version: 6.00 Build 0)  -->
<!DOCTYPE svg PUBLIC "-//W3C//DTD SVG 1.1//EN" "http://www.w3.org/Graphics/SVG/1.1/DTD/svg11.dtd">
<svg version="1.1" id="Ebene_1" xmlns="http://www.w3.org/2000/svg" xmlns:xlink="http://www.w3.org/1999/xlink" x="0px" y="0px"
	 width="765.35px" height="765.35px" viewBox="0 0 765.35 765.35" enable-background="new 0 0 765.35 765.35" xml:space="preserve">
<path fill="#FFFFFF" d="M765.349,708.656c0,31.311-25.383,56.693-56.693,56.693H56.693C25.382,765.35,0,739.967,0,708.656V56.693
	C0,25.382,25.382,0,56.693,0h651.962c31.311,0,56.693,25.382,56.693,56.693V708.656z"/>
<path fill="#E52421" d="M717.538,11.45c0,0-108.479,270.366,0,719.306c11.683,28.373-140.189-115.154-432.251,0
	C348.706,283.484,717.538,11.45,717.538,11.45z"/>
<path d="M414.921,270.909c-102.076,0-184.826,82.75-184.826,184.827s82.75,184.826,184.826,184.826
	c102.077,0,184.826-82.749,184.826-184.826S516.998,270.909,414.921,270.909z M414.98,619.144
	c-90.96,0-164.697-73.737-164.697-164.698c0-90.959,73.737-164.695,164.697-164.695c90.959,0,164.696,73.736,164.696,164.695
	C579.677,545.406,505.939,619.144,414.98,619.144z"/>
<line fill="#FFFFFF" stroke="#000000" stroke-width="3" stroke-miterlimit="10" x1="417.896" y1="283.202" x2="404.459" y2="450.095"/>
<line fill="none" stroke="#000000" stroke-width="3" stroke-miterlimit="10" x1="401.63" y1="439.488" x2="545.188" y2="340.483"/>
<line fill="none" stroke="#000000" stroke-width="3" stroke-miterlimit="10" x1="420.017" y1="461.41" x2="429.918" y2="283.202"/>
<line fill="none" stroke="#000000" stroke-width="3" stroke-miterlimit="10" x1="291.312" y1="328.461" x2="405.167" y2="456.459"/>
<line fill="none" stroke="#000000" stroke-width="3" stroke-miterlimit="10" x1="241.103" y1="450.095" x2="402.338" y2="447.266"/>
<line fill="none" stroke="#000000" stroke-width="3" stroke-miterlimit="10" x1="252.417" y1="508.789" x2="410.823" y2="447.973"/>
<line fill="none" stroke="#000000" stroke-width="3" stroke-miterlimit="10" x1="444.062" y1="627.594" x2="412.238" y2="448.681"/>
<line fill="none" stroke="#000000" stroke-width="3" stroke-miterlimit="10" x1="364.15" y1="616.279" x2="405.167" y2="456.459"/>
<line fill="none" stroke="#000000" stroke-width="3" stroke-miterlimit="10" x1="473.763" y1="616.279" x2="398.801" y2="459.286"/>
<line fill="none" stroke="#000000" stroke-width="3" stroke-miterlimit="10" x1="494.271" y1="308.66" x2="426.382" y2="453.631"/>
<line fill="none" stroke="#000000" stroke-width="3" stroke-miterlimit="10" x1="586.909" y1="421.809" x2="410.823" y2="450.095"/>
<line fill="none" stroke="#000000" stroke-width="3" stroke-miterlimit="10" x1="577.01" y1="510.204" x2="417.896" y2="449.386"/>
<line fill="none" stroke="#000000" stroke-width="3" stroke-miterlimit="10" x1="429.918" y1="460.701" x2="586.203" y2="498.183"/>
<line fill="none" stroke="#000000" stroke-width="3" stroke-miterlimit="10" x1="434.831" y1="468.787" x2="576.303" y2="405.542"/>
<line fill="none" stroke="#000000" stroke-width="3" stroke-miterlimit="10" x1="403.045" y1="460.701" x2="251.003" y2="428.88"/>
<line fill="none" stroke="#000000" stroke-width="3" stroke-miterlimit="10" x1="407.289" y1="457.165" x2="300.505" y2="582.336"/>
<line fill="none" stroke="#000000" stroke-width="3" stroke-miterlimit="10" x1="275.754" y1="557.585" x2="423.553" y2="467.773"/>
<line fill="none" stroke="#000000" stroke-width="3" stroke-miterlimit="10" x1="499.928" y1="602.137" x2="412.238" y2="459.286"/>
<line fill="none" stroke="#000000" stroke-width="3" stroke-miterlimit="10" x1="520.436" y1="588.7" x2="407.289" y2="467.065"/>
<polygon fill="#7186B2" points="94.86,602.499 58.977,510.548 393.143,467.935 "/>
<polygon fill="#314F88" points="501.787,250.854 575.246,325.967 419.562,444.086 "/>
<rect x="296.957" y="399.276" transform="matrix(0.4458 0.8951 -0.8951 0.4458 630.8486 9.2715)" width="21.96" height="229.619"/>
<polygon fill="#2DAB98" points="504.25,693.166 434.842,717.194 412.796,467.481 "/>
<rect x="404.824" y="471.706" transform="matrix(0.9977 -0.0684 0.0684 0.9977 -38.6156 29.7961)" width="21.959" height="214.187"/>
<g>
	<path d="M39.059,71.776h129.122v42.157h-32.522v101.659H77.602l-3.614-97.804H39.059V74.668V71.776z"/>
	<path d="M199.001,69.609l-13.974-10.6l19.995-4.095l8.191-13.972l5.781,14.213l24.812,4.336l-16.141,12.768l1.688,15.417
		l-18.067-6.745l-15.899,6.745L199.001,69.609z M186.715,94.422h55.647v121.17h-50.587L186.715,94.422z"/>
	<path d="M260.662,75.872l61.187-3.854l21.441,65.523l16.141-65.523h61.189v143.574h-43.604l2.408-54.683h-6.021l-15.9,54.683H324.5
		l-14.695-54.683h-4.095v54.683h-45.048V75.872z"/>
	<path d="M491.908,75.632c0,0-3.373,20.235-3.373,41.193c0,21.199,3.373,42.398,18.067,42.398c14.452,0,17.827-19.754,17.827-40.23
		c0-19.511-3.375-39.507-3.854-43.12c0,0,0,0,2.167-0.24l48.422-3.613c0,0,5.538,24.33,5.538,52.997
		c0,40.71-11.32,90.577-67.45,90.577c-63.598,0-74.196-63.597-74.196-105.03c0-19.996,2.407-34.93,2.407-34.93H491.908z"/>
	<path d="M720.264,181.626c9.396,0,18.309-2.65,18.309-2.65v46.011l-21.922,1.205c-39.748,0-50.347-34.689-52.515-45.77
		c-3.614,0-7.469-0.242-11.566-0.724l1.449,36.858h-55.89l-4.578-142.131c0,0,18.551-7.466,68.176-7.466
		c49.384,0,69.139,15.657,69.139,55.165c0,24.571-8.434,43.121-28.667,52.516C705.568,179.94,713.036,181.626,720.264,181.626z
		 M656.667,151.032c7.949,0,25.293-2.89,25.293-24.812c0-20.716-11.32-26.017-21.198-26.017c-3.853,0-7.71,0.723-10.598,1.687
		l2.649,48.903C652.813,150.792,654.499,151.032,656.667,151.032z"/>
</g>
<polygon fill="#E5CF2C" points="167.137,320.637 206.481,250.336 406.633,438.845 "/>
<rect x="295.566" y="286.717" transform="matrix(0.4568 -0.8895 0.8895 0.4568 -190.6508 490.7625)" width="21.96" height="229.565"/>
<rect x="485.974" y="419.101" transform="matrix(0.5921 -0.8058 0.8058 0.5921 -221.338 615.0923)" width="21.96" height="214.19"/>
<rect x="380.849" y="230.654" transform="matrix(0.9876 -0.1572 0.1572 0.9876 -50.0416 65.925)" width="21.958" height="237.45"/>
<rect x="491.057" y="279.291" transform="matrix(-0.6073 -0.7945 0.7945 -0.6073 493.4434 1033.104)" width="21.958" height="230.628"/>
</svg>
