<?xml version="1.0" standalone="no"?>
<!DOCTYPE svg PUBLIC "-//W3C//DTD SVG 1.1//EN" "http://www.w3.org/Graphics/SVG/1.1/DTD/svg11.dtd" >
<svg xmlns="http://www.w3.org/2000/svg" xmlns:xlink="http://www.w3.org/1999/xlink" version="1.1">
<metadata>
Created by FontForge 20170731 at Mon Apr  8 16:58:17 2013
 By Aleksey,,,
Rodrigo Araya Salas/www.zootype.cl
</metadata>
<defs>
<font id="LAIKA" horiz-adv-x="651" >
  <font-face 
    font-family="LAIKA"
    font-weight="400"
    font-stretch="normal"
    units-per-em="1000"
    panose-1="0 0 0 0 0 0 0 0 0 0"
    ascent="750"
    descent="-250"
    x-height="590"
    cap-height="725"
    bbox="-66 -248 1576 806"
    underline-thickness="50"
    underline-position="-200"
    unicode-range="U+0020-FB06"
  />
<missing-glyph horiz-adv-x="298" 
 />
    <glyph glyph-name=".notdef" horiz-adv-x="298" 
 />
    <glyph glyph-name=".null" horiz-adv-x="0" 
 />
    <glyph glyph-name="nonmarkingreturn" horiz-adv-x="333" 
 />
    <glyph glyph-name="space" unicode=" " horiz-adv-x="298" 
 />
    <glyph glyph-name="exclam" unicode="!" horiz-adv-x="369" 
d="M50 596h269l-17 -415h-222zM88 45q0 42 29.5 72t72.5 30t73 -30t30 -72t-30 -72.5t-73 -30.5q-42 0 -72 30.5t-30 72.5z" />
    <glyph glyph-name="quotedbl" unicode="&#x22;" horiz-adv-x="378" 
d="M50 473v180h120v-180h-120zM208 473v180h120v-180h-120z" />
    <glyph glyph-name="numbersign" unicode="#" horiz-adv-x="798" 
d="M50 113v139h82l25 108h-107v136h139l45 147h190l-48 -147h109l45 147h190l-48 -147h76v-136h-110l-27 -108h83v-139h-117l-33 -121h-179l31 121h-115l-33 -121h-179l31 121h-50zM342 360l-27 -108h113l25 108h-111z" />
    <glyph glyph-name="dollar" unicode="$" horiz-adv-x="488" 
d="M426 519v-161h-6q-6 1 -16 2.5t-22.5 2.5t-27.5 1.5t-29 0.5q-84 0 -84 -28q0 -4 0.5 -6.5t3 -6t9 -5.5t16.5 -3q168 -4 168 -112q0 -65 -35 -95t-91 -41q2 -16 5 -39t5 -38l2 -15h-30q-118 0 -121 -2l1 14q1 13 3 35.5t3 39.5l-123 7v145q86 -13 146 -13q51 0 52 13
q0 13 -7.5 18.5t-22.5 7t-18 2.5l-16 2q-16 2 -31 4.5t-36 11.5t-36.5 21.5t-26.5 36t-11 54.5q0 60 33 96.5t110 48.5l-9 93h30q116 0 120 2l-2 -11q-1 -12 -3 -32t-4 -36v-9q25 0 101 -6z" />
    <glyph glyph-name="percent" unicode="%" horiz-adv-x="959" 
d="M454 692h223l-176 -715h-212zM205 652q41 0 70 -14t43.5 -31t22 -45t8.5 -43.5t1 -37.5q0 -11 -1.5 -23.5t-10 -35.5t-23 -40.5t-44 -31t-69.5 -13.5q-73 0 -112.5 45.5t-39.5 118.5q0 14 2 28.5t11 38t24 41t46 30.5t72 13zM202 410q45 0 45 88q0 17 -2.5 33.5
t-13.5 33.5t-29 17q-47 0 -47 -88q0 -7 1 -16.5t5 -27t14.5 -29t26.5 -11.5zM764 350q41 0 70 -14t43.5 -31t22 -45t8.5 -43.5t1 -37.5q0 -11 -1.5 -23.5t-10 -35.5t-23 -40.5t-44 -31t-69.5 -13.5q-73 0 -112.5 45.5t-39.5 118.5q0 14 2 28.5t11 38t24 41t46 30.5t72 13z
M761 108q45 0 45 88q0 17 -2.5 33.5t-13.5 33.5t-29 17q-47 0 -47 -88q0 -7 1 -16.5t5 -27t14.5 -29t26.5 -11.5z" />
    <glyph glyph-name="ampersand" unicode="&#x26;" horiz-adv-x="658" 
d="M507 599l6 -173q-143 12 -195 12q-4 0 -10 -0.5t-10 -0.5q-63 -5 -64 -39q3 -38 69 -38q3 0 9 0.5t9 0.5q19 2 39.5 6t33.5 7l12 3v-142l-62 7l-24 1q-16 0 -23 -1q-59 -4 -59 -33q3 -38 79 -38q19 0 29 1l78 11v86l184 14v-305l-194 -23v48l-4 -1q-3 0 -8.5 -1t-13 -2
t-18 -2t-20.5 -2q-28 -2 -45 -2q-41 0 -77.5 6t-73.5 21t-61.5 45.5t-30.5 74.5q0 5 0.5 14t5 31t12.5 39.5t25.5 32.5t41.5 17q-4 1 -10 4t-21.5 15t-28 27t-23.5 43t-14 62v13q0 51 31.5 88.5t67.5 52.5t70 18q29 2 123 2h165z" />
    <glyph glyph-name="quotesingle" unicode="'" horiz-adv-x="220" 
d="M50 473v180h120v-180h-120z" />
    <glyph glyph-name="parenleft" unicode="(" horiz-adv-x="458" 
d="M50 111v429q2 77 20 128t51.5 75.5t70 33.5t88.5 9q29 0 58 -3t43 -5l14 -3l13 -179q-17 5 -50 5q-61 0 -77 -26t-16 -115v-296q0 -63 17 -88.5t76 -25.5l50 5l-13 -179q-49 -11 -115 -11q-71 0 -119.5 19t-76.5 71q-18 34 -26 78q-1 5 -6 50q-2 18 -2 28z" />
    <glyph glyph-name="parenright" unicode=")" horiz-adv-x="458" 
d="M408 540v-429q0 -10 -2 -28q-5 -45 -6 -50q-8 -44 -26 -78q-28 -52 -76.5 -71t-119.5 -19q-29 0 -58 2.5t-43 5.5l-14 3l-13 179q17 -5 50 -5q59 0 76 25.5t17 88.5v296q0 89 -16 115t-77 26l-50 -5l13 179q49 11 115 11q52 0 88.5 -9t70 -33.5t51.5 -75.5t20 -128z" />
    <glyph glyph-name="asterisk" unicode="*" horiz-adv-x="368" 
d="M137 751l138 -9l-39 -107l102 24l30 -115l-106 7l70 -97l-104 -52l-61 109l-72 -98l-81 69l93 88l-107 39l46 78l91 -38v102z" />
    <glyph glyph-name="plus" unicode="+" horiz-adv-x="502" 
d="M166 511l165 1v-130h121v-150h-121v-101h-165v101h-116v150h116v129z" />
    <glyph glyph-name="comma" unicode="," horiz-adv-x="281" 
d="M231 89v-4q0 -20 -4 -43.5t-9.5 -43.5t-10.5 -37t-9 -27l-4 -11h-135l33 91q-28 10 -46 34.5t-18 55.5q0 39 27.5 66t66.5 27q12 0 18 -1q30 -1 59.5 -29.5t31.5 -77.5z" />
    <glyph glyph-name="hyphen" unicode="-" horiz-adv-x="370" 
d="M50 232v150h270v-150h-270z" />
    <glyph glyph-name="period" unicode="." horiz-adv-x="252" 
d="M35 91q0 37 26.5 64t64.5 27t64.5 -27t26.5 -64t-26.5 -64t-64.5 -27t-64.5 27t-26.5 64z" />
    <glyph glyph-name="slash" unicode="/" horiz-adv-x="488" 
d="M215 692h223l-176 -715h-212z" />
    <glyph glyph-name="zero" unicode="0" 
d="M335 609q58 0 103.5 -14t74.5 -34t50 -52.5t31 -58.5t15.5 -64t6 -58t0.5 -50q0 -13 -1 -28t-7.5 -44t-17 -54.5t-32.5 -54t-51 -49.5t-75 -34.5t-102 -13.5q-141 0 -218 88t-77 229q0 27 3.5 54.5t21 73.5t47 79.5t89 59t139.5 25.5zM329 142q86 0 86 170
q0 23 -2.5 45.5t-10.5 51.5t-26.5 46.5t-45.5 17.5q-91 0 -91 -168q0 -10 0.5 -22.5t5.5 -40t13.5 -47.5t27 -36.5t43.5 -16.5z" />
    <glyph glyph-name="one" unicode="1" horiz-adv-x="436" 
d="M64 605v-9h322v-596h-240l33 414l-129 -9z" />
    <glyph glyph-name="two" unicode="2" horiz-adv-x="551" 
d="M50 573q101 23 186 23q112 0 173 -42.5t69 -120.5q0 -3 0.5 -9t0.5 -8q0 -36 -15.5 -74.5t-37.5 -67.5t-43.5 -52.5t-36.5 -35.5l-16 -13l171 10v-181h-438l-13 151q8 6 21 15.5t45.5 38t58 54t46 56.5t20.5 53q0 6 -1 8q-5 37 -54 37q-22 0 -50 -7t-45 -14l-17 -7z" />
    <glyph glyph-name="three" unicode="3" horiz-adv-x="548" 
d="M50 581q97 17 171 17q130 0 203.5 -42t73.5 -120q0 -38 -11.5 -69t-27.5 -48t-32 -28.5t-27 -15.5l-12 -4q47 -9 78.5 -41t31.5 -79q0 -162 -296 -162q-34 0 -68 2t-52 5l-17 2l-15 166q67 -7 130 -7q112 0 112 31q-2 36 -123 36l-70 -2l-12 138q86 -4 143 -7h6
q24 0 38 9t16 18l2 9q-9 37 -98 37q-28 0 -61 -3.5t-52 -6.5l-19 -4z" />
    <glyph glyph-name="four" unicode="4" horiz-adv-x="560" 
d="M36 580l220 12l-38 -262h80l16 262h196v-598h-224l11 190h-261v396z" />
    <glyph glyph-name="five" unicode="5" horiz-adv-x="553" 
d="M240 357q51 10 93 10q44 0 77 -12.5t50.5 -30t27.5 -41t12.5 -40t2.5 -33.5q0 -209 -292 -209q-39 0 -79.5 3.5t-61.5 7.5l-20 4v147q57 -8 111 -8q115 0 115 46q-3 44 -102 44q-27 0 -58 -3t-48 -6l-18 -3l19 351l434 19v-171h-252z" />
    <glyph glyph-name="six" unicode="6" horiz-adv-x="585" 
d="M339 360h27q169 -10 169 -193q0 -74 -61 -123.5t-185 -49.5h-27q-9 0 -25 2q-214 23 -214 263q0 53 10 100t37 95t69.5 82t112 55.5t159.5 21.5q41 0 115 -7l-18 -206q-64 16 -138 16q-162 0 -211 -94l18 -14q4 6 14 14.5t51.5 23t96.5 14.5zM304 132q29 0 47.5 16
t20.5 41q0 22 -17.5 37.5t-45.5 16.5q-26 0 -44.5 -15t-19.5 -39q0 -24 17.5 -40t41.5 -17z" />
    <glyph glyph-name="seven" unicode="7" horiz-adv-x="544" 
d="M50 597l444 -1v-158l-169 -435h-255l199 418h-204z" />
    <glyph glyph-name="eight" unicode="8" horiz-adv-x="637" 
d="M600 414q0 -45 -24 -84t-68 -62q59 -32 59 -124q0 -75 -77.5 -113t-180.5 -38q-98 0 -173.5 38t-75.5 113q0 93 59 124q-41 20 -67 58t-26 88q0 18 3.5 36.5t20 48.5t44.5 52.5t83.5 39t130.5 16.5q78 0 135.5 -16.5t86.5 -39t46 -52.5t20.5 -48.5t3.5 -36.5zM305 132
q28 0 46.5 14.5t20.5 36.5q0 19 -17.5 33.5t-44.5 15.5q-26 0 -44 -13.5t-19 -35.5q0 -21 17 -35.5t41 -15.5zM305 368q28 0 46.5 14.5t20.5 36.5q0 19 -17.5 33.5t-44.5 15.5q-26 0 -44 -13.5t-19 -35.5q0 -21 17 -35.5t41 -15.5z" />
    <glyph glyph-name="nine" unicode="9" horiz-adv-x="579" 
d="M226 247h-27q-93 4 -132 52.5t-39 134.5q0 71 62 119.5t187 48.5h27q8 0 26 -2q216 -23 216 -256q0 -66 -18 -122.5t-59.5 -108.5t-122 -82.5t-193.5 -30.5q-43 0 -116 7l19 200q64 -16 139 -16q163 0 214 92l-19 14q-4 -6 -14 -14t-52 -22t-98 -14zM262 467
q-30 0 -48.5 -15t-20.5 -40q0 -21 18 -36.5t46 -16.5q26 0 44.5 15t19.5 38q0 24 -17.5 39.5t-41.5 15.5z" />
    <glyph glyph-name="colon" unicode=":" horiz-adv-x="294" 
d="M50 381q0 37 25.5 62t61.5 25t61.5 -25t25.5 -62q0 -36 -25.5 -61t-61.5 -25t-61.5 25t-25.5 61zM64 147q0 33 23.5 56t56.5 23t56.5 -23t23.5 -56t-23.5 -56.5t-56.5 -23.5t-56.5 23.5t-23.5 56.5z" />
    <glyph glyph-name="semicolon" unicode=";" horiz-adv-x="281" 
d="M231 89v-4q0 -20 -4 -43.5t-9.5 -43.5t-10.5 -37t-9 -27l-4 -11h-135l33 91q-28 10 -46 34.5t-18 55.5q0 39 27.5 66t66.5 27q12 0 18 -1q30 -1 59.5 -29.5t31.5 -77.5zM43 327q0 35 25.5 60.5t60.5 25.5q36 0 61 -25.5t25 -60.5q0 -36 -25 -61t-61 -25q-35 0 -60.5 25
t-25.5 61z" />
    <glyph glyph-name="less" unicode="&#x3c;" horiz-adv-x="385" 
d="M147 457v0v0v0v0h1v0h1v0h1v0h1h1h1h1h1h1h1h1h1h1h1h1h1h1h1h1h1h1h1h1h1h1h1h1h1h1h1h1h1h1h1h1h1h1h1h2h1h1h1h1h1h2h1h1h1h2h1h1h1h2h1h1h2h1h1h2h1h2h1h1h2h1h2h1h2h1h1h2h1h2h1h2h1h2h1h2h2h1h2h1h2h1h2h2h1h2h2h1h2h1h2h2h1h2h2h2h1h2h2h1h2h2h2h1h2h2h2h1h2h2h2
h2h2h1h2h10l-95 -179q2 -3 56.5 -81t56.5 -78q-4 -1 -38 -1q-22 0 -77.5 0.5t-61.5 0.5q0 -1 -11 16t-27 42t-32 50.5t-27 42.5l-11 18q1 0 25 40t48 82.5t24 46.5z" />
    <glyph glyph-name="equal" unicode="=" horiz-adv-x="458" 
d="M51 303l-1 124h330v-124h-329zM51 122l-1 124h330v-124h-329z" />
    <glyph glyph-name="greater" unicode="&#x3e;" horiz-adv-x="385" 
d="M238 457q0 -4 24 -46.5t48 -82.5t25 -40q-7 -11 -18 -28.5t-35 -55t-39.5 -62t-15.5 -23.5q-6 0 -61.5 -0.5t-77.5 -0.5q-34 0 -38 1q2 0 56.5 78t56.5 81l-95 179v0v0h1v0h1v0h1h1h1h1h1h1h1h1h1h1h1h1h1h1h1h1h1h1h1h1h1h1h1h1h2h1h1h1h1h1h1h1h1h1h2h1h1h1h1h2h1h1h1
h2h1h1h2h1h1h2h1h1h2h1h1h2h1h2h1h2h1h2h1h2h1h2h1h2h1h2h1h2h1h2h2h1h2h1h2h2h1h2h2h1h2h2h2h1h2h2h2h1h2h2h2h2h1h2h2h2h2h2h2h1h2h2h2h2h2h2h2h2h9z" />
    <glyph glyph-name="question" unicode="?" horiz-adv-x="582" 
d="M72 445l-22 178q92 20 206 20q59 0 107.5 -11t87 -33t60 -60.5t21.5 -90.5q0 -47 -23.5 -83.5t-57.5 -55t-68 -30t-57 -14.5l-24 -3q2 -26 6.5 -83.5t7.5 -84.5h-214v278q251 8 253 51q-5 27 -125 27zM336 -27q0 35 -35.5 59.5t-85.5 24.5t-85.5 -24.5t-35.5 -59.5
t35.5 -60t85.5 -25t85.5 25t35.5 60z" />
    <glyph glyph-name="at" unicode="@" horiz-adv-x="655" 
d="M179 7q-132 15 -132 278q0 62 5 129q4 48 21.5 81t43 52.5t68.5 30.5t85 14t105 3h46q36 -2 65 -16t47.5 -32.5t31.5 -48t19.5 -54.5t10.5 -60t4.5 -57t0.5 -53q0 -47 -20 -74t-78 -27q-46 0 -69.5 7t-30 18t-8.5 33l-2 -3h-122v-31h-90l-5 102q21 1 33 6.5t14 10.5l1 4
l35 160h140q47 -165 52 -171q3 -3 32 -3l2 -39l17 -1l-1 18q-2 63 -14 127q-11 56 -31.5 73t-85.5 17q-32 0 -81 -3q-39 -2 -65.5 -17.5t-39 -44t-17 -59t-4.5 -72.5v-20q0 -82 16 -111q20 -39 100 -39q51 0 128.5 6.5t129.5 13.5l52 7q13 -36 13 -63q0 -42 -17 -65
q-10 -13 -96.5 -23t-182.5 -10q-71 0 -126 6zM313 321h38l-18 80h-4z" />
    <glyph glyph-name="A" unicode="A" horiz-adv-x="762" 
d="M727 0h-206l9 70h-308v-70h-175l-12 200q29 2 50.5 8.5t31 14.5t15 15.5t6.5 12.5v5l74 340h286q102 -353 116 -369q10 -11 71 -11l32 1zM311 249h110l-45 194h-28z" />
    <glyph glyph-name="B" unicode="B" horiz-adv-x="640" 
d="M454 325h3q11 0 24.5 -1.5t37 -10.5t41.5 -24.5t32 -47t14 -73.5q0 -181 -298 -181q-46 0 -109 7.5t-103 14.5l-40 7q-9 450 -16 548q7 6 22.5 15.5t73.5 25t130 15.5q63 0 111.5 -7t89 -24t62 -48.5t21.5 -76.5q0 -34 -10 -61t-24 -41t-28 -23t-24 -11zM237 474l13 -117
q5 -1 13 -1q21 0 40 3.5t39 21t20 46.5v6q-5 54 -61 54q-14 0 -30 -3.5t-25 -6.5zM255 107q16 -3 37 -3q19 0 36.5 3t35.5 11.5t29 25.5t11 42q0 71 -87 71q-9 0 -18.5 -1t-16.5 -2t-13 -2t-10 -2l-4 -1v-142z" />
    <glyph glyph-name="C" unicode="C" horiz-adv-x="625" 
d="M575 579v-236h-89.5t-58 0.5t-31 1t-17 0.5h-8.5q-26 0 -48 -4.5t-43 -21t-21 -44.5q0 -23 8 -38t24 -21t29.5 -7.5t34.5 -1.5q44 0 99 4.5t88 8.5l33 5v-212q-71 -15 -160 -15q-51 0 -97.5 6.5t-97 25t-87 49t-60 83t-23.5 121.5q0 76 23 133.5t58.5 90.5t85.5 54
t96.5 28t98.5 7q75 0 163 -17z" />
    <glyph glyph-name="D" unicode="D" horiz-adv-x="625" 
d="M48 135l2 444q88 17 163 17q52 0 98.5 -7t96.5 -28t85.5 -54t58.5 -90.5t23 -133.5q0 -69 -23.5 -121.5t-60 -83t-87 -49t-97 -25t-97.5 -6.5q-25 0 -50.5 1.5t-44.5 3.5t-34.5 4.5t-24.5 4.5l-8 1v122zM233 200h8q17 0 32.5 2.5t37 11t35.5 29t16 51.5l1 10
q-2 84 -86 91h-7q-8 0 -17 -1t-15 -2l-5 -1v-191z" />
    <glyph glyph-name="E" unicode="E" horiz-adv-x="569" 
d="M272 434v-74l207 8l-6 -152h-201v-71h252l10 -142h-478l-21 592h477v-161h-240z" />
    <glyph glyph-name="F" unicode="F" horiz-adv-x="547" 
d="M272 434v-97l207 8l-6 -152h-190v-192h-227l-21 594h477v-161h-240z" />
    <glyph glyph-name="G" unicode="G" horiz-adv-x="636" 
d="M456 259h20.5t20.5 -0.5t19.5 -1t18.5 -1t17 -1.5t14 -1.5t10.5 -1t6.5 -0.5h2v-290h-198l-2 44q-50 2 -93 9.5t-89 27t-78.5 49t-53.5 79.5t-21 115q0 74 23 130.5t58.5 89.5t85.5 53.5t96.5 27.5t98.5 7q71 0 167 -17v-200q-66 14 -137 14q-163 0 -163 -99
q0 -32 10.5 -54t27.5 -31t28 -12t23 -4h6l-4 61q34 7 86 7z" />
    <glyph glyph-name="H" unicode="H" horiz-adv-x="663" 
d="M377 596h251v-596h-251v205h-90v-205h-227l-25 596h258v-228h84v228z" />
    <glyph glyph-name="I" unicode="I" horiz-adv-x="314" 
d="M63 0l-21 503h231v-503h-210zM78 531l15 75l-58 44l83 17l34 58l24 -59l103 -18l-67 -53l7 -64l-75 28z" />
    <glyph glyph-name="J" unicode="J" horiz-adv-x="483" 
d="M183 602v-6h262q3 -48 3 -141q0 -71 -3 -173q-3 -88 -23.5 -146.5t-58.5 -86.5t-80 -38.5t-101 -10.5q-34 0 -67 3t-49 7l-16 3l-15 205q20 -6 57 -6q70 0 88.5 29.5t18.5 132.5q0 48 -4 105t-8 90z" />
    <glyph glyph-name="K" unicode="K" horiz-adv-x="687" 
d="M35 587l256 9v-264q57 2 77 34.5t20 102.5q0 23 -3 49.5t-5 41.5l-3 15l232 19v-9q0 -67 -7 -195q-2 -38 -16 -69.5t-33 -48.5t-37.5 -28.5t-31.5 -15.5l-12 -3q2 -6 4 -11q26 -31 94 -31q17 0 35.5 2t28.5 4l10 2l8 -215q-44 -6 -80 -6q-49 0 -87.5 10t-63.5 24.5
t-43 36.5t-26.5 41t-13.5 43.5t-6 38t-1 30.5h-37v-194h-239z" />
    <glyph glyph-name="L" unicode="L" horiz-adv-x="547" 
d="M35 596h267l-15 -429l208 10l17 -177h-447z" />
    <glyph glyph-name="M" unicode="M" horiz-adv-x="734" 
d="M35 0v580l254 16l89 -272l67 272h254v-596h-181l10 227h-25l-66 -227h-137l-61 227h-17v-227h-187z" />
    <glyph glyph-name="N" unicode="N" horiz-adv-x="622" 
d="M35 588l180 8l149 -233v233h223v-584l-171 -11l-181 258l12 -249l-212 -9v587z" />
    <glyph glyph-name="O" unicode="O" 
d="M335 609q58 0 103.5 -14t74.5 -34t50 -52.5t31 -58.5t15.5 -64t6 -58t0.5 -50q0 -13 -1 -28t-7.5 -44t-17 -54.5t-32.5 -54t-51 -49.5t-75 -34.5t-102 -13.5q-141 0 -218 88t-77 229q0 27 3.5 54.5t21 73.5t47 79.5t89 59t139.5 25.5zM329 142q86 0 86 170
q0 23 -2.5 45.5t-10.5 51.5t-26.5 46.5t-45.5 17.5q-91 0 -91 -168q0 -10 0.5 -22.5t5.5 -40t13.5 -47.5t27 -36.5t43.5 -16.5z" />
    <glyph glyph-name="P" unicode="P" horiz-adv-x="674" 
d="M335 624q163 0 233.5 -54t70.5 -179q0 -246 -275 -246q-38 0 -70 4l8 -148h-246l-21 599q82 24 300 24zM304 269q7 -1 16 -1q16 0 31 3.5t33.5 13.5t29.5 32t11 54q0 59 -25.5 83.5t-62.5 24.5q-23 0 -44 -7z" />
    <glyph glyph-name="Q" unicode="Q" horiz-adv-x="685" 
d="M353 631q48 0 88 -9t68.5 -23t51.5 -36.5t37.5 -43.5t25 -50.5t15.5 -51t7.5 -51.5t3 -45.5t0.5 -39.5q0 -19 -3.5 -43t-14 -63t-38 -77.5t-67.5 -64.5l87 -174q-238 -6 -238 -9q0 -1 -4.5 12.5t-11.5 35t-14 44.5t-14 45q-143 5 -220 98t-77 238q0 18 1.5 37t9 51
t19.5 59.5t36 58.5t56.5 52.5t83 35.5t112.5 14zM346 137q91 0 91 180q0 25 -2.5 48.5t-11 54t-28 49t-48.5 18.5q-96 0 -96 -178q0 -15 2 -34t9.5 -55t29.5 -59.5t54 -23.5z" />
    <glyph glyph-name="R" unicode="R" horiz-adv-x="672" 
d="M486 170q18 -29 75 -29q17 0 36 2.5t29 5.5l11 3v-191l-91 -5q-47 0 -85 16t-60.5 37.5t-39 50.5t-23 48.5t-10.5 37.5q-22 0 -48 3l6 -153h-232l-19 590q77 31 283 31q154 0 220.5 -53t66.5 -176q0 -163 -119 -218zM281 269q7 -1 16 -1q16 0 31 3.5t33.5 13.5t29.5 32
t11 54q0 59 -25.5 83.5t-62.5 24.5q-23 0 -44 -7z" />
    <glyph glyph-name="S" unicode="S" horiz-adv-x="553" 
d="M526 592v-209q-1 0 -9 1t-21 2.5t-29 2.5t-35.5 2t-37.5 1q-109 0 -109 -36q0 -7 1.5 -11t10 -9t26.5 -7q20 -1 32 -1.5t37.5 -4t42.5 -9t38.5 -16.5t34.5 -25.5t22.5 -37.5t9.5 -52q0 -45 -15.5 -78.5t-36 -51.5t-55 -30t-56 -15.5t-56.5 -7.5q-16 -2 -55 -2
q-41 0 -96 3t-90 5l-34 3v189q112 -18 188 -18q66 0 69 18q0 17 -10.5 24t-30 8.5t-22.5 2.5q-1 0 -20.5 2.5t-40 6.5t-47.5 15.5t-47.5 28t-34.5 47t-14 69.5q0 99 72 149t248 50q86 0 170 -9z" />
    <glyph glyph-name="T" unicode="T" horiz-adv-x="606" 
d="M35 585v12h536v-175h-135v-422h-241l-15 406h-145v179z" />
    <glyph glyph-name="U" unicode="U" horiz-adv-x="648" 
d="M35 581h226q-14 -84 -14 -171q0 -176 75 -176q74 0 74 167q0 59 -16 179l9 1l201 15q23 -101 23 -220q0 -56 -6.5 -104.5t-25.5 -100t-49 -88t-81 -60t-118 -23.5q-76 0 -133 29.5t-89.5 73.5t-52.5 105.5t-26.5 115t-6.5 112.5q0 37 2.5 73t4.5 54z" />
    <glyph glyph-name="V" unicode="V" horiz-adv-x="728" 
d="M228 -1l-193 597h248l77 -340l76 340h257l-218 -597h-247z" />
    <glyph glyph-name="W" unicode="W" horiz-adv-x="734" 
d="M438 596h247v-593h-249l-73 206l-62 -208h-239l-38 595h279l-13 -301l43 82l36 -2l37 2l32 -78v297z" />
    <glyph glyph-name="X" unicode="X" horiz-adv-x="752" 
d="M71 596h257l71 -105l80 105l238 -12l-212 -282l164 -302h-227l-73 120l-96 -120h-238l207 312z" />
    <glyph glyph-name="Y" unicode="Y" horiz-adv-x="686" 
d="M620 596q16 -99 16 -146q0 -256 -178 -315v-136h-229v136q-179 58 -179 315q0 62 15 146h213q0 -73 -0.5 -115t-1 -55t-0.5 -14q0 -38 13.5 -69t49.5 -31h6q36 0 50 31t14 69q0 1 -0.5 14t-1 55t-0.5 115h213z" />
    <glyph glyph-name="Z" unicode="Z" horiz-adv-x="577" 
d="M46 590h496v-191l-254 -227l223 -8v-172h-460l-16 165l228 244h-217v189z" />
    <glyph glyph-name="bracketleft" unicode="[" horiz-adv-x="434" 
d="M386 775v-178q-25 2 -53 2q-66 0 -69 -15q-4 -15 -12 -200.5t-8 -273.5q0 -41 2 -43q4 -3 39 -7.5t68 -7.5l33 -3l-22 -164q-37 -4 -86 -4q-72 0 -118.5 11t-70 34.5t-31.5 52t-8 73.5v427q0 42 1.5 71t5.5 68t14 65.5t25.5 51t41 37t59.5 12.5q1 0 189 -9z" />
    <glyph glyph-name="backslash" unicode="\" horiz-adv-x="488" 
d="M50 692h223l165 -715h-212z" />
    <glyph glyph-name="bracketright" unicode="]" horiz-adv-x="434" 
d="M50 775l189 9q34 0 59.5 -12.5t41 -37t25.5 -51t14 -65.5t5.5 -68t1.5 -71v-427q0 -45 -8 -73.5t-31.5 -52t-70 -34.5t-118.5 -11l-86 4l-22 164q131 11 140 18q2 2 2 43q0 88 -8 273.5t-12 200.5q-3 15 -69 15l-53 -2v178z" />
    <glyph glyph-name="asciicircum" unicode="^" horiz-adv-x="293" 
d="M243 648h-69l-28 72l-25 -73q-64 0 -71 1q2 7 12 31.5t19 45.5t9 23h113q1 -3 9.5 -24.5t18.5 -45.5t12 -30z" />
    <glyph glyph-name="underscore" unicode="_" horiz-adv-x="528" 
d="M50 -43v154h428v-154h-428z" />
    <glyph glyph-name="grave" unicode="`" horiz-adv-x="223" 
d="M188 649q-7 -1 -31 -1h-50l-72 102h112q35 -84 41 -101z" />
    <glyph glyph-name="a" unicode="a" horiz-adv-x="762" 
d="M727 0h-206l9 70h-308v-70h-175l-12 200q29 2 50.5 8.5t31 14.5t15 15.5t6.5 12.5v5l74 340h286q102 -353 116 -369q10 -11 71 -11l32 1zM311 249h110l-45 194h-28z" />
    <glyph glyph-name="b" unicode="b" horiz-adv-x="640" 
d="M454 325h3q11 0 24.5 -1.5t37 -10.5t41.5 -24.5t32 -47t14 -73.5q0 -181 -298 -181q-46 0 -109 7.5t-103 14.5l-40 7q-9 450 -16 548q7 6 22.5 15.5t73.5 25t130 15.5q63 0 111.5 -7t89 -24t62 -48.5t21.5 -76.5q0 -34 -10 -61t-24 -41t-28 -23t-24 -11zM237 474l13 -117
q5 -1 13 -1q21 0 40 3.5t39 21t20 46.5v6q-5 54 -61 54q-14 0 -30 -3.5t-25 -6.5zM255 107q16 -3 37 -3q19 0 36.5 3t35.5 11.5t29 25.5t11 42q0 71 -87 71q-9 0 -18.5 -1t-16.5 -2t-13 -2t-10 -2l-4 -1v-142z" />
    <glyph glyph-name="c" unicode="c" horiz-adv-x="625" 
d="M575 579v-236h-89.5t-58 0.5t-31 1t-17 0.5h-8.5q-26 0 -48 -4.5t-43 -21t-21 -44.5q0 -23 8 -38t24 -21t29.5 -7.5t34.5 -1.5q44 0 99 4.5t88 8.5l33 5v-212q-71 -15 -160 -15q-51 0 -97.5 6.5t-97 25t-87 49t-60 83t-23.5 121.5q0 76 23 133.5t58.5 90.5t85.5 54
t96.5 28t98.5 7q75 0 163 -17z" />
    <glyph glyph-name="d" unicode="d" horiz-adv-x="625" 
d="M48 135l2 444q88 17 163 17q52 0 98.5 -7t96.5 -28t85.5 -54t58.5 -90.5t23 -133.5q0 -69 -23.5 -121.5t-60 -83t-87 -49t-97 -25t-97.5 -6.5q-25 0 -50.5 1.5t-44.5 3.5t-34.5 4.5t-24.5 4.5l-8 1v122zM233 200h8q17 0 32.5 2.5t37 11t35.5 29t16 51.5l1 10
q-2 84 -86 91h-7q-8 0 -17 -1t-15 -2l-5 -1v-191z" />
    <glyph glyph-name="e" unicode="e" horiz-adv-x="569" 
d="M272 434v-74l207 8l-6 -152h-201v-71h252l10 -142h-478l-21 592h477v-161h-240z" />
    <glyph glyph-name="f" unicode="f" horiz-adv-x="547" 
d="M272 434v-97l207 8l-6 -152h-190v-192h-227l-21 594h477v-161h-240z" />
    <glyph glyph-name="g" unicode="g" horiz-adv-x="636" 
d="M456 259h20.5t20.5 -0.5t19.5 -1t18.5 -1t17 -1.5t14 -1.5t10.5 -1t6.5 -0.5h2v-290h-198l-2 44q-50 2 -93 9.5t-89 27t-78.5 49t-53.5 79.5t-21 115q0 74 23 130.5t58.5 89.5t85.5 53.5t96.5 27.5t98.5 7q71 0 167 -17v-200q-66 14 -137 14q-163 0 -163 -99
q0 -32 10.5 -54t27.5 -31t28 -12t23 -4h6l-4 61q34 7 86 7z" />
    <glyph glyph-name="h" unicode="h" horiz-adv-x="663" 
d="M377 596h251v-596h-251v205h-90v-205h-227l-25 596h258v-228h84v228z" />
    <glyph glyph-name="i" unicode="i" horiz-adv-x="314" 
d="M63 0l-21 503h231v-503h-210zM78 531l15 75l-58 44l83 17l34 58l24 -59l103 -18l-67 -53l7 -64l-75 28z" />
    <glyph glyph-name="j" unicode="j" horiz-adv-x="483" 
d="M183 602v-6h262q3 -48 3 -141q0 -71 -3 -173q-3 -88 -23.5 -146.5t-58.5 -86.5t-80 -38.5t-101 -10.5q-34 0 -67 3t-49 7l-16 3l-15 205q20 -6 57 -6q70 0 88.5 29.5t18.5 132.5q0 48 -4 105t-8 90z" />
    <glyph glyph-name="k" unicode="k" horiz-adv-x="687" 
d="M35 587l256 9v-264q57 2 77 34.5t20 102.5q0 23 -3 49.5t-5 41.5l-3 15l232 19v-9q0 -67 -7 -195q-2 -38 -16 -69.5t-33 -48.5t-37.5 -28.5t-31.5 -15.5l-12 -3q2 -6 4 -11q26 -31 94 -31q17 0 35.5 2t28.5 4l10 2l8 -215q-44 -6 -80 -6q-49 0 -87.5 10t-63.5 24.5
t-43 36.5t-26.5 41t-13.5 43.5t-6 38t-1 30.5h-37v-194h-239z" />
    <glyph glyph-name="l" unicode="l" horiz-adv-x="547" 
d="M35 596h267l-15 -429l208 10l17 -177h-447z" />
    <glyph glyph-name="m" unicode="m" horiz-adv-x="734" 
d="M35 0v580l254 16l89 -272l67 272h254v-596h-181l10 227h-25l-66 -227h-137l-61 227h-17v-227h-187z" />
    <glyph glyph-name="n" unicode="n" horiz-adv-x="622" 
d="M35 588l180 8l149 -233v233h223v-584l-171 -11l-181 258l12 -249l-212 -9v587z" />
    <glyph glyph-name="o" unicode="o" 
d="M335 609q58 0 103.5 -14t74.5 -34t50 -52.5t31 -58.5t15.5 -64t6 -58t0.5 -50q0 -13 -1 -28t-7.5 -44t-17 -54.5t-32.5 -54t-51 -49.5t-75 -34.5t-102 -13.5q-141 0 -218 88t-77 229q0 27 3.5 54.5t21 73.5t47 79.5t89 59t139.5 25.5zM333 176q86 0 86 133
q0 18 -2.5 35.5t-10.5 40t-26.5 36.5t-45.5 14q-91 0 -91 -132q0 -8 0.5 -17.5t5.5 -31t13.5 -37.5t27 -28.5t43.5 -12.5z" />
    <glyph glyph-name="p" unicode="p" horiz-adv-x="674" 
d="M335 624q163 0 233.5 -54t70.5 -179q0 -246 -275 -246q-38 0 -70 4l8 -148h-246l-21 599q82 24 300 24zM304 269q7 -1 16 -1q16 0 31 3.5t33.5 13.5t29.5 32t11 54q0 59 -25.5 83.5t-62.5 24.5q-23 0 -44 -7z" />
    <glyph glyph-name="q" unicode="q" horiz-adv-x="685" 
d="M353 631q48 0 88 -9t68.5 -23t51.5 -36.5t37.5 -43.5t25 -50.5t15.5 -51t7.5 -51.5t3 -45.5t0.5 -39.5q0 -19 -3.5 -43t-14 -63t-38 -77.5t-67.5 -64.5l87 -174q-238 -6 -238 -9q0 -1 -4.5 12.5t-11.5 35t-14 44.5t-14 45q-143 5 -220 98t-77 238q0 18 1.5 37t9 51
t19.5 59.5t36 58.5t56.5 52.5t83 35.5t112.5 14zM346 137q91 0 91 180q0 25 -2.5 48.5t-11 54t-28 49t-48.5 18.5q-96 0 -96 -178q0 -15 2 -34t9.5 -55t29.5 -59.5t54 -23.5z" />
    <glyph glyph-name="r" unicode="r" horiz-adv-x="672" 
d="M486 170q18 -29 75 -29q17 0 36 2.5t29 5.5l11 3v-191l-91 -5q-47 0 -85 16t-60.5 37.5t-39 50.5t-23 48.5t-10.5 37.5q-22 0 -48 3l6 -153h-232l-19 590q77 31 283 31q154 0 220.5 -53t66.5 -176q0 -163 -119 -218zM281 269q7 -1 16 -1q16 0 31 3.5t33.5 13.5t29.5 32
t11 54q0 59 -25.5 83.5t-62.5 24.5q-23 0 -44 -7z" />
    <glyph glyph-name="s" unicode="s" horiz-adv-x="553" 
d="M526 592v-209q-1 0 -9 1t-21 2.5t-29 2.5t-35.5 2t-37.5 1q-109 0 -109 -36q0 -7 1.5 -11t10 -9t26.5 -7q20 -1 32 -1.5t37.5 -4t42.5 -9t38.5 -16.5t34.5 -25.5t22.5 -37.5t9.5 -52q0 -45 -15.5 -78.5t-36 -51.5t-55 -30t-56 -15.5t-56.5 -7.5q-16 -2 -55 -2
q-41 0 -96 3t-90 5l-34 3v189q112 -18 188 -18q66 0 69 18q0 17 -10.5 24t-30 8.5t-22.5 2.5q-1 0 -20.5 2.5t-40 6.5t-47.5 15.5t-47.5 28t-34.5 47t-14 69.5q0 99 72 149t248 50q86 0 170 -9z" />
    <glyph glyph-name="t" unicode="t" horiz-adv-x="606" 
d="M35 585v12h536v-175h-135v-422h-241l-15 406h-145v179z" />
    <glyph glyph-name="u" unicode="u" horiz-adv-x="648" 
d="M35 581h226q-14 -84 -14 -171q0 -176 75 -176q74 0 74 167q0 59 -16 179l9 1l201 15q23 -101 23 -220q0 -56 -6.5 -104.5t-25.5 -100t-49 -88t-81 -60t-118 -23.5q-76 0 -133 29.5t-89.5 73.5t-52.5 105.5t-26.5 115t-6.5 112.5q0 37 2.5 73t4.5 54z" />
    <glyph glyph-name="v" unicode="v" horiz-adv-x="728" 
d="M228 -1l-193 597h248l77 -340l76 340h257l-218 -597h-247z" />
    <glyph glyph-name="w" unicode="w" horiz-adv-x="734" 
d="M438 596h247v-593h-249l-73 206l-62 -208h-239l-38 595h279l-13 -301l43 82l36 -2l37 2l32 -78v297z" />
    <glyph glyph-name="x" unicode="x" horiz-adv-x="752" 
d="M71 596h257l71 -105l80 105l238 -12l-212 -282l164 -302h-227l-73 120l-96 -120h-238l207 312z" />
    <glyph glyph-name="y" unicode="y" horiz-adv-x="686" 
d="M620 613q16 -99 16 -146q0 -256 -178 -315v-136h-229v136q-179 58 -179 315q0 62 15 146h213q0 -73 -0.5 -115t-1 -55t-0.5 -14q0 -38 13.5 -69t49.5 -31h6q36 0 50 31t14 69q0 1 -0.5 14t-1 55t-0.5 115h213z" />
    <glyph glyph-name="z" unicode="z" horiz-adv-x="577" 
d="M46 590h496v-191l-254 -227l223 -8v-172h-460l-16 165l228 244h-217v189z" />
    <glyph glyph-name="braceleft" unicode="{" horiz-adv-x="488" 
d="M423 27l15 -170q-35 -10 -82 -10q-264 0 -264 197q0 26 3.5 54.5t8.5 54.5t6 32v11q0 24 -15 38t-30 16l-15 2v138q2 0 6.5 0.5t14.5 4t18 9t14.5 17t6.5 26.5v9q-1 7 -6 33t-8.5 54.5t-3.5 54.5q0 198 264 198q47 0 82 -10l-15 -171q-17 2 -40 2q-90 0 -96 -49v-13
q0 -17 6.5 -71t6.5 -82q0 -64 -27 -82q27 -14 27 -80q0 -28 -6.5 -81.5t-6.5 -71.5v-13q6 -49 96 -49z" />
    <glyph glyph-name="bar" unicode="|" horiz-adv-x="301" 
d="M56 -19l-21 654h231v-654h-210z" />
    <glyph glyph-name="braceright" unicode="}" horiz-adv-x="488" 
d="M50 -143l15 170q17 -2 40 -2q90 0 96 49v13q0 18 -6.5 71.5t-6.5 81.5q0 66 27 80q-27 18 -27 82q0 28 6.5 82t6.5 71v13q-6 49 -96 49l-40 -2l-15 171q35 10 82 10q264 0 264 -198q0 -26 -3.5 -54.5t-8.5 -54.5t-6 -33v-9q0 -24 15 -38.5t30 -16.5l15 -2v-138
q-2 0 -6.5 -0.5t-14.5 -4t-18 -8.5t-14.5 -16.5t-6.5 -26.5v-11q1 -6 6 -32t8.5 -54.5t3.5 -54.5q0 -197 -264 -197q-47 0 -82 10z" />
    <glyph glyph-name="asciitilde" unicode="~" horiz-adv-x="482" 
d="M50 655v23q0 53 27.5 78.5t75.5 25.5h9q28 0 69 -19.5t51 -20.5q24 1 24 40l122 -7q4 -16 4 -46q0 -47 -32 -67t-77 -20q-23 0 -65.5 16t-66.5 16q-16 0 -26.5 -8t-12.5 -16l-3 -7z" />
    <glyph glyph-name="exclamdown" unicode="&#xa1;" horiz-adv-x="369" 
d="M319 -58h-269l17 415h222zM281 493q0 -42 -29.5 -72t-72.5 -30t-73 30t-30 72t30 72.5t73 30.5q42 0 72 -30.5t30 -72.5z" />
    <glyph glyph-name="cent" unicode="&#xa2;" horiz-adv-x="650" 
d="M291 -44l-2 46q-122 13 -188 99t-66 216q0 24 2.5 49t16.5 66.5t37 74t69.5 61t109.5 37.5v62h96v-59q63 -4 110 -26t73.5 -56t40 -69.5t18.5 -75.5q-109 -16 -196 -26q-8 83 -46 107v-313q38 18 46 92l203 21q-2 -25 -6.5 -50t-21 -63t-41.5 -67t-72 -52.5t-108 -28.5
v-45h-75zM239 305q0 -108 37 -147v293q-37 -39 -37 -146z" />
    <glyph glyph-name="currency" unicode="&#xa4;" horiz-adv-x="577" 
d="M277 513q69 0 114 -24l30 58l106 -21l-61 -87q27 -38 27 -102q0 -15 -1.5 -40.5t-1.5 -33.5q0 -53 -25 -105l56 -106l-118 -24l-25 44q-43 -20 -105 -20q-44 0 -80 12l-14 -27l-128 9l60 70q-61 64 -61 176q0 103 62 164l-61 79l119 21l25 -54q38 11 82 11zM272 160
q66 0 66 128q0 17 -2 34.5t-8 39t-20 35t-35 13.5q-69 0 -69 -127q0 -11 1.5 -24.5t7 -39.5t21 -42.5t38.5 -16.5z" />
    <glyph glyph-name="yen" unicode="&#xa5;" horiz-adv-x="765" 
d="M35 596l263 4l103 -176l114 172h215l-219 -321h75v-157h-83v-112h-235v112h-95v157h75z" />
    <glyph glyph-name="section" unicode="&#xa7;" horiz-adv-x="481" 
d="M323 458q-35 39 -82 39q-18 0 -26 -6q-5 -3 -5 -10q0 -28 111 -43q80 -11 117.5 -46.5t37.5 -70.5q0 -67 -40 -105q40 -33 40 -72q0 -17 -2 -31.5t-12.5 -38.5t-30 -40.5t-59 -29t-94.5 -12.5q-54 0 -97.5 11.5t-67 27.5t-39 32.5t-20.5 28.5l-4 11l96 57q41 -38 71 -49
q10 -4 29 -4q32 0 40 18q1 1 1 4q0 28 -130 53q-52 10 -79.5 43.5t-27.5 69.5q0 53 44 91q-44 34 -44 86q0 13 3 26.5t15 33.5t31 35.5t55 26.5t84 11q47 0 86 -10.5t61.5 -25.5t38.5 -30t22 -25l6 -11zM287 306l-1 2v2q-23 11 -45 11q-18 0 -26 -6q-5 -5 -5 -11
q0 -10 15 -19q7 -2 21 -2q30 0 40 19q1 1 1 4z" />
    <glyph glyph-name="dieresis" unicode="&#xa8;" horiz-adv-x="281" 
d="M35 601q0 19 12.5 32t31.5 13t32 -13t13 -32t-13 -31.5t-32 -12.5t-31.5 12.5t-12.5 31.5zM182 587q0 13 9 22.5t22 9.5q14 0 23.5 -9.5t9.5 -22.5t-9.5 -22.5t-23.5 -9.5q-13 0 -22 9.5t-9 22.5z" />
    <glyph glyph-name="copyright" unicode="&#xa9;" horiz-adv-x="698" 
d="M50 302q0 124 87.5 211.5t211.5 87.5t211.5 -87.5t87.5 -211.5t-87.5 -211.5t-211.5 -87.5t-211.5 87.5t-87.5 211.5zM350 198q-20 0 -33 14t-18 36t-6 33.5t-1 21.5q0 108 58 108q46 0 53 -76l126 17q-6 60 -47 103t-129 43q-51 0 -89.5 -16.5t-57 -38t-30 -51
t-13.5 -47t-2 -34.5q0 -91 49 -147.5t140 -56.5q45 0 80 14t53.5 32.5t30.5 44.5t15.5 43t4.5 34l-131 -13q-7 -64 -53 -64z" />
    <glyph glyph-name="ordfeminine" unicode="&#xaa;" horiz-adv-x="359" 
d="M309 373h-77l3 26h-115v-26h-65l-5 75q17 1 27 6t11 10l1 5l27 127h107q39 -132 44 -138q4 -4 26 -4h12zM153 466h42l-17 73h-11z" />
    <glyph glyph-name="guillemotleft" unicode="&#xab;" horiz-adv-x="622" 
d="M147 457v0v0v0v0h1v0h1v0h1v0h1h1h1h1h1h1h1h1h1h1h1h1h1h1h1h1h1h1h1h1h1h1h1h1h1h1h1h1h1h1h1h1h1h1h1h2h1h1h1h1h1h2h1h1h1h2h1h1h1h2h1h1h2h1h1h2h1h2h1h1h2h1h2h1h2h1h1h2h1h2h1h2h1h2h1h2h2h1h2h1h2h1h2h2h1h2h2h1h2h1h2h2h1h2h2h2h1h2h2h1h2h2h2h1h2h2h2h1h2h2h2
h2h2h1h2h10l-95 -179q2 -3 56.5 -81t56.5 -78q-4 -1 -38 -1q-22 0 -77.5 0.5t-61.5 0.5q0 -1 -11 16t-27 42t-32 50.5t-27 42.5l-11 18q1 0 25 40t48 82.5t24 46.5zM384 457v0v0v0v0h1v0h1v0h1v0h1h1h1h1h1h1h1h1h1h1h1h1h1h1h1h1h1h1h1h1h1h1h1h1h1h1h1h1h1h1h1h1h1h1h1h2
h1h1h1h1h1h2h1h1h1h2h1h1h1h2h1h1h2h1h1h2h1h2h1h1h2h1h2h1h2h1h1h2h1h2h1h2h1h2h1h2h2h1h2h1h2h1h2h2h1h2h2h1h2h1h2h2h1h2h2h2h1h2h2h1h2h2h2h1h2h2h2h1h2h2h2h2h2h1h2h10l-95 -179q2 -3 56.5 -81t56.5 -78q-4 -1 -38 -1q-22 0 -77.5 0.5t-61.5 0.5q0 -1 -11 16t-27 42
t-32 50.5t-27 42.5l-11 18q1 0 25 40t48 82.5t24 46.5z" />
    <glyph glyph-name="uni00AD" unicode="&#xad;" horiz-adv-x="370" 
d="M50 232v150h270v-150h-270z" />
    <glyph glyph-name="registered" unicode="&#xae;" horiz-adv-x="698" 
d="M50 302q0 124 87.5 211.5t211.5 87.5t211.5 -87.5t87.5 -211.5t-87.5 -211.5t-211.5 -87.5t-211.5 87.5t-87.5 211.5zM332 290l-6 118q14 4 26 4q21 0 36 -14.5t15 -48.5q0 -35 -19.5 -47.5t-41.5 -12.5zM452 232q69 33 69 127q0 72 -38.5 102.5t-128.5 30.5
q-53 0 -94.5 -4.5t-55.5 -9.5l-15 -4v-343h146l-3 89q24 -2 28 -2q3 -14 9 -29.5t19.5 -35.5t39 -33t58.5 -13l53 3v112q-21 -7 -44 -7q-33 0 -43 17z" />
    <glyph glyph-name="twosuperior" unicode="&#xb2;" horiz-adv-x="280" 
d="M50 587q42 9 74 9q89 0 97 -65v-7q0 -23 -14.5 -47t-29.5 -37l-15 -13l68 4v-72h-175l-5 60q9 6 21.5 16.5t33.5 33.5t21 37v3q-3 15 -22 15q-9 0 -20 -3t-18 -6l-6 -3z" />
    <glyph glyph-name="threesuperior" unicode="&#xb3;" horiz-adv-x="266" 
d="M50 592q34 6 63 6q48 0 75.5 -15.5t27.5 -44.5q0 -22 -10 -37.5t-20 -19.5l-11 -4q17 -3 29 -15t12 -29q0 -60 -110 -60l-51 3l-5 62q24 -3 48 -3q41 0 41 11q-1 14 -45 14l-26 -1l-5 51q32 -1 53 -3h2q9 0 14 3.5t6 7.5l1 3q-3 13 -36 13l-49 -5z" />
    <glyph glyph-name="acute" unicode="&#xb4;" horiz-adv-x="223" 
d="M35 648l41 101h112l-72 -102q-74 0 -81 1z" />
    <glyph glyph-name="paragraph" unicode="&#xb6;" horiz-adv-x="704" 
d="M266 148q-216 25 -216 243q0 125 70.5 179t233.5 54q97 0 172 -6t102 -12l26 -6l-21 -599h-246l8 148q-25 -4 -56 -4q-5 -46 -5 -104q0 -35 1 -35h-79q7 88 10 142z" />
    <glyph glyph-name="cedilla" unicode="&#xb8;" horiz-adv-x="270" 
d="M62 10h77l-11 -34q31 0 51.5 -9.5t28 -24t10 -23.5t2.5 -17q0 -39 -22.5 -63t-47.5 -30t-56 -6l-44 3v96q20 -5 45 -5q43 0 43 26q0 31 -53 31l-23 -2v58z" />
    <glyph glyph-name="onesuperior" unicode="&#xb9;" horiz-adv-x="228" 
d="M55 605v-3h123v-227h-91l12 157l-49 -3z" />
    <glyph glyph-name="ordmasculine" unicode="&#xba;" horiz-adv-x="268" 
d="M50 722q0 34 25 59t59 25t59 -25t25 -59t-25 -59t-59 -25t-59 25t-25 59zM114 725q0 -9 6 -15t15 -6t15.5 6t6.5 15t-6.5 15.5t-15.5 6.5t-15 -6.5t-6 -15.5z" />
    <glyph glyph-name="guillemotright" unicode="&#xbb;" horiz-adv-x="622" 
d="M475 116v0v0v0v0h-1v0h-1v0h-1v0h-1h-1h-1h-1h-1h-1h-1h-1h-1h-1h-1h-1h-1h-1h-1h-1h-1h-1h-1h-1h-1h-1h-1h-1h-1h-1h-1h-1h-1h-1h-1h-1h-1h-1h-1h-2h-1h-1h-1h-1h-1h-2h-1h-1h-1h-2h-1h-1h-1h-2h-1h-1h-2h-1h-1h-2h-1h-2h-1h-1h-2h-1h-2h-1h-2h-1h-1h-2h-1h-2h-1h-2h-1
h-2h-1h-2h-2h-1h-2h-1h-2h-1h-2h-2h-1h-2h-2h-1h-2h-1h-2h-2h-1h-2h-2h-2h-1h-2h-2h-1h-2h-2h-2h-1h-2h-2h-2h-1h-2h-2h-2h-2h-2h-1h-2h-10l95 179q-2 3 -56.5 81t-56.5 78q4 1 38 1q22 0 77.5 -0.5t61.5 -0.5q0 1 11 -16t27 -42t32 -50.5t27 -43.5l11 -17q-1 0 -25 -40
t-48 -82.5t-24 -46.5zM238 116v0v0v0v0h-1v0h-1v0h-1v0h-1h-1h-1h-1h-1h-1h-1h-1h-1h-1h-1h-1h-1h-1h-1h-1h-1h-1h-1h-1h-1h-1h-1h-1h-1h-1h-1h-1h-1h-1h-1h-1h-1h-1h-1h-2h-1h-1h-1h-1h-1h-2h-1h-1h-1h-2h-1h-1h-1h-2h-1h-1h-2h-1h-1h-2h-1h-2h-1h-1h-2h-1h-2h-1h-2h-1h-1
h-2h-1h-2h-1h-2h-1h-2h-1h-2h-2h-1h-2h-1h-2h-1h-2h-2h-1h-2h-2h-1h-2h-1h-2h-2h-1h-2h-2h-2h-1h-2h-2h-1h-2h-2h-2h-1h-2h-2h-2h-1h-2h-2h-2h-2h-2h-1h-2h-10l95 179q-2 3 -56.5 81t-56.5 78q4 1 38 1q22 0 77.5 -0.5t61.5 -0.5q0 1 11 -16t27 -42t32 -50.5t27 -43.5
l11 -17q-1 0 -25 -40t-48 -82.5t-24 -46.5z" />
    <glyph glyph-name="onequarter" unicode="&#xbc;" horiz-adv-x="825" 
d="M58 614v-5h163v-302h-122l17 210l-66 -4zM370 692h223l-176 -715h-212zM526 311l115 6l-19 -138h42l8 138h103v-314h-118l6 100h-137v208z" />
    <glyph glyph-name="onehalf" unicode="&#xbd;" horiz-adv-x="852" 
d="M58 611v-5h163v-302h-122l17 210l-66 -4zM379 692h223l-176 -715h-212zM577 302q53 12 93 12q112 0 120 -82q0 -2 0.5 -4.5t0.5 -3.5q0 -29 -18.5 -59.5t-36.5 -46.5l-19 -16l85 5v-90h-219l-6 75q11 8 26.5 20.5t42 42t26.5 46.5v4q-3 18 -27 18q-11 0 -25 -3.5
t-22 -7.5l-9 -3z" />
    <glyph glyph-name="threequarters" unicode="&#xbe;" horiz-adv-x="941" 
d="M50 590q51 8 86 8q65 0 102 -21t37 -60q0 -19 -5.5 -34.5t-13.5 -24t-16.5 -14.5t-13.5 -8l-6 -2q24 -5 39.5 -20.5t15.5 -39.5q0 -82 -149 -82l-68 5l-8 83q34 -3 65 -3q57 0 57 15q-1 19 -62 19l-35 -1l-6 69q43 -2 72 -4h3q12 0 19 4.5t8 8.5l1 5q-5 19 -50 19l-66 -7
zM426 692h223l-176 -715h-212zM630 319l121 7l-21 -144h44l9 144h108v-329h-124l7 104h-144v218z" />
    <glyph glyph-name="questiondown" unicode="&#xbf;" horiz-adv-x="582" 
d="M510 86l22 -178q-92 -20 -206 -20q-59 0 -107.5 11t-87 33t-60 60.5t-21.5 90.5q0 47 23.5 83.5t57.5 55t68 30t57 14.5l24 3q-2 26 -6.5 83.5t-7.5 84.5h214v-278q-251 -8 -253 -51q5 -27 125 -27zM246 558q0 35 35.5 60t85.5 25t85.5 -25t35.5 -60t-35.5 -59.5
t-85.5 -24.5t-85.5 24.5t-35.5 59.5z" />
    <glyph glyph-name="Agrave" unicode="&#xc0;" horiz-adv-x="762" 
d="M401 649q-7 -1 -31 -1h-50l-72 102h112q35 -84 41 -101zM727 0h-206l9 70h-308v-70h-175l-12 200q29 2 50.5 8.5t31 14.5t15 15.5t6.5 12.5v5l74 340h286q102 -353 116 -369q10 -11 71 -11l32 1zM311 249h110l-45 194h-28z" />
    <glyph glyph-name="Aacute" unicode="&#xc1;" horiz-adv-x="762" 
d="M298 648l41 101h112l-72 -102q-74 0 -81 1zM727 0h-206l9 70h-308v-70h-175l-12 200q29 2 50.5 8.5t31 14.5t15 15.5t6.5 12.5v5l74 340h286q102 -353 116 -369q10 -11 71 -11l32 1zM311 249h110l-45 194h-28z" />
    <glyph glyph-name="Acircumflex" unicode="&#xc2;" horiz-adv-x="762" 
d="M455 648h-69l-28 72l-25 -73q-64 0 -71 1q2 7 12 31.5t19 45.5t9 23h113q1 -3 9.5 -24.5t18.5 -45.5t12 -30zM727 0h-206l9 70h-308v-70h-175l-12 200q29 2 50.5 8.5t31 14.5t15 15.5t6.5 12.5v5l74 340h286q102 -353 116 -369q10 -11 71 -11l32 1zM311 249h110l-45 194
h-28z" />
    <glyph glyph-name="Atilde" unicode="&#xc3;" horiz-adv-x="762" 
d="M155 655v23q0 53 27.5 78.5t75.5 25.5h9q28 0 69 -19.5t51 -20.5q24 1 24 40l122 -7q4 -16 4 -46q0 -47 -32 -67t-77 -20q-23 0 -65.5 16t-66.5 16q-16 0 -26.5 -8t-13.5 -16l-2 -7zM727 0h-206l9 70h-308v-70h-175l-12 200q29 2 50.5 8.5t31 14.5t15 15.5t6.5 12.5v5
l74 340h286q102 -353 116 -369q10 -11 71 -11l32 1zM311 249h110l-45 194h-28z" />
    <glyph glyph-name="Adieresis" unicode="&#xc4;" horiz-adv-x="762" 
d="M195 712q0 26 18 44.5t44 18.5t44.5 -18.5t18.5 -44.5t-18.5 -44t-44.5 -18t-44 18t-18 44zM402 692q0 19 13 32.5t32 13.5t32.5 -13.5t13.5 -32.5t-13.5 -32t-32.5 -13t-32 13t-13 32zM727 0h-206l9 70h-308v-70h-175l-12 200q29 2 50.5 8.5t31 14.5t15 15.5t6.5 12.5v5
l74 340h286q102 -353 116 -369q10 -11 71 -11l32 1zM311 249h110l-45 194h-28z" />
    <glyph glyph-name="Aring" unicode="&#xc5;" horiz-adv-x="762" 
d="M265 722q0 34 24.5 59t59.5 25t59.5 -25t24.5 -59t-24.5 -59t-59.5 -25t-59.5 25t-24.5 59zM329 725q0 -9 6 -15t15 -6t15.5 6t6.5 15t-6.5 15.5t-15.5 6.5t-15 -6.5t-6 -15.5zM727 0h-206l9 70h-308v-70h-175l-12 200q29 2 50.5 8.5t31 14.5t15 15.5t6.5 12.5v5l74 340
h286q102 -353 116 -369q10 -11 71 -11l32 1zM311 249h110l-45 194h-28z" />
    <glyph glyph-name="AE" unicode="&#xc6;" horiz-adv-x="1216" 
d="M904 434v-74l207 8l-6 -152h-201v-71h252l10 -145h-630l9 70h-308v-70h-175l-12 200q29 2 50.5 8.5t31 14.5t15 15.5t5.5 12.5l1 5l74 340h286q102 -353 116 -369q8 -9 51 -11l-13 379h477v-161h-240zM326 249h110l-45 194h-28z" />
    <glyph glyph-name="Ccedilla" unicode="&#xc7;" horiz-adv-x="625" 
d="M575 579v-236h-89.5t-58 0.5t-31 1t-17 0.5h-8.5q-26 0 -48 -4.5t-43 -21t-21 -44.5q0 -23 8 -38t24 -21t29.5 -7.5t34.5 -1.5q44 0 99 4.5t88 8.5l33 5v-212q-71 -15 -160 -15q-7 0 -19 0.5t-19 0.5l-2 -6q31 0 51.5 -9.5t28 -24t10 -23.5t2.5 -17q0 -39 -22.5 -63
t-47.5 -30t-56 -6l-44 3v96q20 -5 45 -5q43 0 43 26q0 31 -53 31l-23 -2v37q-259 42 -259 277q0 76 23 133.5t58.5 90.5t85.5 54t96.5 28t98.5 7q75 0 163 -17z" />
    <glyph glyph-name="Egrave" unicode="&#xc8;" horiz-adv-x="569" 
d="M272 434v-74l207 8l-6 -152h-201v-71h252l10 -142h-478l-21 592h477v-161h-240zM327 648q-7 -1 -31 -1h-50l-72 102h112q35 -84 41 -101z" />
    <glyph glyph-name="Eacute" unicode="&#xc9;" horiz-adv-x="569" 
d="M272 434v-74l207 8l-6 -152h-201v-71h252l10 -142h-478l-21 592h477v-161h-240zM212 649l41 101h112l-72 -102q-74 0 -81 1z" />
    <glyph glyph-name="Ecircumflex" unicode="&#xca;" horiz-adv-x="569" 
d="M272 434v-74l207 8l-6 -152h-201v-71h252l10 -142h-478l-21 592h477v-161h-240zM382 645h-81l-32 84l-29 -85q-75 0 -83 1q3 8 14.5 36.5t21.5 53.5t10 27h132q1 -2 22 -54t25 -63z" />
    <glyph glyph-name="Edieresis" unicode="&#xcb;" horiz-adv-x="569" 
d="M272 434v-74l207 8l-6 -152h-201v-71h252l10 -142h-478l-21 592h477v-161h-240zM137 694q0 23 15.5 38.5t37.5 15.5t37.5 -16t15.5 -38t-15.5 -37t-37.5 -15t-37.5 15t-15.5 37zM312 678q0 16 10.5 27t25.5 11q16 0 27.5 -11t11.5 -27t-11 -27t-28 -11q-15 0 -25.5 11
t-10.5 27z" />
    <glyph glyph-name="Igrave" unicode="&#xcc;" horiz-adv-x="314" 
d="M63 0l-21 503h231v-503h-210zM210 566q-10 -1 -115 -1l-102 145h159q50 -120 58 -144z" />
    <glyph glyph-name="Iacute" unicode="&#xcd;" horiz-adv-x="314" 
d="M63 0l-21 503h231v-503h-210zM83 566l58 144h159l-102 -145q-105 0 -115 1z" />
    <glyph glyph-name="Icircumflex" unicode="&#xce;" horiz-adv-x="314" 
d="M63 0l-21 503h231v-503h-210zM284 559h-95l-38 99l-34 -100q-88 0 -97 1q3 8 12 30.5t18 44.5t17 42l8 20h154q2 -5 26.5 -65.5t28.5 -71.5z" />
    <glyph glyph-name="Idieresis" unicode="&#xcf;" horiz-adv-x="314" 
d="M63 0l-21 503h231v-503h-210zM-11 648q0 35 23 58.5t57 23.5q35 0 58.5 -24t23.5 -58t-23.5 -57t-58.5 -23q-34 0 -57 23t-23 57zM196 623q0 25 17 41.5t40 16.5q24 0 42 -17t18 -41t-18 -41.5t-42 -17.5q-23 0 -40 17t-17 42z" />
    <glyph glyph-name="Eth" unicode="&#xd0;" horiz-adv-x="635" 
d="M16 252v109h42v210q69 22 177 22q51 0 97 -6.5t95 -25t84.5 -47.5t60 -79t28.5 -115v-19q0 -76 -32 -133t-78 -88t-110 -50t-115 -24.5t-105 -5.5q-24 0 -47 1t-37 3l-13 1v247h-47zM244 178q15 0 32 3t45.5 12.5t47 35.5t18.5 65v12q-5 55 -35.5 77t-70.5 22
q-7 0 -14.5 -0.5t-13 -1.5t-10 -2t-6.5 -1l-2 -1v-38h47v-109h-42z" />
    <glyph glyph-name="Ntilde" unicode="&#xd1;" horiz-adv-x="622" 
d="M107 655v23q0 53 27.5 78.5t75.5 25.5h9q28 0 69 -19.5t51 -20.5q24 1 24 40l122 -7q4 -16 4 -46q0 -47 -32 -67t-77 -20q-23 0 -65.5 16t-66.5 16q-16 0 -26.5 -8t-13.5 -16l-2 -7zM35 588l180 8l149 -233v233h223v-584l-171 -11l-181 258l12 -249l-212 -9v587z" />
    <glyph glyph-name="Ograve" unicode="&#xd2;" 
d="M335 609q58 0 103.5 -14t74.5 -34t50 -52.5t31 -58.5t15.5 -64t6 -58t0.5 -50q0 -13 -1 -28t-7.5 -44t-17 -54.5t-32.5 -54t-51 -49.5t-75 -34.5t-102 -13.5q-141 0 -218 88t-77 229q0 27 3.5 54.5t21 73.5t47 79.5t89 59t139.5 25.5zM329 142q86 0 86 170
q0 23 -2.5 45.5t-10.5 51.5t-26.5 46.5t-45.5 17.5q-91 0 -91 -168q0 -10 0.5 -22.5t5.5 -40t13.5 -47.5t27 -36.5t43.5 -16.5zM388 651q-8 -1 -34 -1h-54l-77 110h121q37 -91 44 -109z" />
    <glyph glyph-name="Oacute" unicode="&#xd3;" 
d="M335 609q58 0 103.5 -14t74.5 -34t50 -52.5t31 -58.5t15.5 -64t6 -58t0.5 -50q0 -13 -1 -28t-7.5 -44t-17 -54.5t-32.5 -54t-51 -49.5t-75 -34.5t-102 -13.5q-141 0 -218 88t-77 229q0 27 3.5 54.5t21 73.5t47 79.5t89 59t139.5 25.5zM329 142q86 0 86 170
q0 23 -2.5 45.5t-10.5 51.5t-26.5 46.5t-45.5 17.5q-91 0 -91 -168q0 -10 0.5 -22.5t5.5 -40t13.5 -47.5t27 -36.5t43.5 -16.5zM277 646l41 101h112l-72 -102q-74 0 -81 1z" />
    <glyph glyph-name="Ocircumflex" unicode="&#xd4;" 
d="M335 609q58 0 103.5 -14t74.5 -34t50 -52.5t31 -58.5t15.5 -64t6 -58t0.5 -50q0 -13 -1 -28t-7.5 -44t-17 -54.5t-32.5 -54t-51 -49.5t-75 -34.5t-102 -13.5q-141 0 -218 88t-77 229q0 27 3.5 54.5t21 73.5t47 79.5t89 59t139.5 25.5zM329 142q86 0 86 170
q0 23 -2.5 45.5t-10.5 51.5t-26.5 46.5t-45.5 17.5q-91 0 -91 -168q0 -10 0.5 -22.5t5.5 -40t13.5 -47.5t27 -36.5t43.5 -16.5zM454 651h-91l-37 95l-32 -96q-85 0 -94 1q3 7 11.5 29t17 43t16.5 40t8 20h148q2 -5 25.5 -63.5t27.5 -68.5z" />
    <glyph glyph-name="Otilde" unicode="&#xd5;" 
d="M128 655v23q0 53 27.5 78.5t75.5 25.5h9q28 0 69 -19.5t51 -20.5q24 1 24 40l122 -7q4 -16 4 -46q0 -47 -32 -67t-77 -20q-23 0 -65.5 16t-66.5 16q-16 0 -26.5 -8t-12.5 -16l-3 -7zM335 609q58 0 103.5 -14t74.5 -34t50 -52.5t31 -58.5t15.5 -64t6 -58t0.5 -50
q0 -13 -1 -28t-7.5 -44t-17 -54.5t-32.5 -54t-51 -49.5t-75 -34.5t-102 -13.5q-141 0 -218 88t-77 229q0 27 3.5 54.5t21 73.5t47 79.5t89 59t139.5 25.5zM329 142q86 0 86 170q0 23 -2.5 45.5t-10.5 51.5t-26.5 46.5t-45.5 17.5q-91 0 -91 -168q0 -10 0.5 -22.5t5.5 -40
t13.5 -47.5t27 -36.5t43.5 -16.5z" />
    <glyph glyph-name="Odieresis" unicode="&#xd6;" 
d="M335 609q58 0 103.5 -14t74.5 -34t50 -52.5t31 -58.5t15.5 -64t6 -58t0.5 -50q0 -13 -1 -28t-7.5 -44t-17 -54.5t-32.5 -54t-51 -49.5t-75 -34.5t-102 -13.5q-141 0 -218 88t-77 229q0 27 3.5 54.5t21 73.5t47 79.5t89 59t139.5 25.5zM329 142q86 0 86 170
q0 23 -2.5 45.5t-10.5 51.5t-26.5 46.5t-45.5 17.5q-91 0 -91 -168q0 -10 0.5 -22.5t5.5 -40t13.5 -47.5t27 -36.5t43.5 -16.5zM148 714q0 29 20 49.5t48 20.5q29 0 49.5 -20.5t20.5 -49.5t-20.5 -48.5t-49.5 -19.5t-48.5 19.5t-19.5 48.5zM376 693q0 20 14 34.5t34 14.5
q21 0 36 -14.5t15 -34.5q0 -21 -15 -35.5t-36 -14.5q-20 0 -34 14.5t-14 35.5z" />
    <glyph glyph-name="Oslash" unicode="&#xd8;" 
d="M335 609q25 0 46 -3l44 110q0 2 14 2q11 0 41.5 -1.5t40.5 -1.5q12 0 12 1t-7 -15.5t-20 -49t-29 -70.5q39 -18 67 -49.5t41.5 -61.5t21 -71.5t8.5 -64.5t1 -56q0 -13 -1 -28t-7.5 -44t-17 -54.5t-32.5 -54t-51 -49.5t-75 -34.5t-102 -13.5q-50 0 -87 10l-28 -69l-102 5
q17 42 42 104q-120 82 -120 267q0 27 3.5 54.5t21 73.5t47 79.5t89 59t139.5 25.5zM329 142q86 0 86 170q0 51 -11 91q-53 -126 -105 -255q13 -6 30 -6zM242 262l85 211q-88 -2 -88 -168q0 -21 3 -43z" />
    <glyph glyph-name="Ugrave" unicode="&#xd9;" horiz-adv-x="648" 
d="M35 581q-10 -62 -10 -145q0 -59 6.5 -112.5t26.5 -115t52.5 -105.5t89.5 -73.5t133 -29.5q67 0 118 23.5t81 60t49 88t25.5 100t6.5 104.5q0 53 -5.5 108t-11.5 84l-6 28l-201 -15l-9 -1q16 -120 16 -179q0 -167 -74 -167q-75 0 -75 176q0 39 3.5 81.5t7.5 66.5l3 23
h-226zM375 628q-8 -2 -36 -2h-59l-85 120h132q41 -98 48 -118z" />
    <glyph glyph-name="Uacute" unicode="&#xda;" horiz-adv-x="648" 
d="M35 581q-10 -62 -10 -145q0 -59 6.5 -112.5t26.5 -115t52.5 -105.5t89.5 -73.5t133 -29.5q67 0 118 23.5t81 60t49 88t25.5 100t6.5 104.5q0 53 -5.5 108t-11.5 84l-6 28l-201 -15l-9 -1q16 -120 16 -179q0 -167 -74 -167q-75 0 -75 176q0 39 3.5 81.5t7.5 66.5l3 23
h-226zM259 639l55 133h148l-95 -135q-98 0 -108 2z" />
    <glyph glyph-name="Ucircumflex" unicode="&#xdb;" horiz-adv-x="648" 
d="M35 581q-10 -62 -10 -145q0 -59 6.5 -112.5t26.5 -115t52.5 -105.5t89.5 -73.5t133 -29.5q67 0 118 23.5t81 60t49 88t25.5 100t6.5 104.5q0 53 -5.5 108t-11.5 84l-6 28l-201 -15l-9 -1q16 -120 16 -179q0 -167 -74 -167q-75 0 -75 176q0 39 3.5 81.5t7.5 66.5l3 23
h-226zM417 650h-69l-28 72l-25 -73q-64 0 -71 1q2 7 12 31.5t19 45.5t9 23h113q1 -3 9.5 -24.5t18.5 -45.5t12 -30z" />
    <glyph glyph-name="Udieresis" unicode="&#xdc;" horiz-adv-x="648" 
d="M185 697q0 26 17.5 44t43.5 18t44 -18t18 -44q0 -25 -18 -42.5t-44 -17.5t-43.5 17t-17.5 43zM352 678q0 19 12.5 31.5t29.5 12.5q19 0 32.5 -12.5t13.5 -31.5t-13.5 -31.5t-32.5 -12.5q-17 0 -29.5 12.5t-12.5 31.5zM35 581q-10 -62 -10 -145q0 -59 6.5 -112.5
t26.5 -115t52.5 -105.5t89.5 -73.5t133 -29.5q67 0 118 23.5t81 60t49 88t25.5 100t6.5 104.5q0 53 -5.5 108t-11.5 84l-6 28l-201 -15l-9 -1q16 -120 16 -179q0 -167 -74 -167q-75 0 -75 176q0 39 3.5 81.5t7.5 66.5l3 23h-226z" />
    <glyph glyph-name="Yacute" unicode="&#xdd;" horiz-adv-x="686" 
d="M620 596q16 -99 16 -146q0 -256 -178 -315v-136h-229v136q-179 58 -179 315q0 62 15 146h213q0 -73 -0.5 -115t-1 -55t-0.5 -14q0 -38 13.5 -69t49.5 -31h6q36 0 50 31t14 69q0 1 -0.5 14t-1 55t-0.5 115h213zM300 649l41 101h112l-72 -102q-74 0 -81 1z" />
    <glyph glyph-name="germandbls" unicode="&#xdf;" horiz-adv-x="633" 
d="M443 318q15 0 32.5 -4t45 -16.5t45 -45.5t17.5 -82q0 -167 -267 -170l-10 102q41 0 73.5 17.5t32.5 60.5q0 39 -14.5 52.5t-46.5 13.5h-21l-7 96q24 3 36.5 17t12.5 47v7q-5 49 -57 49q-18 0 -38.5 -5t-21.5 -5q2 0 6 -61t8 -142.5t4 -127.5v-16q0 -18 -1 -53.5t-1 -51.5
q-42 2 -93 8.5t-82 11.5l-30 6q-10 425 -16 517q7 6 21.5 15t69 24t122.5 15q125 0 196.5 -33t71.5 -115q0 -43 -24 -87t-64 -44z" />
    <glyph glyph-name="agrave" unicode="&#xe0;" horiz-adv-x="762" 
d="M195 712q0 26 18 44.5t44 18.5t44.5 -18.5t18.5 -44.5t-18.5 -44t-44.5 -18t-44 18t-18 44zM402 692q0 19 13 32.5t32 13.5t32.5 -13.5t13.5 -32.5t-13.5 -32t-32.5 -13t-32 13t-13 32zM727 0h-206l9 70h-308v-70h-175l-12 200q29 2 50.5 8.5t31 14.5t15 15.5t6.5 12.5v5
l74 340h286q102 -353 116 -369q10 -11 71 -11l32 1zM311 249h110l-45 194h-28z" />
    <glyph glyph-name="aacute" unicode="&#xe1;" horiz-adv-x="762" 
d="M298 648l41 101h112l-72 -102q-74 0 -81 1zM727 0h-206l9 70h-308v-70h-175l-12 200q29 2 50.5 8.5t31 14.5t15 15.5t6.5 12.5v5l74 340h286q102 -353 116 -369q10 -11 71 -11l32 1zM311 249h110l-45 194h-28z" />
    <glyph glyph-name="acircumflex" unicode="&#xe2;" horiz-adv-x="762" 
d="M455 648h-69l-28 72l-25 -73q-64 0 -71 1q2 7 12 31.5t19 45.5t9 23h113q1 -3 9.5 -24.5t18.5 -45.5t12 -30zM727 0h-206l9 70h-308v-70h-175l-12 200q29 2 50.5 8.5t31 14.5t15 15.5t6.5 12.5v5l74 340h286q102 -353 116 -369q10 -11 71 -11l32 1zM311 249h110l-45 194
h-28z" />
    <glyph glyph-name="atilde" unicode="&#xe3;" horiz-adv-x="762" 
d="M155 655v23q0 53 27.5 78.5t75.5 25.5h9q28 0 69 -19.5t51 -20.5q24 1 24 40l122 -7q4 -16 4 -46q0 -47 -32 -67t-77 -20q-23 0 -65.5 16t-66.5 16q-16 0 -26.5 -8t-13.5 -16l-2 -7zM727 0h-206l9 70h-308v-70h-175l-12 200q29 2 50.5 8.5t31 14.5t15 15.5t6.5 12.5v5
l74 340h286q102 -353 116 -369q10 -11 71 -11l32 1zM311 249h110l-45 194h-28z" />
    <glyph glyph-name="adieresis" unicode="&#xe4;" horiz-adv-x="762" 
d="M401 649q-7 -1 -31 -1h-50l-72 102h112q35 -84 41 -101zM727 0h-206l9 70h-308v-70h-175l-12 200q29 2 50.5 8.5t31 14.5t15 15.5t6.5 12.5v5l74 340h286q102 -353 116 -369q10 -11 71 -11l32 1zM311 249h110l-45 194h-28z" />
    <glyph glyph-name="aring" unicode="&#xe5;" horiz-adv-x="762" 
d="M265 722q0 34 24.5 59t59.5 25t59.5 -25t24.5 -59t-24.5 -59t-59.5 -25t-59.5 25t-24.5 59zM329 725q0 -9 6 -15t15 -6t15.5 6t6.5 15t-6.5 15.5t-15.5 6.5t-15 -6.5t-6 -15.5zM727 0h-206l9 70h-308v-70h-175l-12 200q29 2 50.5 8.5t31 14.5t15 15.5t6.5 12.5v5l74 340
h286q102 -353 116 -369q10 -11 71 -11l32 1zM311 249h110l-45 194h-28z" />
    <glyph glyph-name="ae" unicode="&#xe6;" horiz-adv-x="1216" 
d="M904 434v-74l207 8l-6 -152h-201v-71h252l10 -145h-630l9 70h-308v-70h-175l-12 200q29 2 50.5 8.5t31 14.5t15 15.5t5.5 12.5l1 5l74 340h286q102 -353 116 -369q8 -9 51 -11l-13 379h477v-161h-240zM326 249h110l-45 194h-28z" />
    <glyph glyph-name="ccedilla" unicode="&#xe7;" horiz-adv-x="625" 
d="M575 579v-236h-89.5t-58 0.5t-31 1t-17 0.5h-8.5q-26 0 -48 -4.5t-43 -21t-21 -44.5q0 -23 8 -38t24 -21t29.5 -7.5t34.5 -1.5q44 0 99 4.5t88 8.5l33 5v-212q-71 -15 -160 -15q-7 0 -19 0.5t-19 0.5l-2 -6q31 0 51.5 -9.5t28 -24t10 -23.5t2.5 -17q0 -39 -22.5 -63
t-47.5 -30t-56 -6l-44 3v96q20 -5 45 -5q43 0 43 26q0 31 -53 31l-23 -2v37q-259 42 -259 277q0 76 23 133.5t58.5 90.5t85.5 54t96.5 28t98.5 7q75 0 163 -17z" />
    <glyph glyph-name="egrave" unicode="&#xe8;" horiz-adv-x="569" 
d="M272 434v-74l207 8l-6 -152h-201v-71h252l10 -142h-478l-21 592h477v-161h-240zM327 648q-7 -1 -31 -1h-50l-72 102h112q35 -84 41 -101z" />
    <glyph glyph-name="eacute" unicode="&#xe9;" horiz-adv-x="569" 
d="M272 434v-74l207 8l-6 -152h-201v-71h252l10 -142h-478l-21 592h477v-161h-240zM212 649l41 101h112l-72 -102q-74 0 -81 1z" />
    <glyph glyph-name="ecircumflex" unicode="&#xea;" horiz-adv-x="569" 
d="M272 434v-74l207 8l-6 -152h-201v-71h252l10 -142h-478l-21 592h477v-161h-240zM382 645h-81l-32 84l-29 -85q-75 0 -83 1q3 8 14.5 36.5t21.5 53.5t10 27h132q1 -2 22 -54t25 -63z" />
    <glyph glyph-name="edieresis" unicode="&#xeb;" horiz-adv-x="569" 
d="M272 434v-74l207 8l-6 -152h-201v-71h252l10 -142h-478l-21 592h477v-161h-240zM137 694q0 23 15.5 38.5t37.5 15.5t37.5 -16t15.5 -38t-15.5 -37t-37.5 -15t-37.5 15t-15.5 37zM312 678q0 16 10.5 27t25.5 11q16 0 27.5 -11t11.5 -27t-11 -27t-28 -11q-15 0 -25.5 11
t-10.5 27z" />
    <glyph glyph-name="igrave" unicode="&#xec;" horiz-adv-x="314" 
d="M63 0l-21 503h231v-503h-210zM210 566q-10 -1 -115 -1l-102 145h159q50 -120 58 -144z" />
    <glyph glyph-name="iacute" unicode="&#xed;" horiz-adv-x="314" 
d="M63 0l-21 503h231v-503h-210zM83 566l58 144h159l-102 -145q-105 0 -115 1z" />
    <glyph glyph-name="icircumflex" unicode="&#xee;" horiz-adv-x="314" 
d="M63 0l-21 503h231v-503h-210zM284 559h-95l-38 99l-34 -100q-88 0 -97 1q3 8 12 30.5t18 44.5t17 42l8 20h154q2 -5 26.5 -65.5t28.5 -71.5z" />
    <glyph glyph-name="idieresis" unicode="&#xef;" horiz-adv-x="314" 
d="M63 0l-21 503h231v-503h-210zM-11 648q0 35 23 58.5t57 23.5q35 0 58.5 -24t23.5 -58t-23.5 -57t-58.5 -23q-34 0 -57 23t-23 57zM196 623q0 25 17 41.5t40 16.5q24 0 42 -17t18 -41t-18 -41.5t-42 -17.5q-23 0 -40 17t-17 42z" />
    <glyph glyph-name="ntilde" unicode="&#xf1;" horiz-adv-x="622" 
d="M107 655v23q0 53 27.5 78.5t75.5 25.5h9q28 0 69 -19.5t51 -20.5q24 1 24 40l122 -7q4 -16 4 -46q0 -47 -32 -67t-77 -20q-23 0 -65.5 16t-66.5 16q-16 0 -26.5 -8t-13.5 -16l-2 -7zM35 588l180 8l149 -233v233h223v-584l-171 -11l-181 258l12 -249l-212 -9v587z" />
    <glyph glyph-name="ograve" unicode="&#xf2;" 
d="M335 609q58 0 103.5 -14t74.5 -34t50 -52.5t31 -58.5t15.5 -64t6 -58t0.5 -50q0 -13 -1 -28t-7.5 -44t-17 -54.5t-32.5 -54t-51 -49.5t-75 -34.5t-102 -13.5q-141 0 -218 88t-77 229q0 27 3.5 54.5t21 73.5t47 79.5t89 59t139.5 25.5zM329 142q86 0 86 170
q0 23 -2.5 45.5t-10.5 51.5t-26.5 46.5t-45.5 17.5q-91 0 -91 -168q0 -10 0.5 -22.5t5.5 -40t13.5 -47.5t27 -36.5t43.5 -16.5zM388 651q-8 -1 -34 -1h-54l-77 110h121q37 -91 44 -109z" />
    <glyph glyph-name="oacute" unicode="&#xf3;" 
d="M335 609q58 0 103.5 -14t74.5 -34t50 -52.5t31 -58.5t15.5 -64t6 -58t0.5 -50q0 -13 -1 -28t-7.5 -44t-17 -54.5t-32.5 -54t-51 -49.5t-75 -34.5t-102 -13.5q-141 0 -218 88t-77 229q0 27 3.5 54.5t21 73.5t47 79.5t89 59t139.5 25.5zM329 142q86 0 86 170
q0 23 -2.5 45.5t-10.5 51.5t-26.5 46.5t-45.5 17.5q-91 0 -91 -168q0 -10 0.5 -22.5t5.5 -40t13.5 -47.5t27 -36.5t43.5 -16.5zM277 646l41 101h112l-72 -102q-74 0 -81 1z" />
    <glyph glyph-name="ocircumflex" unicode="&#xf4;" 
d="M335 609q58 0 103.5 -14t74.5 -34t50 -52.5t31 -58.5t15.5 -64t6 -58t0.5 -50q0 -13 -1 -28t-7.5 -44t-17 -54.5t-32.5 -54t-51 -49.5t-75 -34.5t-102 -13.5q-141 0 -218 88t-77 229q0 27 3.5 54.5t21 73.5t47 79.5t89 59t139.5 25.5zM329 142q86 0 86 170
q0 23 -2.5 45.5t-10.5 51.5t-26.5 46.5t-45.5 17.5q-91 0 -91 -168q0 -10 0.5 -22.5t5.5 -40t13.5 -47.5t27 -36.5t43.5 -16.5zM454 651h-91l-37 95l-32 -96q-85 0 -94 1q3 7 11.5 29t17 43t16.5 40t8 20h148q2 -5 25.5 -63.5t27.5 -68.5z" />
    <glyph glyph-name="otilde" unicode="&#xf5;" 
d="M128 655v23q0 53 27.5 78.5t75.5 25.5h9q28 0 69 -19.5t51 -20.5q24 1 24 40l122 -7q4 -16 4 -46q0 -47 -32 -67t-77 -20q-23 0 -65.5 16t-66.5 16q-16 0 -26.5 -8t-12.5 -16l-3 -7zM335 609q58 0 103.5 -14t74.5 -34t50 -52.5t31 -58.5t15.5 -64t6 -58t0.5 -50
q0 -13 -1 -28t-7.5 -44t-17 -54.5t-32.5 -54t-51 -49.5t-75 -34.5t-102 -13.5q-141 0 -218 88t-77 229q0 27 3.5 54.5t21 73.5t47 79.5t89 59t139.5 25.5zM329 142q86 0 86 170q0 23 -2.5 45.5t-10.5 51.5t-26.5 46.5t-45.5 17.5q-91 0 -91 -168q0 -10 0.5 -22.5t5.5 -40
t13.5 -47.5t27 -36.5t43.5 -16.5z" />
    <glyph glyph-name="odieresis" unicode="&#xf6;" 
d="M335 609q58 0 103.5 -14t74.5 -34t50 -52.5t31 -58.5t15.5 -64t6 -58t0.5 -50q0 -13 -1 -28t-7.5 -44t-17 -54.5t-32.5 -54t-51 -49.5t-75 -34.5t-102 -13.5q-141 0 -218 88t-77 229q0 27 3.5 54.5t21 73.5t47 79.5t89 59t139.5 25.5zM329 142q86 0 86 170
q0 23 -2.5 45.5t-10.5 51.5t-26.5 46.5t-45.5 17.5q-91 0 -91 -168q0 -10 0.5 -22.5t5.5 -40t13.5 -47.5t27 -36.5t43.5 -16.5zM148 714q0 29 20 49.5t48 20.5q29 0 49.5 -20.5t20.5 -49.5t-20.5 -48.5t-49.5 -19.5t-48.5 19.5t-19.5 48.5zM376 693q0 20 14 34.5t34 14.5
q21 0 36 -14.5t15 -34.5q0 -21 -15 -35.5t-36 -14.5q-20 0 -34 14.5t-14 35.5z" />
    <glyph glyph-name="divide" unicode="&#xf7;" horiz-adv-x="504" 
d="M50 221v150h404v-150h-404zM181 129q0 29 20 49.5t49 20.5t49.5 -20.5t20.5 -49.5t-20.5 -49t-49.5 -20t-49 20t-20 49zM183 464q0 26 18.5 45t44.5 19t45 -19t19 -45t-19 -44.5t-45 -18.5t-44.5 18.5t-18.5 44.5z" />
    <glyph glyph-name="oslash" unicode="&#xf8;" 
d="M335 609q25 0 46 -3l44 110q0 2 14 2q11 0 41.5 -1.5t40.5 -1.5q12 0 12 1t-7 -15.5t-20 -49t-29 -70.5q39 -18 67 -49.5t41.5 -61.5t21 -71.5t8.5 -64.5t1 -56q0 -13 -1 -28t-7.5 -44t-17 -54.5t-32.5 -54t-51 -49.5t-75 -34.5t-102 -13.5q-50 0 -87 10l-28 -69l-102 5
q17 42 42 104q-120 82 -120 267q0 27 3.5 54.5t21 73.5t47 79.5t89 59t139.5 25.5zM329 142q86 0 86 170q0 51 -11 91q-53 -126 -105 -255q13 -6 30 -6zM242 262l85 211q-88 -2 -88 -168q0 -21 3 -43z" />
    <glyph glyph-name="ugrave" unicode="&#xf9;" horiz-adv-x="648" 
d="M35 581q-10 -62 -10 -145q0 -59 6.5 -112.5t26.5 -115t52.5 -105.5t89.5 -73.5t133 -29.5q67 0 118 23.5t81 60t49 88t25.5 100t6.5 104.5q0 53 -5.5 108t-11.5 84l-6 28l-201 -15l-9 -1q16 -120 16 -179q0 -167 -74 -167q-75 0 -75 176q0 39 3.5 81.5t7.5 66.5l3 23
h-226zM181 663l41 101h109l-46 -102q-97 0 -104 1zM354 663l41 101h112l-72 -102q-74 0 -81 1z" />
    <glyph glyph-name="uacute" unicode="&#xfa;" horiz-adv-x="648" 
d="M35 581q-10 -62 -10 -145q0 -59 6.5 -112.5t26.5 -115t52.5 -105.5t89.5 -73.5t133 -29.5q67 0 118 23.5t81 60t49 88t25.5 100t6.5 104.5q0 53 -5.5 108t-11.5 84l-6 28l-201 -15l-9 -1q16 -120 16 -179q0 -167 -74 -167q-75 0 -75 176q0 39 3.5 81.5t7.5 66.5l3 23
h-226zM259 639l55 133h148l-95 -135q-98 0 -108 2z" />
    <glyph glyph-name="ucircumflex" unicode="&#xfb;" horiz-adv-x="648" 
d="M35 581q-10 -62 -10 -145q0 -59 6.5 -112.5t26.5 -115t52.5 -105.5t89.5 -73.5t133 -29.5q67 0 118 23.5t81 60t49 88t25.5 100t6.5 104.5q0 53 -5.5 108t-11.5 84l-6 28l-201 -15l-9 -1q16 -120 16 -179q0 -167 -74 -167q-75 0 -75 176q0 39 3.5 81.5t7.5 66.5l3 23
h-226zM417 650h-69l-28 72l-25 -73q-64 0 -71 1q2 7 12 31.5t19 45.5t9 23h113q1 -3 9.5 -24.5t18.5 -45.5t12 -30z" />
    <glyph glyph-name="udieresis" unicode="&#xfc;" horiz-adv-x="648" 
d="M185 697q0 26 17.5 44t43.5 18t44 -18t18 -44q0 -25 -18 -42.5t-44 -17.5t-43.5 17t-17.5 43zM352 678q0 19 12.5 31.5t29.5 12.5q19 0 32.5 -12.5t13.5 -31.5t-13.5 -31.5t-32.5 -12.5q-17 0 -29.5 12.5t-12.5 31.5zM35 581q-10 -62 -10 -145q0 -59 6.5 -112.5
t26.5 -115t52.5 -105.5t89.5 -73.5t133 -29.5q67 0 118 23.5t81 60t49 88t25.5 100t6.5 104.5q0 53 -5.5 108t-11.5 84l-6 28l-201 -15l-9 -1q16 -120 16 -179q0 -167 -74 -167q-75 0 -75 176q0 39 3.5 81.5t7.5 66.5l3 23h-226z" />
    <glyph glyph-name="yacute" unicode="&#xfd;" horiz-adv-x="686" 
d="M620 596q16 -99 16 -146q0 -256 -178 -315v-136h-229v136q-179 58 -179 315q0 62 15 146h213q0 -73 -0.5 -115t-1 -55t-0.5 -14q0 -38 13.5 -69t49.5 -31h6q36 0 50 31t14 69q0 1 -0.5 14t-1 55t-0.5 115h213zM300 649l41 101h112l-72 -102q-74 0 -81 1z" />
    <glyph glyph-name="ydieresis" unicode="&#xff;" horiz-adv-x="686" 
d="M620 596q16 -99 16 -146q0 -256 -178 -315v-136h-229v136q-179 58 -179 315q0 62 15 146h213q0 -73 -0.5 -115t-1 -55t-0.5 -14q0 -38 13.5 -69t49.5 -31h6q36 0 50 31t14 69q0 1 -0.5 14t-1 55t-0.5 115h213zM237 697q0 19 12.5 32t31.5 13t32 -13t13 -32t-13 -31.5
t-32 -12.5t-31.5 12.5t-12.5 31.5zM384 683q0 13 9 22.5t22 9.5q14 0 23.5 -9.5t9.5 -22.5t-9.5 -22.5t-23.5 -9.5q-13 0 -22 9.5t-9 22.5z" />
    <glyph glyph-name="Amacron" unicode="&#x100;" horiz-adv-x="792" 
d="M174 653v102h368l4 -102h-372zM742 0h-206l9 70h-308v-70h-175l-12 200q29 2 50.5 8.5t31 14.5t15 15.5t5.5 12.5l1 5l74 340h286q102 -353 116 -369q10 -11 71 -11l32 1zM326 249h110l-45 194h-28z" />
    <glyph glyph-name="amacron" unicode="&#x101;" horiz-adv-x="792" 
d="M174 653v102h368l4 -102h-372zM742 0h-206l9 70h-308v-70h-175l-12 200q29 2 50.5 8.5t31 14.5t15 15.5t5.5 12.5l1 5l74 340h286q102 -353 116 -369q10 -11 71 -11l32 1zM326 249h110l-45 194h-28z" />
    <glyph glyph-name="Abreve" unicode="&#x102;" horiz-adv-x="762" 
d="M268 731l64 1q1 -10 7 -21.5t14 -11.5q7 0 14 11.5t8 20.5h61q0 -35 -25 -59.5t-59 -24.5t-59 24.5t-25 59.5zM727 0h-206l9 70h-308v-70h-175l-12 200q29 2 50.5 8.5t31 14.5t15 15.5t6.5 12.5v5l74 340h286q102 -353 116 -369q10 -11 71 -11l32 1zM311 249h110l-45 194
h-28z" />
    <glyph glyph-name="abreve" unicode="&#x103;" horiz-adv-x="762" 
d="M268 731l64 1q1 -10 7 -21.5t14 -11.5q7 0 14 11.5t8 20.5h61q0 -35 -25 -59.5t-59 -24.5t-59 24.5t-25 59.5zM727 0h-206l9 70h-308v-70h-175l-12 200q29 2 50.5 8.5t31 14.5t15 15.5t6.5 12.5v5l74 340h286q102 -353 116 -369q10 -11 71 -11l32 1zM311 249h110l-45 194
h-28z" />
    <glyph glyph-name="Aogonek" unicode="&#x104;" horiz-adv-x="762" 
d="M311 249h110l-45 194h-28zM727 0h-57v-48q-10 2 -23 2q-53 0 -53 -31q0 -26 43 -26q25 0 45 5v-96q-18 -3 -44 -3q-31 0 -56 6t-47.5 30t-22.5 63q0 8 2.5 17t10 23.5t28 24t51.5 9.5l-8 24h-75l9 70h-308v-70h-175l-12 200q29 2 50.5 8.5t31 14.5t15 15.5t6.5 12.5v5
l74 340h286q102 -353 116 -369q10 -11 71 -11l32 1z" />
    <glyph glyph-name="aogonek" unicode="&#x105;" horiz-adv-x="762" 
d="M311 249h110l-45 194h-28zM727 0h-57v-48q-10 2 -23 2q-53 0 -53 -31q0 -26 43 -26q25 0 45 5v-96q-18 -3 -44 -3q-31 0 -56 6t-47.5 30t-22.5 63q0 8 2.5 17t10 23.5t28 24t51.5 9.5l-8 24h-75l9 70h-308v-70h-175l-12 200q29 2 50.5 8.5t31 14.5t15 15.5t6.5 12.5v5
l74 340h286q102 -353 116 -369q10 -11 71 -11l32 1z" />
    <glyph glyph-name="Cacute" unicode="&#x106;" horiz-adv-x="625" 
d="M575 579q-88 17 -163 17q-52 0 -98.5 -7t-96.5 -28t-85.5 -54t-58.5 -90.5t-23 -133.5q0 -69 23.5 -121.5t60 -83t87 -49t97 -25t97.5 -6.5q40 0 80 3.5t60 7.5l20 4v212q-121 -18 -220 -18q-21 0 -34.5 1.5t-29.5 7.5t-24 21t-8 38q0 28 21 44.5t43 21t48 4.5
q1 0 15 -0.5t61 -1t128 -0.5v236zM323 644l41 101h112l-72 -102q-74 0 -81 1z" />
    <glyph glyph-name="cacute" unicode="&#x107;" horiz-adv-x="625" 
d="M575 579q-88 17 -163 17q-52 0 -98.5 -7t-96.5 -28t-85.5 -54t-58.5 -90.5t-23 -133.5q0 -69 23.5 -121.5t60 -83t87 -49t97 -25t97.5 -6.5q40 0 80 3.5t60 7.5l20 4v212q-121 -18 -220 -18q-21 0 -34.5 1.5t-29.5 7.5t-24 21t-8 38q0 28 21 44.5t43 21t48 4.5
q1 0 15 -0.5t61 -1t128 -0.5v236zM323 644l41 101h112l-72 -102q-74 0 -81 1z" />
    <glyph glyph-name="Ccircumflex" unicode="&#x108;" horiz-adv-x="625" 
d="M575 579q-88 17 -163 17q-52 0 -98.5 -7t-96.5 -28t-85.5 -54t-58.5 -90.5t-23 -133.5q0 -69 23.5 -121.5t60 -83t87 -49t97 -25t97.5 -6.5q40 0 80 3.5t60 7.5l20 4v212q-121 -18 -220 -18q-21 0 -34.5 1.5t-29.5 7.5t-24 21t-8 38q0 28 21 44.5t43 21t48 4.5
q1 0 15 -0.5t61 -1t128 -0.5v236zM484 637h-77l-31 81l-28 -82q-72 0 -80 1q3 7 14 34.5t21 51.5t10 26h126q1 -4 21 -53.5t24 -58.5z" />
    <glyph glyph-name="ccircumflex" unicode="&#x109;" horiz-adv-x="625" 
d="M575 579q-88 17 -163 17q-52 0 -98.5 -7t-96.5 -28t-85.5 -54t-58.5 -90.5t-23 -133.5q0 -69 23.5 -121.5t60 -83t87 -49t97 -25t97.5 -6.5q40 0 80 3.5t60 7.5l20 4v212q-121 -18 -220 -18q-21 0 -34.5 1.5t-29.5 7.5t-24 21t-8 38q0 28 21 44.5t43 21t48 4.5
q1 0 15 -0.5t61 -1t128 -0.5v236zM484 637h-77l-31 81l-28 -82q-72 0 -80 1q3 7 14 34.5t21 51.5t10 26h126q1 -4 21 -53.5t24 -58.5z" />
    <glyph glyph-name="Cdotaccent" unicode="&#x10a;" horiz-adv-x="625" 
d="M575 579q-88 17 -163 17q-52 0 -98.5 -7t-96.5 -28t-85.5 -54t-58.5 -90.5t-23 -133.5q0 -69 23.5 -121.5t60 -83t87 -49t97 -25t97.5 -6.5q40 0 80 3.5t60 7.5l20 4v212q-121 -18 -220 -18q-21 0 -34.5 1.5t-29.5 7.5t-24 21t-8 38q0 28 21 44.5t43 21t48 4.5
q1 0 15 -0.5t61 -1t128 -0.5v236zM324 696q0 22 16 38.5t39 16.5t39 -16.5t16 -38.5t-16 -38.5t-39 -16.5t-39 16.5t-16 38.5z" />
    <glyph glyph-name="cdotaccent" unicode="&#x10b;" horiz-adv-x="625" 
d="M575 579q-88 17 -163 17q-52 0 -98.5 -7t-96.5 -28t-85.5 -54t-58.5 -90.5t-23 -133.5q0 -69 23.5 -121.5t60 -83t87 -49t97 -25t97.5 -6.5q40 0 80 3.5t60 7.5l20 4v212q-121 -18 -220 -18q-21 0 -34.5 1.5t-29.5 7.5t-24 21t-8 38q0 28 21 44.5t43 21t48 4.5
q1 0 15 -0.5t61 -1t128 -0.5v236zM324 696q0 22 16 38.5t39 16.5t39 -16.5t16 -38.5t-16 -38.5t-39 -16.5t-39 16.5t-16 38.5z" />
    <glyph glyph-name="Ccaron" unicode="&#x10c;" horiz-adv-x="625" 
d="M575 579q-88 17 -163 17q-52 0 -98.5 -7t-96.5 -28t-85.5 -54t-58.5 -90.5t-23 -133.5q0 -69 23.5 -121.5t60 -83t87 -49t97 -25t97.5 -6.5q40 0 80 3.5t60 7.5l20 4v212q-121 -18 -220 -18q-21 0 -34.5 1.5t-29.5 7.5t-24 21t-8 38q0 28 21 44.5t43 21t48 4.5
q1 0 15 -0.5t61 -1t128 -0.5v236zM266 771h79l31 -82l29 83q73 0 81 -1q-3 -8 -14.5 -36t-21.5 -52t-10 -26h-129q-1 3 -10.5 27.5t-20.5 52t-14 34.5z" />
    <glyph glyph-name="ccaron" unicode="&#x10d;" horiz-adv-x="625" 
d="M575 579q-88 17 -163 17q-52 0 -98.5 -7t-96.5 -28t-85.5 -54t-58.5 -90.5t-23 -133.5q0 -69 23.5 -121.5t60 -83t87 -49t97 -25t97.5 -6.5q40 0 80 3.5t60 7.5l20 4v212q-121 -18 -220 -18q-21 0 -34.5 1.5t-29.5 7.5t-24 21t-8 38q0 28 21 44.5t43 21t48 4.5
q1 0 15 -0.5t61 -1t128 -0.5v236zM266 771h79l31 -82l29 83q73 0 81 -1q-3 -8 -14.5 -36t-21.5 -52t-10 -26h-129q-1 3 -10.5 27.5t-20.5 52t-14 34.5z" />
    <glyph glyph-name="Dcaron" unicode="&#x10e;" horiz-adv-x="625" 
d="M48 135l2 444q88 17 163 17q52 0 98.5 -7t96.5 -28t85.5 -54t58.5 -90.5t23 -133.5q0 -69 -23.5 -121.5t-60 -83t-87 -49t-97 -25t-97.5 -6.5q-25 0 -50.5 1.5t-44.5 3.5t-34.5 4.5t-24.5 4.5l-8 1v122zM233 200h8q17 0 32.5 2.5t37 11t35.5 29t16 51.5l1 10
q-2 84 -86 91h-7q-8 0 -17 -1t-15 -2l-5 -1v-191zM182 749h69l28 -72l25 73q64 0 71 -1q-2 -7 -12 -31.5t-19 -45.5t-9 -23h-113q-1 3 -9.5 24.5t-18.5 45.5t-12 30z" />
    <glyph glyph-name="dcaron" unicode="&#x10f;" horiz-adv-x="625" 
d="M48 135l2 444q88 17 163 17q52 0 98.5 -7t96.5 -28t85.5 -54t58.5 -90.5t23 -133.5q0 -69 -23.5 -121.5t-60 -83t-87 -49t-97 -25t-97.5 -6.5q-25 0 -50.5 1.5t-44.5 3.5t-34.5 4.5t-24.5 4.5l-8 1v122zM233 200h8q17 0 32.5 2.5t37 11t35.5 29t16 51.5l1 10
q-2 84 -86 91h-7q-8 0 -17 -1t-15 -2l-5 -1v-191zM182 749h69l28 -72l25 73q64 0 71 -1q-2 -7 -12 -31.5t-19 -45.5t-9 -23h-113q-1 3 -9.5 24.5t-18.5 45.5t-12 30z" />
    <glyph glyph-name="Dcroat" unicode="&#x110;" horiz-adv-x="640" 
d="M15 247v91h50v241q88 17 163 17q52 0 98.5 -7t96.5 -28t85.5 -54t58.5 -90.5t23 -133.5q0 -69 -23.5 -121.5t-60 -83t-87 -49t-97 -25t-97.5 -6.5q-25 0 -50.5 1.5t-44.5 3.5t-34.5 4.5t-23.5 4.5l-9 1v234h-48zM248 200h8q17 0 32.5 2.5t37 11t35.5 29t16 51.5l1 10
q-2 84 -86 91h-7q-8 0 -17 -1t-14 -2l-6 -1v-53h44v-91h-44v-47z" />
    <glyph glyph-name="dcroat" unicode="&#x111;" horiz-adv-x="640" 
d="M15 247v91h50v241q88 17 163 17q52 0 98.5 -7t96.5 -28t85.5 -54t58.5 -90.5t23 -133.5q0 -69 -23.5 -121.5t-60 -83t-87 -49t-97 -25t-97.5 -6.5q-25 0 -50.5 1.5t-44.5 3.5t-34.5 4.5t-23.5 4.5l-9 1v234h-48zM248 200h8q17 0 32.5 2.5t37 11t35.5 29t16 51.5l1 10
q-2 84 -86 91h-7q-8 0 -17 -1t-14 -2l-6 -1v-53h44v-91h-44v-47z" />
    <glyph glyph-name="Emacron" unicode="&#x112;" horiz-adv-x="569" 
d="M272 434v-74l207 8l-6 -152h-201v-71h252l10 -142h-478l-21 592h477v-161h-240zM72 653v102h368l4 -102h-372z" />
    <glyph glyph-name="emacron" unicode="&#x113;" horiz-adv-x="569" 
d="M272 434v-74l207 8l-6 -152h-201v-71h252l10 -142h-478l-21 592h477v-161h-240zM72 653v102h368l4 -102h-372z" />
    <glyph glyph-name="Ebreve" unicode="&#x114;" horiz-adv-x="569" 
d="M272 434v-74l207 8l-6 -152h-201v-71h252l10 -142h-478l-21 592h477v-161h-240zM160 749l82 2q1 -13 8.5 -28t18.5 -15q9 0 17.5 14.5t10.5 26.5h78q0 -44 -32 -75.5t-76 -31.5t-75.5 31.5t-31.5 75.5z" />
    <glyph glyph-name="ebreve" unicode="&#x115;" horiz-adv-x="569" 
d="M272 434v-74l207 8l-6 -152h-201v-71h252l10 -142h-478l-21 592h477v-161h-240zM160 749l82 2q1 -13 8.5 -28t18.5 -15q9 0 17.5 14.5t10.5 26.5h78q0 -44 -32 -75.5t-76 -31.5t-75.5 31.5t-31.5 75.5z" />
    <glyph glyph-name="Edotaccent" unicode="&#x116;" horiz-adv-x="569" 
d="M272 434v-74l207 8l-6 -152h-201v-71h252l10 -142h-478l-21 592h477v-161h-240zM206 704q0 26 19 45t45 19t45 -19t19 -45t-19 -45t-45 -19t-45 19t-19 45z" />
    <glyph glyph-name="edotaccent" unicode="&#x117;" horiz-adv-x="569" 
d="M272 434v-74l207 8l-6 -152h-201v-71h252l10 -142h-478l-21 592h477v-161h-240zM206 704q0 26 19 45t45 19t45 -19t19 -45t-19 -45t-45 -19t-45 19t-19 45z" />
    <glyph glyph-name="Eogonek" unicode="&#x118;" horiz-adv-x="569" 
d="M272 434v-74l207 8l-6 -152h-201v-71h252l10 -142h-165v-43q-10 2 -23 2q-53 0 -53 -31q0 -26 43 -26q25 0 45 5v-96q-18 -3 -44 -3q-31 0 -56 6t-47.5 30t-22.5 63q0 8 2.5 17t10 23.5t28 24t51.5 9.5l-6 19h-241l-21 592h477v-161h-240z" />
    <glyph glyph-name="eogonek" unicode="&#x119;" horiz-adv-x="569" 
d="M272 434v-74l207 8l-6 -152h-201v-71h252l10 -142h-165v-43q-10 2 -23 2q-53 0 -53 -31q0 -26 43 -26q25 0 45 5v-96q-18 -3 -44 -3q-31 0 -56 6t-47.5 30t-22.5 63q0 8 2.5 17t10 23.5t28 24t51.5 9.5l-6 19h-241l-21 592h477v-161h-240z" />
    <glyph glyph-name="Ecaron" unicode="&#x11a;" horiz-adv-x="569" 
d="M272 434v-74l207 8l-6 -152h-201v-71h252l10 -142h-478l-21 592h477v-161h-240zM151 749h81l34 -86l29 87q76 0 85 -1q-45 -107 -48 -119h-134q-1 3 -11 28.5t-21.5 54.5t-14.5 36z" />
    <glyph glyph-name="ecaron" unicode="&#x11b;" horiz-adv-x="569" 
d="M272 434v-74l207 8l-6 -152h-201v-71h252l10 -142h-478l-21 592h477v-161h-240zM151 749h81l34 -86l29 87q76 0 85 -1q-45 -107 -48 -119h-134q-1 3 -11 28.5t-21.5 54.5t-14.5 36z" />
    <glyph glyph-name="Gcircumflex" unicode="&#x11c;" horiz-adv-x="636" 
d="M456 259h20.5t20.5 -0.5t19.5 -1t18.5 -1t17 -1.5t14 -1.5t10.5 -1t6.5 -0.5h2v-290h-198l-2 44q-50 2 -93 9.5t-89 27t-78.5 49t-53.5 79.5t-21 115q0 74 23 130.5t58.5 89.5t85.5 53.5t96.5 27.5t98.5 7q71 0 167 -17v-200q-66 14 -137 14q-163 0 -163 -99
q0 -32 10.5 -54t27.5 -31t28 -12t23 -4h6l-4 61q34 7 86 7zM512 651h-83l-34 87l-30 -88q-77 0 -86 1q2 7 10 26.5l16 39t15.5 37t7.5 18.5h136q1 -4 11.5 -30t22 -55t14.5 -36z" />
    <glyph glyph-name="gcircumflex" unicode="&#x11d;" horiz-adv-x="636" 
d="M456 259h20.5t20.5 -0.5t19.5 -1t18.5 -1t17 -1.5t14 -1.5t10.5 -1t6.5 -0.5h2v-290h-198l-2 44q-50 2 -93 9.5t-89 27t-78.5 49t-53.5 79.5t-21 115q0 74 23 130.5t58.5 89.5t85.5 53.5t96.5 27.5t98.5 7q71 0 167 -17v-200q-66 14 -137 14q-163 0 -163 -99
q0 -32 10.5 -54t27.5 -31t28 -12t23 -4h6l-4 61q34 7 86 7zM512 651h-83l-34 87l-30 -88q-77 0 -86 1q2 7 10 26.5l16 39t15.5 37t7.5 18.5h136q1 -4 11.5 -30t22 -55t14.5 -36z" />
    <glyph glyph-name="Gbreve" unicode="&#x11e;" horiz-adv-x="636" 
d="M456 259h20.5t20.5 -0.5t19.5 -1t18.5 -1t17 -1.5t14 -1.5t10.5 -1t6.5 -0.5h2v-290h-198l-2 44q-50 2 -93 9.5t-89 27t-78.5 49t-53.5 79.5t-21 115q0 74 23 130.5t58.5 89.5t85.5 53.5t96.5 27.5t98.5 7q71 0 167 -17v-200q-66 14 -137 14q-163 0 -163 -99
q0 -32 10.5 -54t27.5 -31t28 -12t23 -4h6l-4 61q34 7 86 7zM273 750l86 2q1 -14 9 -29.5t19 -15.5q10 0 19 15.5t10 27.5h82q0 -46 -33.5 -79t-79.5 -33t-79 33t-33 79z" />
    <glyph glyph-name="gbreve" unicode="&#x11f;" horiz-adv-x="636" 
d="M456 259h20.5t20.5 -0.5t19.5 -1t18.5 -1t17 -1.5t14 -1.5t10.5 -1t6.5 -0.5h2v-290h-198l-2 44q-50 2 -93 9.5t-89 27t-78.5 49t-53.5 79.5t-21 115q0 74 23 130.5t58.5 89.5t85.5 53.5t96.5 27.5t98.5 7q71 0 167 -17v-200q-66 14 -137 14q-163 0 -163 -99
q0 -32 10.5 -54t27.5 -31t28 -12t23 -4h6l-4 61q34 7 86 7zM273 750l86 2q1 -14 9 -29.5t19 -15.5q10 0 19 15.5t10 27.5h82q0 -46 -33.5 -79t-79.5 -33t-79 33t-33 79z" />
    <glyph glyph-name="Gdotaccent" unicode="&#x120;" horiz-adv-x="636" 
d="M456 259h20.5t20.5 -0.5t19.5 -1t18.5 -1t17 -1.5t14 -1.5t10.5 -1t6.5 -0.5h2v-290h-198l-2 44q-50 2 -93 9.5t-89 27t-78.5 49t-53.5 79.5t-21 115q0 74 23 130.5t58.5 89.5t85.5 53.5t96.5 27.5t98.5 7q71 0 167 -17v-200q-66 14 -137 14q-163 0 -163 -99
q0 -32 10.5 -54t27.5 -31t28 -12t23 -4h6l-4 61q34 7 86 7zM346 689q0 23 16 38.5t38 15.5q23 0 39 -16t16 -38q0 -23 -16.5 -39t-38.5 -16t-38 16t-16 39z" />
    <glyph glyph-name="gdotaccent" unicode="&#x121;" horiz-adv-x="636" 
d="M456 259h20.5t20.5 -0.5t19.5 -1t18.5 -1t17 -1.5t14 -1.5t10.5 -1t6.5 -0.5h2v-290h-198l-2 44q-50 2 -93 9.5t-89 27t-78.5 49t-53.5 79.5t-21 115q0 74 23 130.5t58.5 89.5t85.5 53.5t96.5 27.5t98.5 7q71 0 167 -17v-200q-66 14 -137 14q-163 0 -163 -99
q0 -32 10.5 -54t27.5 -31t28 -12t23 -4h6l-4 61q34 7 86 7zM346 689q0 23 16 38.5t38 15.5q23 0 39 -16t16 -38q0 -23 -16.5 -39t-38.5 -16t-38 16t-16 39z" />
    <glyph glyph-name="Gcommaaccent" unicode="&#x122;" horiz-adv-x="636" 
d="M456 259h20.5t20.5 -0.5t19.5 -1t18.5 -1t17 -1.5t14 -1.5t10.5 -1t6.5 -0.5h2v-290h-198l-2 44q-50 2 -93 9.5t-89 27t-78.5 49t-53.5 79.5t-21 115q0 74 23 130.5t58.5 89.5t85.5 53.5t96.5 27.5t98.5 7q71 0 167 -17v-200q-66 14 -137 14q-163 0 -163 -99
q0 -32 10.5 -54t27.5 -31t28 -12t23 -4h6l-4 61q34 7 86 7zM533 -146v-3q0 -12 -2.5 -26.5t-5.5 -27t-6.5 -22.5t-6.5 -17l-2 -6h-83l21 56q-40 14 -40 55q0 24 17 40.5t41 16.5q8 0 11 -1q19 0 37 -17.5t19 -47.5z" />
    <glyph glyph-name="gcommaaccent" unicode="&#x123;" horiz-adv-x="636" 
d="M456 259h20.5t20.5 -0.5t19.5 -1t18.5 -1t17 -1.5t14 -1.5t10.5 -1t6.5 -0.5h2v-290h-198l-2 44q-50 2 -93 9.5t-89 27t-78.5 49t-53.5 79.5t-21 115q0 74 23 130.5t58.5 89.5t85.5 53.5t96.5 27.5t98.5 7q71 0 167 -17v-200q-66 14 -137 14q-163 0 -163 -99
q0 -32 10.5 -54t27.5 -31t28 -12t23 -4h6l-4 61q34 7 86 7zM533 -146v-3q0 -12 -2.5 -26.5t-5.5 -27t-6.5 -22.5t-6.5 -17l-2 -6h-83l21 56q-40 14 -40 55q0 24 17 40.5t41 16.5q8 0 11 -1q19 0 37 -17.5t19 -47.5z" />
    <glyph glyph-name="Hcircumflex" unicode="&#x124;" horiz-adv-x="663" 
d="M377 596h251v-596h-251v205h-90v-205h-227l-25 596h258v-228h84v228zM437 649h-69l-28 72l-25 -73q-64 0 -71 1q2 7 12 31.5t19 45.5t9 23h113q1 -3 9.5 -24.5t18.5 -45.5t12 -30z" />
    <glyph glyph-name="hcircumflex" unicode="&#x125;" horiz-adv-x="663" 
d="M377 596h251v-596h-251v205h-90v-205h-227l-25 596h258v-228h84v228zM437 649h-69l-28 72l-25 -73q-64 0 -71 1q2 7 12 31.5t19 45.5t9 23h113q1 -3 9.5 -24.5t18.5 -45.5t12 -30z" />
    <glyph glyph-name="Hbar" unicode="&#x126;" horiz-adv-x="663" 
d="M377 596h251v-62h36l8 -108h-44v-426h-251v205h-90v-205h-227l-18 426h-59v108h52v62h258v-62h84v62zM293 368h84v58h-84v-58z" />
    <glyph glyph-name="hbar" unicode="&#x127;" horiz-adv-x="663" 
d="M377 596h251v-62h36l8 -108h-44v-426h-251v205h-90v-205h-227l-18 426h-59v108h52v62h258v-62h84v62zM293 368h84v58h-84v-58z" />
    <glyph glyph-name="Itilde" unicode="&#x128;" horiz-adv-x="314" 
d="M63 0l-21 503h231v-503h-210zM-1 568v22q0 52 23.5 76.5t64.5 24.5h8q24 0 59.5 -19t43.5 -20q21 1 21 39l104 -7q4 -15 4 -44q0 -46 -27.5 -65.5t-66.5 -19.5q-19 0 -55.5 15.5t-57.5 15.5q-14 0 -23 -7.5t-11 -14.5l-2 -8z" />
    <glyph glyph-name="itilde" unicode="&#x129;" horiz-adv-x="314" 
d="M63 0l-21 503h231v-503h-210zM-1 568v22q0 52 23.5 76.5t64.5 24.5h8q24 0 59.5 -19t43.5 -20q21 1 21 39l104 -7q4 -15 4 -44q0 -46 -27.5 -65.5t-66.5 -19.5q-19 0 -55.5 15.5t-57.5 15.5q-14 0 -23 -7.5t-11 -14.5l-2 -8z" />
    <glyph glyph-name="Imacron" unicode="&#x12a;" horiz-adv-x="314" 
d="M63 0l-21 503h231v-503h-210zM2 562v108h314l4 -108h-318z" />
    <glyph glyph-name="imacron" unicode="&#x12b;" horiz-adv-x="314" 
d="M63 0l-21 503h231v-503h-210zM2 562v108h314l4 -108h-318z" />
    <glyph glyph-name="Ibreve" unicode="&#x12c;" horiz-adv-x="314" 
d="M63 0l-21 503h231v-503h-210zM10 697l112 2q2 -19 12.5 -38.5t24.5 -19.5t25.5 20t13.5 36h108q0 -61 -43.5 -104.5t-104.5 -43.5t-104.5 43.5t-43.5 104.5z" />
    <glyph glyph-name="ibreve" unicode="&#x12d;" horiz-adv-x="314" 
d="M63 0l-21 503h231v-503h-210zM10 697l112 2q2 -19 12.5 -38.5t24.5 -19.5t25.5 20t13.5 36h108q0 -61 -43.5 -104.5t-104.5 -43.5t-104.5 43.5t-43.5 104.5z" />
    <glyph glyph-name="Iogonek" unicode="&#x12e;" horiz-adv-x="314" 
d="M78 531l15 75l-58 44l83 17l34 58l24 -59l103 -18l-67 -53l7 -64l-75 28zM63 0l-21 503h231v-503h-57v-49q-10 2 -23 2q-53 0 -53 -31q0 -26 43 -26q25 0 45 5v-96q-18 -3 -44 -3q-31 0 -56 6t-47.5 30t-22.5 63q0 8 2.5 17t10 23.5t28 24t51.5 9.5l-8 25h-79z" />
    <glyph glyph-name="iogonek" unicode="&#x12f;" horiz-adv-x="314" 
d="M78 531l15 75l-58 44l83 17l34 58l24 -59l103 -18l-67 -53l7 -64l-75 28zM63 0l-21 503h231v-503h-57v-49q-10 2 -23 2q-53 0 -53 -31q0 -26 43 -26q25 0 45 5v-96q-18 -3 -44 -3q-31 0 -56 6t-47.5 30t-22.5 63q0 8 2.5 17t10 23.5t28 24t51.5 9.5l-8 25h-79z" />
    <glyph glyph-name="Idotaccent" unicode="&#x130;" horiz-adv-x="314" 
d="M63 0l-21 503h231v-503h-210zM75 657q0 34 24.5 58.5t58.5 24.5t58.5 -24t24.5 -59q0 -34 -24.5 -58.5t-58.5 -24.5t-58.5 24.5t-24.5 58.5z" />
    <glyph glyph-name="IJ" unicode="&#x132;" horiz-adv-x="797" 
d="M63 0l-21 503h231v-503h-210zM78 531l15 75l-58 44l83 17l34 58l24 -59l103 -18l-67 -53l7 -64l-75 28zM497 602v-6h262q3 -48 3 -141q0 -71 -3 -173q-3 -88 -23.5 -146.5t-58.5 -86.5t-80 -38.5t-101 -10.5q-34 0 -67 3t-49 7l-16 3l-15 205q20 -6 57 -6q70 0 88.5 29.5
t18.5 132.5q0 48 -4 105t-8 90z" />
    <glyph glyph-name="ij" unicode="&#x133;" horiz-adv-x="797" 
d="M63 0l-21 503h231v-503h-210zM78 531l15 75l-58 44l83 17l34 58l24 -59l103 -18l-67 -53l7 -64l-75 28zM497 602v-6h262q3 -48 3 -141q0 -71 -3 -173q-3 -88 -23.5 -146.5t-58.5 -86.5t-80 -38.5t-101 -10.5q-34 0 -67 3t-49 7l-16 3l-15 205q20 -6 57 -6q70 0 88.5 29.5
t18.5 132.5q0 48 -4 105t-8 90z" />
    <glyph glyph-name="Jcircumflex" unicode="&#x134;" horiz-adv-x="483" 
d="M183 602v-6h262q3 -48 3 -141q0 -71 -3 -173q-3 -88 -23.5 -146.5t-58.5 -86.5t-80 -38.5t-101 -10.5q-34 0 -67 3t-49 7l-16 3l-15 205q20 -6 57 -6q70 0 88.5 29.5t18.5 132.5q0 48 -4 105t-8 90zM422 644h-85l-34 88l-31 -90q-78 0 -87 2q3 8 15 38t23 56t11 28h139
q1 -3 11.5 -29.5t22.5 -55.5t15 -37z" />
    <glyph glyph-name="jcircumflex" unicode="&#x135;" horiz-adv-x="483" 
d="M183 602v-6h262q3 -48 3 -141q0 -71 -3 -173q-3 -88 -23.5 -146.5t-58.5 -86.5t-80 -38.5t-101 -10.5q-34 0 -67 3t-49 7l-16 3l-15 205q20 -6 57 -6q70 0 88.5 29.5t18.5 132.5q0 48 -4 105t-8 90zM422 644h-85l-34 88l-31 -90q-78 0 -87 2q3 8 15 38t23 56t11 28h139
q1 -3 11.5 -29.5t22.5 -55.5t15 -37z" />
    <glyph glyph-name="Kcommaaccent" unicode="&#x136;" horiz-adv-x="687" 
d="M392 -109q0 -13 -2.5 -29t-6 -29t-7 -24t-6.5 -17l-2 -7h-86l21 58q-18 6 -29 21.5t-11 35.5q0 25 17.5 42t42.5 17q7 0 11 -1q19 0 38 -18t20 -49zM35 587l256 9v-264q57 2 77 34.5t20 102.5q0 23 -3 49.5t-5 41.5l-3 15l232 19v-9q0 -67 -7 -195q-2 -38 -16 -69.5
t-33 -48.5t-37.5 -28.5t-31.5 -15.5l-12 -3q2 -6 4 -11q26 -31 94 -31q17 0 35.5 2t28.5 4l10 2l8 -215q-44 -6 -80 -6q-49 0 -87.5 10t-63.5 24.5t-43 36.5t-26.5 41t-13.5 43.5t-6 38t-1 30.5h-37v-194h-239z" />
    <glyph glyph-name="kcommaaccent" unicode="&#x137;" horiz-adv-x="687" 
d="M392 -109q0 -13 -2.5 -29t-6 -29t-7 -24t-6.5 -17l-2 -7h-86l21 58q-18 6 -29 21.5t-11 35.5q0 25 17.5 42t42.5 17q7 0 11 -1q19 0 38 -18t20 -49zM35 587l256 9v-264q57 2 77 34.5t20 102.5q0 23 -3 49.5t-5 41.5l-3 15l232 19v-9q0 -67 -7 -195q-2 -38 -16 -69.5
t-33 -48.5t-37.5 -28.5t-31.5 -15.5l-12 -3q2 -6 4 -11q26 -31 94 -31q17 0 35.5 2t28.5 4l10 2l8 -215q-44 -6 -80 -6q-49 0 -87.5 10t-63.5 24.5t-43 36.5t-26.5 41t-13.5 43.5t-6 38t-1 30.5h-37v-194h-239z" />
    <glyph glyph-name="kgreenlandic" unicode="&#x138;" horiz-adv-x="687" 
d="M35 587l256 9v-264q57 2 77 34.5t20 102.5q0 23 -3 49.5t-5 41.5l-3 15l232 19v-9q0 -67 -7 -195q-2 -38 -16 -69.5t-33 -48.5t-37.5 -28.5t-31.5 -15.5l-12 -3q2 -6 4 -11q26 -31 94 -31q17 0 35.5 2t28.5 4l10 2l8 -215q-44 -6 -80 -6q-49 0 -87.5 10t-63.5 24.5
t-43 36.5t-26.5 41t-13.5 43.5t-6 38t-1 30.5h-37v-194h-239z" />
    <glyph glyph-name="Lacute" unicode="&#x139;" horiz-adv-x="547" 
d="M35 596h267l-15 -429l208 10l17 -177h-447zM109 649l41 101h112l-72 -102q-74 0 -81 1z" />
    <glyph glyph-name="lacute" unicode="&#x13a;" horiz-adv-x="547" 
d="M35 596h267l-15 -429l208 10l17 -177h-447zM109 649l41 101h112l-72 -102q-74 0 -81 1z" />
    <glyph glyph-name="Lcommaaccent" unicode="&#x13b;" horiz-adv-x="547" 
d="M345 -100q0 -13 -2.5 -29t-6 -29t-7 -24t-5.5 -18l-3 -6h-86l21 58q-18 6 -29 21.5t-11 35.5q0 25 17.5 42t42.5 17q7 0 11 -1q19 0 38 -18t20 -49zM35 596h267l-15 -429l208 10l17 -177h-447z" />
    <glyph glyph-name="lcommaaccent" unicode="&#x13c;" horiz-adv-x="547" 
d="M345 -100q0 -13 -2.5 -29t-6 -29t-7 -24t-5.5 -18l-3 -6h-86l21 58q-18 6 -29 21.5t-11 35.5q0 25 17.5 42t42.5 17q7 0 11 -1q19 0 38 -18t20 -49zM35 596h267l-15 -429l208 10l17 -177h-447z" />
    <glyph glyph-name="Lcaron" unicode="&#x13d;" horiz-adv-x="547" 
d="M35 596h267l-15 -429l208 10l17 -177h-447zM43 762h85l34 -88l31 89q78 0 87 -1q-3 -8 -15 -38t-23 -56.5t-11 -28.5h-139q-1 5 -23.5 59.5t-25.5 63.5z" />
    <glyph glyph-name="lcaron" unicode="&#x13e;" horiz-adv-x="547" 
d="M35 596h267l-15 -429l208 10l17 -177h-447zM43 762h85l34 -88l31 89q78 0 87 -1q-3 -8 -15 -38t-23 -56.5t-11 -28.5h-139q-1 5 -23.5 59.5t-25.5 63.5z" />
    <glyph glyph-name="Ldot" unicode="&#x13f;" horiz-adv-x="547" 
d="M35 596h267l-15 -429l208 10l17 -177h-447zM344 325q0 26 19 45t45 19t45 -19t19 -45t-19 -45t-45 -19t-45 19t-19 45z" />
    <glyph glyph-name="ldot" unicode="&#x140;" horiz-adv-x="547" 
d="M35 596h267l-15 -429l208 10l17 -177h-447zM344 325q0 26 19 45t45 19t45 -19t19 -45t-19 -45t-45 -19t-45 19t-19 45z" />
    <glyph glyph-name="Lslash" unicode="&#x141;" horiz-adv-x="547" 
d="M35 596h267l-5 -150l54 25l82 -143l-143 -65l-3 -96l208 10l17 -177h-447l-8 157l-41 -18l-82 144l114 51z" />
    <glyph glyph-name="lslash" unicode="&#x142;" horiz-adv-x="547" 
d="M35 596h267l-5 -150l54 25l82 -143l-143 -65l-3 -96l208 10l17 -177h-447l-8 157l-41 -18l-82 144l114 51z" />
    <glyph glyph-name="Nacute" unicode="&#x143;" horiz-adv-x="622" 
d="M254 648l41 101h112l-72 -102q-74 0 -81 1zM35 588l180 8l149 -233v233h223v-584l-171 -11l-181 258l12 -249l-212 -9v587z" />
    <glyph glyph-name="nacute" unicode="&#x144;" horiz-adv-x="622" 
d="M254 648l41 101h112l-72 -102q-74 0 -81 1zM35 588l180 8l149 -233v233h223v-584l-171 -11l-181 258l12 -249l-212 -9v587z" />
    <glyph glyph-name="Ncommaaccent" unicode="&#x145;" horiz-adv-x="622" 
d="M370 -79q0 -13 -2.5 -29t-6 -29t-7 -24t-6.5 -17l-2 -7h-86l21 58q-18 6 -29 21.5t-11 35.5q0 25 17.5 42t42.5 17q7 0 11 -1q19 0 38 -18t20 -49zM35 588l180 8l149 -233v233h223v-584l-171 -11l-181 258l12 -249l-212 -9v587z" />
    <glyph glyph-name="ncommaaccent" unicode="&#x146;" horiz-adv-x="622" 
d="M370 -79q0 -13 -2.5 -29t-6 -29t-7 -24t-6.5 -17l-2 -7h-86l21 58q-18 6 -29 21.5t-11 35.5q0 25 17.5 42t42.5 17q7 0 11 -1q19 0 38 -18t20 -49zM35 588l180 8l149 -233v233h223v-584l-171 -11l-181 258l12 -249l-212 -9v587z" />
    <glyph glyph-name="Ncaron" unicode="&#x147;" horiz-adv-x="622" 
d="M200 727h69l28 -72l25 73q64 0 71 -1q-2 -7 -12 -31.5t-19 -45.5t-9 -23h-113q-1 3 -9.5 24.5t-18.5 45.5t-12 30zM35 588l180 8l149 -233v233h223v-584l-171 -11l-181 258l12 -249l-212 -9v587z" />
    <glyph glyph-name="ncaron" unicode="&#x148;" horiz-adv-x="622" 
d="M200 727h69l28 -72l25 73q64 0 71 -1q-2 -7 -12 -31.5t-19 -45.5t-9 -23h-113q-1 3 -9.5 24.5t-18.5 45.5t-12 30zM35 588l180 8l149 -233v233h223v-584l-171 -11l-181 258l12 -249l-212 -9v587z" />
    <glyph glyph-name="napostrophe" unicode="&#x149;" horiz-adv-x="760" 
d="M158 588l180 8l149 -233v233h223v-584l-171 -11l-181 258l12 -249l-212 -9v587zM130 540v-2q0 -11 -2 -25t-5 -25.5t-6.5 -21t-5.5 -15.5l-2 -6h-77l19 52q-37 12 -37 52q0 22 16 37.5t38 15.5q7 0 10 -1q17 0 34 -16.5t18 -44.5z" />
    <glyph glyph-name="Omacron" unicode="&#x14c;" 
d="M335 609q58 0 103.5 -14t74.5 -34t50 -52.5t31 -58.5t15.5 -64t6 -58t0.5 -50q0 -13 -1 -28t-7.5 -44t-17 -54.5t-32.5 -54t-51 -49.5t-75 -34.5t-102 -13.5q-141 0 -218 88t-77 229q0 27 3.5 54.5t21 73.5t47 79.5t89 59t139.5 25.5zM329 142q86 0 86 170
q0 23 -2.5 45.5t-10.5 51.5t-26.5 46.5t-45.5 17.5q-91 0 -91 -168q0 -10 0.5 -22.5t5.5 -40t13.5 -47.5t27 -36.5t43.5 -16.5zM131 653v102h368l4 -102h-372z" />
    <glyph glyph-name="omacron" unicode="&#x14d;" 
d="M335 609q58 0 103.5 -14t74.5 -34t50 -52.5t31 -58.5t15.5 -64t6 -58t0.5 -50q0 -13 -1 -28t-7.5 -44t-17 -54.5t-32.5 -54t-51 -49.5t-75 -34.5t-102 -13.5q-141 0 -218 88t-77 229q0 27 3.5 54.5t21 73.5t47 79.5t89 59t139.5 25.5zM329 142q86 0 86 170
q0 23 -2.5 45.5t-10.5 51.5t-26.5 46.5t-45.5 17.5q-91 0 -91 -168q0 -10 0.5 -22.5t5.5 -40t13.5 -47.5t27 -36.5t43.5 -16.5zM131 653v102h368l4 -102h-372z" />
    <glyph glyph-name="Obreve" unicode="&#x14e;" 
d="M335 609q58 0 103.5 -14t74.5 -34t50 -52.5t31 -58.5t15.5 -64t6 -58t0.5 -50q0 -13 -1 -28t-7.5 -44t-17 -54.5t-32.5 -54t-51 -49.5t-75 -34.5t-102 -13.5q-141 0 -218 88t-77 229q0 27 3.5 54.5t21 73.5t47 79.5t89 59t139.5 25.5zM329 142q86 0 86 170
q0 23 -2.5 45.5t-10.5 51.5t-26.5 46.5t-45.5 17.5q-91 0 -91 -168q0 -10 0.5 -22.5t5.5 -40t13.5 -47.5t27 -36.5t43.5 -16.5zM203 755l89 2q2 -15 10.5 -30.5t19.5 -15.5q10 0 19.5 15.5t11.5 28.5h85q0 -48 -34.5 -82.5t-83.5 -34.5q-48 0 -82.5 34.5t-34.5 82.5z" />
    <glyph glyph-name="obreve" unicode="&#x14f;" 
d="M335 609q58 0 103.5 -14t74.5 -34t50 -52.5t31 -58.5t15.5 -64t6 -58t0.5 -50q0 -13 -1 -28t-7.5 -44t-17 -54.5t-32.5 -54t-51 -49.5t-75 -34.5t-102 -13.5q-141 0 -218 88t-77 229q0 27 3.5 54.5t21 73.5t47 79.5t89 59t139.5 25.5zM329 142q86 0 86 170
q0 23 -2.5 45.5t-10.5 51.5t-26.5 46.5t-45.5 17.5q-91 0 -91 -168q0 -10 0.5 -22.5t5.5 -40t13.5 -47.5t27 -36.5t43.5 -16.5zM203 755l89 2q2 -15 10.5 -30.5t19.5 -15.5q10 0 19.5 15.5t11.5 28.5h85q0 -48 -34.5 -82.5t-83.5 -34.5q-48 0 -82.5 34.5t-34.5 82.5z" />
    <glyph glyph-name="Ohungarumlaut" unicode="&#x150;" 
d="M335 609q58 0 103.5 -14t74.5 -34t50 -52.5t31 -58.5t15.5 -64t6 -58t0.5 -50q0 -13 -1 -28t-7.5 -44t-17 -54.5t-32.5 -54t-51 -49.5t-75 -34.5t-102 -13.5q-141 0 -218 88t-77 229q0 27 3.5 54.5t21 73.5t47 79.5t89 59t139.5 25.5zM329 142q86 0 86 170
q0 23 -2.5 45.5t-10.5 51.5t-26.5 46.5t-45.5 17.5q-91 0 -91 -168q0 -10 0.5 -22.5t5.5 -40t13.5 -47.5t27 -36.5t43.5 -16.5zM190 656l41 101h109l-46 -102q-97 0 -104 1zM363 656l41 101h112l-72 -102q-74 0 -81 1z" />
    <glyph glyph-name="ohungarumlaut" unicode="&#x151;" 
d="M335 609q58 0 103.5 -14t74.5 -34t50 -52.5t31 -58.5t15.5 -64t6 -58t0.5 -50q0 -13 -1 -28t-7.5 -44t-17 -54.5t-32.5 -54t-51 -49.5t-75 -34.5t-102 -13.5q-141 0 -218 88t-77 229q0 27 3.5 54.5t21 73.5t47 79.5t89 59t139.5 25.5zM329 142q86 0 86 170
q0 23 -2.5 45.5t-10.5 51.5t-26.5 46.5t-45.5 17.5q-91 0 -91 -168q0 -10 0.5 -22.5t5.5 -40t13.5 -47.5t27 -36.5t43.5 -16.5zM190 656l41 101h109l-46 -102q-97 0 -104 1zM363 656l41 101h112l-72 -102q-74 0 -81 1z" />
    <glyph glyph-name="OE" unicode="&#x152;" horiz-adv-x="1120" 
d="M808 434v-74l207 8l-6 -152h-201v-71h252l10 -142h-478l-4 116q-72 -119 -243 -119q-141 0 -218 88t-77 229q0 27 3.5 54.5t21 73.5t47 79.5t89 59t139.5 25.5q154 0 224 -94l-3 80h477v-161h-240zM344 142q86 0 86 170q0 23 -2.5 45.5t-10.5 51.5t-26.5 46.5t-45.5 17.5
q-91 0 -91 -168q0 -10 0.5 -22.5t5.5 -40t13.5 -47.5t27 -36.5t43.5 -16.5z" />
    <glyph glyph-name="oe" unicode="&#x153;" horiz-adv-x="1120" 
d="M808 434v-74l207 8l-6 -152h-201v-71h252l10 -142h-478l-4 116q-72 -119 -243 -119q-141 0 -218 88t-77 229q0 27 3.5 54.5t21 73.5t47 79.5t89 59t139.5 25.5q154 0 224 -94l-3 80h477v-161h-240zM344 142q86 0 86 170q0 23 -2.5 45.5t-10.5 51.5t-26.5 46.5t-45.5 17.5
q-91 0 -91 -168q0 -10 0.5 -22.5t5.5 -40t13.5 -47.5t27 -36.5t43.5 -16.5z" />
    <glyph glyph-name="Racute" unicode="&#x154;" horiz-adv-x="672" 
d="M486 170q18 -29 75 -29q17 0 36 2.5t29 5.5l11 3v-191l-91 -5q-47 0 -85 16t-60.5 37.5t-39 50.5t-23 48.5t-10.5 37.5q-22 0 -48 3l6 -153h-232l-19 590q77 31 283 31q154 0 220.5 -53t66.5 -176q0 -163 -119 -218zM281 269q7 -1 16 -1q16 0 31 3.5t33.5 13.5t29.5 32
t11 54q0 59 -25.5 83.5t-62.5 24.5q-23 0 -44 -7zM233 673l52 129h143l-92 -130q-94 0 -103 1z" />
    <glyph glyph-name="racute" unicode="&#x155;" horiz-adv-x="672" 
d="M486 170q18 -29 75 -29q17 0 36 2.5t29 5.5l11 3v-191l-91 -5q-47 0 -85 16t-60.5 37.5t-39 50.5t-23 48.5t-10.5 37.5q-22 0 -48 3l6 -153h-232l-19 590q77 31 283 31q154 0 220.5 -53t66.5 -176q0 -163 -119 -218zM281 269q7 -1 16 -1q16 0 31 3.5t33.5 13.5t29.5 32
t11 54q0 59 -25.5 83.5t-62.5 24.5q-23 0 -44 -7zM233 673l52 129h143l-92 -130q-94 0 -103 1z" />
    <glyph glyph-name="Rcommaaccent" unicode="&#x156;" horiz-adv-x="672" 
d="M390 -94q0 -13 -2.5 -29t-6 -29t-7 -24t-6.5 -18l-2 -6h-86l21 58q-18 6 -29 21.5t-11 35.5q0 25 17.5 42t42.5 17q7 0 11 -1q19 0 38 -18t20 -49zM486 170q18 -29 75 -29q17 0 36 2.5t29 5.5l11 3v-191l-91 -5q-47 0 -85 16t-60.5 37.5t-39 50.5t-23 48.5t-10.5 37.5
q-22 0 -48 3l6 -153h-232l-19 590q77 31 283 31q154 0 220.5 -53t66.5 -176q0 -163 -119 -218zM281 269q7 -1 16 -1q16 0 31 3.5t33.5 13.5t29.5 32t11 54q0 59 -25.5 83.5t-62.5 24.5q-23 0 -44 -7z" />
    <glyph glyph-name="rcommaaccent" unicode="&#x157;" horiz-adv-x="672" 
d="M390 -94q0 -13 -2.5 -29t-6 -29t-7 -24t-6.5 -18l-2 -6h-86l21 58q-18 6 -29 21.5t-11 35.5q0 25 17.5 42t42.5 17q7 0 11 -1q19 0 38 -18t20 -49zM486 170q18 -29 75 -29q17 0 36 2.5t29 5.5l11 3v-191l-91 -5q-47 0 -85 16t-60.5 37.5t-39 50.5t-23 48.5t-10.5 37.5
q-22 0 -48 3l6 -153h-232l-19 590q77 31 283 31q154 0 220.5 -53t66.5 -176q0 -163 -119 -218zM281 269q7 -1 16 -1q16 0 31 3.5t33.5 13.5t29.5 32t11 54q0 59 -25.5 83.5t-62.5 24.5q-23 0 -44 -7z" />
    <glyph glyph-name="Rcaron" unicode="&#x158;" horiz-adv-x="672" 
d="M486 170q18 -29 75 -29q17 0 36 2.5t29 5.5l11 3v-191l-91 -5q-47 0 -85 16t-60.5 37.5t-39 50.5t-23 48.5t-10.5 37.5q-22 0 -48 3l6 -153h-232l-19 590q77 31 283 31q154 0 220.5 -53t66.5 -176q0 -163 -119 -218zM281 269q7 -1 16 -1q16 0 31 3.5t33.5 13.5t29.5 32
t11 54q0 59 -25.5 83.5t-62.5 24.5q-23 0 -44 -7zM151 800h98l39 -101l35 103q90 0 100 -2q-3 -9 -17 -43.5t-26.5 -64.5t-12.5 -32h-159q-1 4 -57 140z" />
    <glyph glyph-name="rcaron" unicode="&#x159;" horiz-adv-x="672" 
d="M486 170q18 -29 75 -29q17 0 36 2.5t29 5.5l11 3v-191l-91 -5q-47 0 -85 16t-60.5 37.5t-39 50.5t-23 48.5t-10.5 37.5q-22 0 -48 3l6 -153h-232l-19 590q77 31 283 31q154 0 220.5 -53t66.5 -176q0 -163 -119 -218zM281 269q7 -1 16 -1q16 0 31 3.5t33.5 13.5t29.5 32
t11 54q0 59 -25.5 83.5t-62.5 24.5q-23 0 -44 -7zM151 800h98l39 -101l35 103q90 0 100 -2q-3 -9 -17 -43.5t-26.5 -64.5t-12.5 -32h-159q-1 4 -57 140z" />
    <glyph glyph-name="Sacute" unicode="&#x15a;" horiz-adv-x="553" 
d="M526 592q-84 9 -170 9q-176 0 -248 -50t-72 -149q0 -39 14 -69.5t34.5 -47t47.5 -28t47.5 -15.5t40 -6.5t20.5 -2.5q3 -1 22.5 -2.5t30 -8.5t10.5 -24q-3 -18 -69 -18q-34 0 -81 4.5t-77 9.5l-30 4v-189q128 -11 220 -11q39 0 55 2q35 4 56.5 7.5t56 15.5t55 30t36 51.5
t15.5 78.5q0 29 -9.5 52t-22.5 37.5t-34.5 25.5t-38.5 16.5t-42.5 9t-37.5 4t-32 1.5q-18 2 -26.5 7t-10 9t-1.5 11q0 36 109 36q18 0 37.5 -1t35.5 -2t29 -2.5t21 -2.5t9 -1v209zM248 649l41 101h112l-72 -102q-74 0 -81 1z" />
    <glyph glyph-name="sacute" unicode="&#x15b;" horiz-adv-x="553" 
d="M526 592q-84 9 -170 9q-176 0 -248 -50t-72 -149q0 -39 14 -69.5t34.5 -47t47.5 -28t47.5 -15.5t40 -6.5t20.5 -2.5q3 -1 22.5 -2.5t30 -8.5t10.5 -24q-3 -18 -69 -18q-34 0 -81 4.5t-77 9.5l-30 4v-189q128 -11 220 -11q39 0 55 2q35 4 56.5 7.5t56 15.5t55 30t36 51.5
t15.5 78.5q0 29 -9.5 52t-22.5 37.5t-34.5 25.5t-38.5 16.5t-42.5 9t-37.5 4t-32 1.5q-18 2 -26.5 7t-10 9t-1.5 11q0 36 109 36q18 0 37.5 -1t35.5 -2t29 -2.5t21 -2.5t9 -1v209zM248 649l41 101h112l-72 -102q-74 0 -81 1z" />
    <glyph glyph-name="Scircumflex" unicode="&#x15c;" horiz-adv-x="553" 
d="M526 592q-84 9 -170 9q-176 0 -248 -50t-72 -149q0 -39 14 -69.5t34.5 -47t47.5 -28t47.5 -15.5t40 -6.5t20.5 -2.5q3 -1 22.5 -2.5t30 -8.5t10.5 -24q-3 -18 -69 -18q-34 0 -81 4.5t-77 9.5l-30 4v-189q128 -11 220 -11q39 0 55 2q35 4 56.5 7.5t56 15.5t55 30t36 51.5
t15.5 78.5q0 29 -9.5 52t-22.5 37.5t-34.5 25.5t-38.5 16.5t-42.5 9t-37.5 4t-32 1.5q-18 2 -26.5 7t-10 9t-1.5 11q0 36 109 36q18 0 37.5 -1t35.5 -2t29 -2.5t21 -2.5t9 -1v209zM426 636h-79l-32 82l-28 -83q-73 0 -81 1q2 6 14 35t21.5 53t9.5 26h129q1 -4 21.5 -54.5
t24.5 -59.5z" />
    <glyph glyph-name="scircumflex" unicode="&#x15d;" horiz-adv-x="553" 
d="M526 592q-84 9 -170 9q-176 0 -248 -50t-72 -149q0 -39 14 -69.5t34.5 -47t47.5 -28t47.5 -15.5t40 -6.5t20.5 -2.5q3 -1 22.5 -2.5t30 -8.5t10.5 -24q-3 -18 -69 -18q-34 0 -81 4.5t-77 9.5l-30 4v-189q128 -11 220 -11q39 0 55 2q35 4 56.5 7.5t56 15.5t55 30t36 51.5
t15.5 78.5q0 29 -9.5 52t-22.5 37.5t-34.5 25.5t-38.5 16.5t-42.5 9t-37.5 4t-32 1.5q-18 2 -26.5 7t-10 9t-1.5 11q0 36 109 36q18 0 37.5 -1t35.5 -2t29 -2.5t21 -2.5t9 -1v209zM426 636h-79l-32 82l-28 -83q-73 0 -81 1q2 6 14 35t21.5 53t9.5 26h129q1 -4 21.5 -54.5
t24.5 -59.5z" />
    <glyph glyph-name="Scedilla" unicode="&#x15e;" horiz-adv-x="553" 
d="M276 -2l-7 -22q31 0 51.5 -9.5t28 -24t10 -23.5t2.5 -17q0 -39 -22.5 -63t-47.5 -30t-56 -6l-44 3v96q20 -5 45 -5q43 0 43 26q0 31 -53 31l-23 -2v47l-157 10v189q112 -18 188 -18q66 0 69 18q0 17 -10.5 24t-30 8.5t-22.5 2.5q-1 0 -20.5 2.5t-40 6.5t-47.5 15.5
t-47.5 28t-34.5 47t-14 69.5q0 99 72 149t248 50q86 0 170 -9v-209q-1 0 -9 1t-21 2.5t-29 2.5t-35.5 2t-37.5 1q-109 0 -109 -36q0 -7 1.5 -11t10 -9t26.5 -7q20 -1 32 -1.5t37.5 -4t42.5 -9t38.5 -16.5t34.5 -25.5t22.5 -37.5t9.5 -52q0 -45 -15.5 -78.5t-36 -51.5
t-55 -30t-56 -15.5t-56.5 -7.5q-26 -2 -45 -2z" />
    <glyph glyph-name="scedilla" unicode="&#x15f;" horiz-adv-x="553" 
d="M276 -2l-7 -22q31 0 51.5 -9.5t28 -24t10 -23.5t2.5 -17q0 -39 -22.5 -63t-47.5 -30t-56 -6l-44 3v96q20 -5 45 -5q43 0 43 26q0 31 -53 31l-23 -2v47l-157 10v189q112 -18 188 -18q66 0 69 18q0 17 -10.5 24t-30 8.5t-22.5 2.5q-1 0 -20.5 2.5t-40 6.5t-47.5 15.5
t-47.5 28t-34.5 47t-14 69.5q0 99 72 149t248 50q86 0 170 -9v-209q-1 0 -9 1t-21 2.5t-29 2.5t-35.5 2t-37.5 1q-109 0 -109 -36q0 -7 1.5 -11t10 -9t26.5 -7q20 -1 32 -1.5t37.5 -4t42.5 -9t38.5 -16.5t34.5 -25.5t22.5 -37.5t9.5 -52q0 -45 -15.5 -78.5t-36 -51.5
t-55 -30t-56 -15.5t-56.5 -7.5q-26 -2 -45 -2z" />
    <glyph glyph-name="Scaron" unicode="&#x160;" horiz-adv-x="553" 
d="M526 592q-84 9 -170 9q-176 0 -248 -50t-72 -149q0 -39 14 -69.5t34.5 -47t47.5 -28t47.5 -15.5t40 -6.5t20.5 -2.5q3 -1 22.5 -2.5t30 -8.5t10.5 -24q-3 -18 -69 -18q-34 0 -81 4.5t-77 9.5l-30 4v-189q128 -11 220 -11q39 0 55 2q35 4 56.5 7.5t56 15.5t55 30t36 51.5
t15.5 78.5q0 29 -9.5 52t-22.5 37.5t-34.5 25.5t-38.5 16.5t-42.5 9t-37.5 4t-32 1.5q-18 2 -26.5 7t-10 9t-1.5 11q0 36 109 36q18 0 37.5 -1t35.5 -2t29 -2.5t21 -2.5t9 -1v209zM205 749h69l28 -72l25 73q64 0 71 -1q-2 -7 -12 -31.5t-19 -45.5t-9 -23h-113
q-1 3 -9.5 24.5t-18.5 45.5t-12 30z" />
    <glyph glyph-name="scaron" unicode="&#x161;" horiz-adv-x="553" 
d="M526 592q-84 9 -170 9q-176 0 -248 -50t-72 -149q0 -39 14 -69.5t34.5 -47t47.5 -28t47.5 -15.5t40 -6.5t20.5 -2.5q3 -1 22.5 -2.5t30 -8.5t10.5 -24q-3 -18 -69 -18q-34 0 -81 4.5t-77 9.5l-30 4v-189q128 -11 220 -11q39 0 55 2q35 4 56.5 7.5t56 15.5t55 30t36 51.5
t15.5 78.5q0 29 -9.5 52t-22.5 37.5t-34.5 25.5t-38.5 16.5t-42.5 9t-37.5 4t-32 1.5q-18 2 -26.5 7t-10 9t-1.5 11q0 36 109 36q18 0 37.5 -1t35.5 -2t29 -2.5t21 -2.5t9 -1v209zM205 749h69l28 -72l25 73q64 0 71 -1q-2 -7 -12 -31.5t-19 -45.5t-9 -23h-113
q-1 3 -9.5 24.5t-18.5 45.5t-12 30z" />
    <glyph glyph-name="Tcommaaccent" unicode="&#x162;" horiz-adv-x="606" 
d="M371 -95q0 -13 -2.5 -29t-6 -29t-7 -24t-5.5 -17l-3 -7h-86l21 58q-18 6 -29 21.5t-11 35.5q0 25 17.5 42t42.5 17q7 0 11 -1q19 0 38 -18t20 -49zM35 585v12h536v-175h-135v-422h-241l-15 406h-145v179z" />
    <glyph glyph-name="tcommaaccent" unicode="&#x163;" horiz-adv-x="606" 
d="M371 -95q0 -13 -2.5 -29t-6 -29t-7 -24t-5.5 -17l-3 -7h-86l21 58q-18 6 -29 21.5t-11 35.5q0 25 17.5 42t42.5 17q7 0 11 -1q19 0 38 -18t20 -49zM35 585v12h536v-175h-135v-422h-241l-15 406h-145v179z" />
    <glyph glyph-name="Tcaron" unicode="&#x164;" horiz-adv-x="606" 
d="M194 745h78l32 -82l29 83q73 0 80 -1q-3 -8 -14 -35.5t-21 -52t-10 -26.5h-129q-1 4 -10.5 27.5t-21 52t-13.5 34.5zM35 585v12h536v-175h-135v-422h-241l-15 406h-145v179z" />
    <glyph glyph-name="tcaron" unicode="&#x165;" horiz-adv-x="606" 
d="M194 745h78l32 -82l29 83q73 0 80 -1q-3 -8 -14 -35.5t-21 -52t-10 -26.5h-129q-1 4 -10.5 27.5t-21 52t-13.5 34.5zM35 585v12h536v-175h-135v-422h-241l-15 406h-145v179z" />
    <glyph glyph-name="Tbar" unicode="&#x166;" horiz-adv-x="606" 
d="M35 597h536v-175h-135v-43h137l6 -103h-143v-276h-241l-10 276h-147v103h143l-1 27h-145v191z" />
    <glyph glyph-name="tbar" unicode="&#x167;" horiz-adv-x="606" 
d="M35 597h536v-175h-135v-43h137l6 -103h-143v-276h-241l-10 276h-147v103h143l-1 27h-145v191z" />
    <glyph glyph-name="Utilde" unicode="&#x168;" horiz-adv-x="648" 
d="M118 655v23q0 53 27.5 78.5t75.5 25.5h9q28 0 69 -19.5t51 -20.5q24 1 24 40l122 -7q4 -16 4 -46q0 -47 -32 -67t-77 -20q-23 0 -65.5 16t-66.5 16q-16 0 -26.5 -8t-12.5 -16l-3 -7zM35 581q-10 -62 -10 -145q0 -59 6.5 -112.5t26.5 -115t52.5 -105.5t89.5 -73.5
t133 -29.5q67 0 118 23.5t81 60t49 88t25.5 100t6.5 104.5q0 53 -5.5 108t-11.5 84l-6 28l-201 -15l-9 -1q16 -120 16 -179q0 -167 -74 -167q-75 0 -75 176q0 39 3.5 81.5t7.5 66.5l3 23h-226z" />
    <glyph glyph-name="utilde" unicode="&#x169;" horiz-adv-x="648" 
d="M118 655v23q0 53 27.5 78.5t75.5 25.5h9q28 0 69 -19.5t51 -20.5q24 1 24 40l122 -7q4 -16 4 -46q0 -47 -32 -67t-77 -20q-23 0 -65.5 16t-66.5 16q-16 0 -26.5 -8t-12.5 -16l-3 -7zM35 581q-10 -62 -10 -145q0 -59 6.5 -112.5t26.5 -115t52.5 -105.5t89.5 -73.5
t133 -29.5q67 0 118 23.5t81 60t49 88t25.5 100t6.5 104.5q0 53 -5.5 108t-11.5 84l-6 28l-201 -15l-9 -1q16 -120 16 -179q0 -167 -74 -167q-75 0 -75 176q0 39 3.5 81.5t7.5 66.5l3 23h-226z" />
    <glyph glyph-name="Umacron" unicode="&#x16a;" horiz-adv-x="648" 
d="M35 581q-10 -62 -10 -145q0 -59 6.5 -112.5t26.5 -115t52.5 -105.5t89.5 -73.5t133 -29.5q67 0 118 23.5t81 60t49 88t25.5 100t6.5 104.5q0 53 -5.5 108t-11.5 84l-6 28l-201 -15l-9 -1q16 -120 16 -179q0 -167 -74 -167q-75 0 -75 176q0 39 3.5 81.5t7.5 66.5l3 23
h-226zM123 651v102h368l4 -102h-372z" />
    <glyph glyph-name="umacron" unicode="&#x16b;" horiz-adv-x="648" 
d="M35 581q-10 -62 -10 -145q0 -59 6.5 -112.5t26.5 -115t52.5 -105.5t89.5 -73.5t133 -29.5q67 0 118 23.5t81 60t49 88t25.5 100t6.5 104.5q0 53 -5.5 108t-11.5 84l-6 28l-201 -15l-9 -1q16 -120 16 -179q0 -167 -74 -167q-75 0 -75 176q0 39 3.5 81.5t7.5 66.5l3 23
h-226zM123 651v102h368l4 -102h-372z" />
    <glyph glyph-name="Ubreve" unicode="&#x16c;" horiz-adv-x="648" 
d="M35 581q-10 -62 -10 -145q0 -59 6.5 -112.5t26.5 -115t52.5 -105.5t89.5 -73.5t133 -29.5q67 0 118 23.5t81 60t49 88t25.5 100t6.5 104.5q0 53 -5.5 108t-11.5 84l-6 28l-201 -15l-9 -1q16 -120 16 -179q0 -167 -74 -167q-75 0 -75 176q0 39 3.5 81.5t7.5 66.5l3 23
h-226zM204 754l92 2q1 -15 9.5 -31.5t20.5 -16.5q11 0 20.5 16.5t11.5 29.5h87q0 -50 -35.5 -85t-84.5 -35q-50 0 -85.5 35.5t-35.5 84.5z" />
    <glyph glyph-name="ubreve" unicode="&#x16d;" horiz-adv-x="648" 
d="M35 581q-10 -62 -10 -145q0 -59 6.5 -112.5t26.5 -115t52.5 -105.5t89.5 -73.5t133 -29.5q67 0 118 23.5t81 60t49 88t25.5 100t6.5 104.5q0 53 -5.5 108t-11.5 84l-6 28l-201 -15l-9 -1q16 -120 16 -179q0 -167 -74 -167q-75 0 -75 176q0 39 3.5 81.5t7.5 66.5l3 23
h-226zM204 754l92 2q1 -15 9.5 -31.5t20.5 -16.5q11 0 20.5 16.5t11.5 29.5h87q0 -50 -35.5 -85t-84.5 -35q-50 0 -85.5 35.5t-35.5 84.5z" />
    <glyph glyph-name="Uring" unicode="&#x16e;" horiz-adv-x="648" 
d="M35 581q-10 -62 -10 -145q0 -59 6.5 -112.5t26.5 -115t52.5 -105.5t89.5 -73.5t133 -29.5q67 0 118 23.5t81 60t49 88t25.5 100t6.5 104.5q0 53 -5.5 108t-11.5 84l-6 28l-201 -15l-9 -1q16 -120 16 -179q0 -167 -74 -167q-75 0 -75 176q0 39 3.5 81.5t7.5 66.5l3 23
h-226zM227 695q0 35 24.5 59.5t59.5 24.5t59.5 -24.5t24.5 -59.5t-24.5 -59.5t-59.5 -24.5t-59.5 24.5t-24.5 59.5zM291 698q0 -9 6 -15t15 -6t15.5 6t6.5 15t-6.5 15.5t-15.5 6.5t-15 -6.5t-6 -15.5z" />
    <glyph glyph-name="uring" unicode="&#x16f;" horiz-adv-x="648" 
d="M35 581q-10 -62 -10 -145q0 -59 6.5 -112.5t26.5 -115t52.5 -105.5t89.5 -73.5t133 -29.5q67 0 118 23.5t81 60t49 88t25.5 100t6.5 104.5q0 53 -5.5 108t-11.5 84l-6 28l-201 -15l-9 -1q16 -120 16 -179q0 -167 -74 -167q-75 0 -75 176q0 39 3.5 81.5t7.5 66.5l3 23
h-226zM227 695q0 35 24.5 59.5t59.5 24.5t59.5 -24.5t24.5 -59.5t-24.5 -59.5t-59.5 -24.5t-59.5 24.5t-24.5 59.5zM291 698q0 -9 6 -15t15 -6t15.5 6t6.5 15t-6.5 15.5t-15.5 6.5t-15 -6.5t-6 -15.5z" />
    <glyph glyph-name="Uhungarumlaut" unicode="&#x170;" horiz-adv-x="648" 
d="M35 581q-10 -62 -10 -145q0 -59 6.5 -112.5t26.5 -115t52.5 -105.5t89.5 -73.5t133 -29.5q67 0 118 23.5t81 60t49 88t25.5 100t6.5 104.5q0 53 -5.5 108t-11.5 84l-6 28l-201 -15l-9 -1q16 -120 16 -179q0 -167 -74 -167q-75 0 -75 176q0 39 3.5 81.5t7.5 66.5l3 23
h-226zM181 663l41 101h109l-46 -102q-97 0 -104 1zM354 663l41 101h112l-72 -102q-74 0 -81 1z" />
    <glyph glyph-name="uhungarumlaut" unicode="&#x171;" horiz-adv-x="648" 
d="M35 581q-10 -62 -10 -145q0 -59 6.5 -112.5t26.5 -115t52.5 -105.5t89.5 -73.5t133 -29.5q67 0 118 23.5t81 60t49 88t25.5 100t6.5 104.5q0 53 -5.5 108t-11.5 84l-6 28l-201 -15l-9 -1q16 -120 16 -179q0 -167 -74 -167q-75 0 -75 176q0 39 3.5 81.5t7.5 66.5l3 23
h-226zM375 628q-8 -2 -36 -2h-59l-85 120h132q41 -98 48 -118z" />
    <glyph glyph-name="Uogonek" unicode="&#x172;" horiz-adv-x="648" 
d="M360 -41q-10 2 -23 2q-53 0 -53 -31q0 -26 43 -26q25 0 45 5v-96q-18 -3 -44 -3q-31 0 -56 6t-47.5 30t-22.5 63q0 8 2.5 17t10 23.5t28 24t51.5 9.5l-8 20q-64 8 -112.5 41t-76 76.5t-44.5 101.5t-22.5 108.5t-5.5 105.5q0 37 2.5 73t4.5 54l3 18h226q-14 -84 -14 -171
q0 -176 75 -176q74 0 74 167q0 59 -16 179l210 16q23 -101 23 -220q0 -53 -6 -100t-23 -97t-44.5 -87t-73.5 -62.5t-106 -30.5v-40z" />
    <glyph glyph-name="uogonek" unicode="&#x173;" horiz-adv-x="648" 
d="M360 -41q-10 2 -23 2q-53 0 -53 -31q0 -26 43 -26q25 0 45 5v-96q-18 -3 -44 -3q-31 0 -56 6t-47.5 30t-22.5 63q0 8 2.5 17t10 23.5t28 24t51.5 9.5l-8 20q-64 8 -112.5 41t-76 76.5t-44.5 101.5t-22.5 108.5t-5.5 105.5q0 37 2.5 73t4.5 54l3 18h226q-14 -84 -14 -171
q0 -176 75 -176q74 0 74 167q0 59 -16 179l210 16q23 -101 23 -220q0 -53 -6 -100t-23 -97t-44.5 -87t-73.5 -62.5t-106 -30.5v-40z" />
    <glyph glyph-name="Wcircumflex" unicode="&#x174;" horiz-adv-x="734" 
d="M438 596h247v-593h-249l-73 206l-62 -208h-239l-38 595h279l-13 -301l43 82l36 -2l37 2l32 -78v297zM479 644h-75l-30 78l-27 -79q-70 0 -77 1q3 8 13.5 34t20 49t9.5 25h123q1 -3 10 -25.5t19.5 -49.5t13.5 -33z" />
    <glyph glyph-name="wcircumflex" unicode="&#x175;" horiz-adv-x="734" 
d="M438 596h247v-593h-249l-73 206l-62 -208h-239l-38 595h279l-13 -301l43 82l36 -2l37 2l32 -78v297zM479 644h-75l-30 78l-27 -79q-70 0 -77 1q3 8 13.5 34t20 49t9.5 25h123q1 -3 10 -25.5t19.5 -49.5t13.5 -33z" />
    <glyph glyph-name="Ycircumflex" unicode="&#x176;" horiz-adv-x="686" 
d="M620 596q16 -99 16 -146q0 -256 -178 -315v-136h-229v136q-179 58 -179 315q0 62 15 146h213q0 -73 -0.5 -115t-1 -55t-0.5 -14q0 -38 13.5 -69t49.5 -31h6q36 0 50 31t14 69q0 1 -0.5 14t-1 55t-0.5 115h213zM440 652h-67l-27 70l-24 -71q-62 0 -69 1q2 4 12 29.5
t18.5 45.5t8.5 22h109q1 -3 9 -23.5t18 -45t12 -28.5z" />
    <glyph glyph-name="ycircumflex" unicode="&#x177;" horiz-adv-x="686" 
d="M620 596q16 -99 16 -146q0 -256 -178 -315v-136h-229v136q-179 58 -179 315q0 62 15 146h213q0 -73 -0.5 -115t-1 -55t-0.5 -14q0 -38 13.5 -69t49.5 -31h6q36 0 50 31t14 69q0 1 -0.5 14t-1 55t-0.5 115h213zM440 652h-67l-27 70l-24 -71q-62 0 -69 1q2 4 12 29.5
t18.5 45.5t8.5 22h109q1 -3 9 -23.5t18 -45t12 -28.5z" />
    <glyph glyph-name="Ydieresis" unicode="&#x178;" horiz-adv-x="686" 
d="M620 596q16 -99 16 -146q0 -256 -178 -315v-136h-229v136q-179 58 -179 315q0 62 15 146h213q0 -73 -0.5 -115t-1 -55t-0.5 -14q0 -38 13.5 -69t49.5 -31h6q36 0 50 31t14 69q0 1 -0.5 14t-1 55t-0.5 115h213zM237 697q0 19 12.5 32t31.5 13t32 -13t13 -32t-13 -31.5
t-32 -12.5t-31.5 12.5t-12.5 31.5zM384 683q0 13 9 22.5t22 9.5q14 0 23.5 -9.5t9.5 -22.5t-9.5 -22.5t-23.5 -9.5q-13 0 -22 9.5t-9 22.5z" />
    <glyph glyph-name="Zacute" unicode="&#x179;" horiz-adv-x="577" 
d="M226 637l41 101h112l-72 -102q-74 0 -81 1zM46 590h496v-191l-254 -227l223 -8v-172h-460l-16 165l228 244h-217v189z" />
    <glyph glyph-name="zacute" unicode="&#x17a;" horiz-adv-x="577" 
d="M226 637l41 101h112l-72 -102q-74 0 -81 1zM46 590h496v-191l-254 -227l223 -8v-172h-460l-16 165l228 244h-217v189z" />
    <glyph glyph-name="Zdotaccent" unicode="&#x17b;" horiz-adv-x="577" 
d="M233 688q0 26 19 45t45 19t45 -19t19 -45t-19 -45t-45 -19t-45 19t-19 45zM46 590h496v-191l-254 -227l223 -8v-172h-460l-16 165l228 244h-217v189z" />
    <glyph glyph-name="zdotaccent" unicode="&#x17c;" horiz-adv-x="577" 
d="M233 688q0 26 19 45t45 19t45 -19t19 -45t-19 -45t-45 -19t-45 19t-19 45zM46 590h496v-191l-254 -227l223 -8v-172h-460l-16 165l228 244h-217v189z" />
    <glyph glyph-name="Zcaron" unicode="&#x17d;" horiz-adv-x="577" 
d="M191 736h71l28 -74l27 75q65 0 72 -1q-3 -7 -13 -32t-19 -47t-9 -24h-116q-1 3 -19.5 48.5t-21.5 54.5zM46 590h496v-191l-254 -227l223 -8v-172h-460l-16 165l228 244h-217v189z" />
    <glyph glyph-name="zcaron" unicode="&#x17e;" horiz-adv-x="577" 
d="M191 736h71l28 -74l27 75q65 0 72 -1q-3 -7 -13 -32t-19 -47t-9 -24h-116q-1 3 -19.5 48.5t-21.5 54.5zM46 590h496v-191l-254 -227l223 -8v-172h-460l-16 165l228 244h-217v189z" />
    <glyph glyph-name="AEacute" unicode="&#x1fc;" horiz-adv-x="1216" 
d="M904 434v-74l207 8l-6 -152h-201v-71h252l10 -145h-630l9 70h-308v-70h-175l-12 200q29 2 50.5 8.5t31 14.5t15 15.5t5.5 12.5l1 5l74 340h286q102 -353 116 -369q8 -9 51 -11l-13 379h477v-161h-240zM326 249h110l-45 194h-28zM543 635l41 101h112l-72 -102q-74 0 -81 1
z" />
    <glyph glyph-name="aeacute" unicode="&#x1fd;" horiz-adv-x="1216" 
d="M904 434v-74l207 8l-6 -152h-201v-71h252l10 -145h-630l9 70h-308v-70h-175l-12 200q29 2 50.5 8.5t31 14.5t15 15.5t5.5 12.5l1 5l74 340h286q102 -353 116 -369q8 -9 51 -11l-13 379h477v-161h-240zM326 249h110l-45 194h-28zM543 635l41 101h112l-72 -102q-74 0 -81 1
z" />
    <glyph glyph-name="Oslashacute" unicode="&#x1fe;" 
d="M335 609q25 0 46 -3l44 110q0 2 14 2q11 0 41.5 -1.5t40.5 -1.5q12 0 12 1t-7 -15.5t-20 -49t-29 -70.5q39 -18 67 -49.5t41.5 -61.5t21 -71.5t8.5 -64.5t1 -56q0 -13 -1 -28t-7.5 -44t-17 -54.5t-32.5 -54t-51 -49.5t-75 -34.5t-102 -13.5q-50 0 -87 10l-28 -69l-102 5
q17 42 42 104q-120 82 -120 267q0 27 3.5 54.5t21 73.5t47 79.5t89 59t139.5 25.5zM329 142q86 0 86 170q0 51 -11 91q-53 -126 -105 -255q13 -6 30 -6zM242 262l85 211q-88 -2 -88 -168q0 -21 3 -43zM267 666l41 101h112l-72 -102q-74 0 -81 1z" />
    <glyph glyph-name="oslashacute" unicode="&#x1ff;" 
d="M335 609q25 0 46 -3l44 110q0 2 14 2q11 0 41.5 -1.5t40.5 -1.5q12 0 12 1t-7 -15.5t-20 -49t-29 -70.5q39 -18 67 -49.5t41.5 -61.5t21 -71.5t8.5 -64.5t1 -56q0 -13 -1 -28t-7.5 -44t-17 -54.5t-32.5 -54t-51 -49.5t-75 -34.5t-102 -13.5q-50 0 -87 10l-28 -69l-102 5
q17 42 42 104q-120 82 -120 267q0 27 3.5 54.5t21 73.5t47 79.5t89 59t139.5 25.5zM329 142q86 0 86 170q0 51 -11 91q-53 -126 -105 -255q13 -6 30 -6zM242 262l85 211q-88 -2 -88 -168q0 -21 3 -43zM267 666l41 101h112l-72 -102q-74 0 -81 1z" />
    <glyph glyph-name="Scommaaccent" unicode="&#x218;" horiz-adv-x="553" 
d="M526 592v-209q-1 0 -9 1t-21 2.5t-29 2.5t-35.5 2t-37.5 1q-109 0 -109 -36q0 -7 1.5 -11t10 -9t26.5 -7q20 -1 32 -1.5t37.5 -4t42.5 -9t38.5 -16.5t34.5 -25.5t22.5 -37.5t9.5 -52q0 -45 -15.5 -78.5t-36 -51.5t-55 -30t-56 -15.5t-56.5 -7.5q-16 -2 -55 -2
q-41 0 -96 3t-90 5l-34 3v189q112 -18 188 -18q66 0 69 18q0 17 -10.5 24t-30 8.5t-22.5 2.5q-1 0 -20.5 2.5t-40 6.5t-47.5 15.5t-47.5 28t-34.5 47t-14 69.5q0 99 72 149t248 50q86 0 170 -9zM341 -97v-3q0 -15 -3 -33t-7 -33t-8 -27.5t-7 -20.5l-3 -8h-101l25 68
q-21 8 -34.5 26t-13.5 42q0 29 20.5 49t49.5 20h14q22 -1 44.5 -22.5t23.5 -57.5z" />
    <glyph glyph-name="scommaaccent" unicode="&#x219;" horiz-adv-x="553" 
d="M526 592v-209q-1 0 -9 1t-21 2.5t-29 2.5t-35.5 2t-37.5 1q-109 0 -109 -36q0 -7 1.5 -11t10 -9t26.5 -7q20 -1 32 -1.5t37.5 -4t42.5 -9t38.5 -16.5t34.5 -25.5t22.5 -37.5t9.5 -52q0 -45 -15.5 -78.5t-36 -51.5t-55 -30t-56 -15.5t-56.5 -7.5q-16 -2 -55 -2
q-41 0 -96 3t-90 5l-34 3v189q112 -18 188 -18q66 0 69 18q0 17 -10.5 24t-30 8.5t-22.5 2.5q-1 0 -20.5 2.5t-40 6.5t-47.5 15.5t-47.5 28t-34.5 47t-14 69.5q0 99 72 149t248 50q86 0 170 -9zM341 -97v-3q0 -15 -3 -33t-7 -33t-8 -27.5t-7 -20.5l-3 -8h-101l25 68
q-21 8 -34.5 26t-13.5 42q0 29 20.5 49t49.5 20h14q22 -1 44.5 -22.5t23.5 -57.5z" />
    <glyph glyph-name="circumflex" unicode="&#x2c6;" horiz-adv-x="263" 
d="M228 648h-69l-28 72l-25 -73q-64 0 -71 1q2 7 12 31.5t19 45.5t9 23h113q1 -3 9.5 -24.5t18.5 -45.5t12 -30z" />
    <glyph glyph-name="caron" unicode="&#x2c7;" horiz-adv-x="263" 
d="M35 747h69l28 -72l25 73q64 0 71 -1q-2 -7 -12 -31.5t-19 -45.5t-9 -23h-113q-1 3 -9.5 24.5t-18.5 45.5t-12 30z" />
    <glyph glyph-name="breve" unicode="&#x2d8;" horiz-adv-x="238" 
d="M35 731l64 1q1 -10 7 -21.5t14 -11.5q7 0 14 11.5t8 20.5h61q0 -35 -24.5 -59.5t-59.5 -24.5t-59.5 24.5t-24.5 59.5z" />
    <glyph glyph-name="dotaccent" unicode="&#x2d9;" horiz-adv-x="198" 
d="M35 688q0 26 19 45t45 19t45 -19t19 -45t-19 -45t-45 -19t-45 19t-19 45z" />
    <glyph glyph-name="ring" unicode="&#x2da;" horiz-adv-x="238" 
d="M35 722q0 34 24.5 59t59.5 25t59.5 -25t24.5 -59t-24.5 -59t-59.5 -25t-59.5 25t-24.5 59zM99 725q0 -9 6 -15t15 -6t15.5 6t6.5 15t-6.5 15.5t-15.5 6.5t-15 -6.5t-6 -15.5z" />
    <glyph glyph-name="ogonek" unicode="&#x2db;" horiz-adv-x="270" 
d="M131 10h77v-58q-10 2 -23 2q-53 0 -53 -31q0 -26 43 -26q25 0 45 5v-96q-18 -3 -44 -3q-31 0 -56 6t-47.5 30t-22.5 63q0 8 2.5 17t10 23.5t28 24t51.5 9.5z" />
    <glyph glyph-name="tilde" unicode="&#x2dc;" horiz-adv-x="482" 
d="M50 655v23q0 53 27.5 78.5t75.5 25.5h9q28 0 69 -19.5t51 -20.5q24 1 24 40l122 -7q4 -16 4 -46q0 -47 -32 -67t-77 -20q-23 0 -65.5 16t-66.5 16q-16 0 -26.5 -8t-12.5 -16l-3 -7z" />
    <glyph glyph-name="hungarumlaut" unicode="&#x2dd;" horiz-adv-x="396" 
d="M35 648l41 101h109l-46 -102q-97 0 -104 1zM208 648l41 101h112l-72 -102q-74 0 -81 1z" />
    <glyph glyph-name="Wgrave" unicode="&#x1e80;" horiz-adv-x="734" 
d="M438 596h247v-593h-249l-73 206l-62 -208h-239l-38 595h279l-13 -301l43 82l36 -2l37 2l32 -78v297zM430 648q-7 -1 -31 -1h-50l-72 102h112q35 -84 41 -101z" />
    <glyph glyph-name="wgrave" unicode="&#x1e81;" horiz-adv-x="734" 
d="M438 596h247v-593h-249l-73 206l-62 -208h-239l-38 595h279l-13 -301l43 82l36 -2l37 2l32 -78v297zM430 648q-7 -1 -31 -1h-50l-72 102h112q35 -84 41 -101z" />
    <glyph glyph-name="Wacute" unicode="&#x1e82;" horiz-adv-x="734" 
d="M438 596h247v-593h-249l-73 206l-62 -208h-239l-38 595h279l-13 -301l43 82l36 -2l37 2l32 -78v297zM309 631l47 118h131l-84 -119q-86 0 -94 1z" />
    <glyph glyph-name="wacute" unicode="&#x1e83;" horiz-adv-x="734" 
d="M438 596h247v-593h-249l-73 206l-62 -208h-239l-38 595h279l-13 -301l43 82l36 -2l37 2l32 -78v297zM309 631l47 118h131l-84 -119q-86 0 -94 1z" />
    <glyph glyph-name="Wdieresis" unicode="&#x1e84;" horiz-adv-x="734" 
d="M438 596h247v-593h-249l-73 206l-62 -208h-239l-38 595h279l-13 -301l43 82l36 -2l37 2l32 -78v297zM261 697q0 19 12.5 32t31.5 13t32 -13t13 -32t-13 -31.5t-32 -12.5t-31.5 12.5t-12.5 31.5zM408 683q0 13 9 22.5t22 9.5q14 0 23.5 -9.5t9.5 -22.5t-9.5 -22.5
t-23.5 -9.5q-13 0 -22 9.5t-9 22.5z" />
    <glyph glyph-name="wdieresis" unicode="&#x1e85;" horiz-adv-x="734" 
d="M438 596h247v-593h-249l-73 206l-62 -208h-239l-38 595h279l-13 -301l43 82l36 -2l37 2l32 -78v297zM261 697q0 19 12.5 32t31.5 13t32 -13t13 -32t-13 -31.5t-32 -12.5t-31.5 12.5t-12.5 31.5zM408 683q0 13 9 22.5t22 9.5q14 0 23.5 -9.5t9.5 -22.5t-9.5 -22.5
t-23.5 -9.5q-13 0 -22 9.5t-9 22.5z" />
    <glyph glyph-name="Ygrave" unicode="&#x1ef2;" horiz-adv-x="686" 
d="M620 596q16 -99 16 -146q0 -256 -178 -315v-136h-229v136q-179 58 -179 315q0 62 15 146h213q0 -73 -0.5 -115t-1 -55t-0.5 -14q0 -38 13.5 -69t49.5 -31h6q36 0 50 31t14 69q0 1 -0.5 14t-1 55t-0.5 115h213zM396 649q-7 -1 -31 -1h-50l-72 102h112q35 -84 41 -101z" />
    <glyph glyph-name="ygrave" unicode="&#x1ef3;" horiz-adv-x="686" 
d="M620 596q16 -99 16 -146q0 -256 -178 -315v-136h-229v136q-179 58 -179 315q0 62 15 146h213q0 -73 -0.5 -115t-1 -55t-0.5 -14q0 -38 13.5 -69t49.5 -31h6q36 0 50 31t14 69q0 1 -0.5 14t-1 55t-0.5 115h213zM396 649q-7 -1 -31 -1h-50l-72 102h112q35 -84 41 -101z" />
    <glyph glyph-name="endash" unicode="&#x2013;" horiz-adv-x="487" 
d="M50 232v150h387v-150h-387z" />
    <glyph glyph-name="emdash" unicode="&#x2014;" horiz-adv-x="599" 
d="M50 232v150h499v-150h-499z" />
    <glyph glyph-name="quoteleft" unicode="&#x2018;" horiz-adv-x="220" 
d="M50 473v180h120v-180h-120z" />
    <glyph glyph-name="quoteright" unicode="&#x2019;" horiz-adv-x="220" 
d="M50 473v180h120v-180h-120z" />
    <glyph glyph-name="quotesinglbase" unicode="&#x201a;" horiz-adv-x="281" 
d="M231 89v-4q0 -20 -4 -43.5t-9.5 -43.5t-10.5 -37t-9 -27l-4 -11h-135l33 91q-28 10 -46 34.5t-18 55.5q0 39 27.5 66t66.5 27q12 0 18 -1q30 -1 59.5 -29.5t31.5 -77.5z" />
    <glyph glyph-name="quotedblleft" unicode="&#x201c;" horiz-adv-x="378" 
d="M50 473v180h120v-180h-120zM208 473v180h120v-180h-120z" />
    <glyph glyph-name="quotedblright" unicode="&#x201d;" horiz-adv-x="378" 
d="M50 473v180h120v-180h-120zM208 473v180h120v-180h-120z" />
    <glyph glyph-name="quotedblbase" unicode="&#x201e;" horiz-adv-x="532" 
d="M253 89v-4q0 -20 -4 -43.5t-9.5 -43.5t-10.5 -37t-9 -27l-4 -11h-135l33 91q-28 10 -46 34.5t-18 55.5q0 39 27.5 66t66.5 27q12 0 18 -1q30 -1 59.5 -29.5t31.5 -77.5zM482 89v-4q0 -20 -4 -43.5t-9 -43.5t-10.5 -37t-9.5 -27l-4 -11h-135l33 91q-28 10 -46 34.5
t-18 55.5q0 39 27.5 66t66.5 27q12 0 18 -1q30 -1 59.5 -29.5t31.5 -77.5z" />
    <glyph glyph-name="dagger" unicode="&#x2020;" horiz-adv-x="469" 
d="M50 373v124h73v138h231v-138h65v-124h-65v-392h-210l-13 392h-81z" />
    <glyph glyph-name="daggerdbl" unicode="&#x2021;" horiz-adv-x="469" 
d="M64 97v115h67v161h-81v124h73v138h231v-138h65v-124h-65v-161h55v-115h-55v-116h-210l-4 116h-76z" />
    <glyph glyph-name="bullet" unicode="&#x2022;" horiz-adv-x="342" 
d="M50 295q0 50 35.5 85.5t85.5 35.5t85.5 -35.5t35.5 -85.5t-35.5 -85.5t-85.5 -35.5t-85.5 35.5t-35.5 85.5z" />
    <glyph glyph-name="ellipsis" unicode="&#x2026;" horiz-adv-x="756" 
d="M35 91q0 37 26.5 64t64.5 27t64.5 -27t26.5 -64t-26.5 -64t-64.5 -27t-64.5 27t-26.5 64zM287 91q0 37 26.5 64t64.5 27t64.5 -27t26.5 -64t-26.5 -64t-64.5 -27t-64.5 27t-26.5 64zM539 91q0 37 26.5 64t64.5 27t64.5 -27t26.5 -64t-26.5 -64t-64.5 -27t-64.5 27
t-26.5 64z" />
    <glyph glyph-name="perthousand" unicode="&#x2030;" horiz-adv-x="961" 
d="M454 692h223l-176 -715h-212zM205 652q41 0 70 -14t43.5 -31t22 -45t8.5 -43.5t1 -37.5q0 -11 -1.5 -23.5t-10 -35.5t-23 -40.5t-44 -31t-69.5 -13.5q-73 0 -112.5 45.5t-39.5 118.5q0 14 2 28.5t11 38t24 41t46 30.5t72 13zM202 410q45 0 45 88q0 17 -2.5 33.5
t-13.5 33.5t-29 17q-47 0 -47 -88q0 -7 1 -16.5t5 -27t14.5 -29t26.5 -11.5zM794 527q33 0 56.5 -11t35 -25.5t17.5 -36.5t7 -35t1 -31q0 -8 -1 -18.5t-8 -29t-19 -32.5t-36 -25t-56 -11q-60 0 -91.5 36.5t-31.5 96.5q0 15 3.5 30.5t14.5 39t39 38t69 14.5zM791 331
q37 0 37 71q0 68 -37 68q-38 0 -38 -71q0 -6 1 -13.5t4 -21.5t11.5 -23.5t21.5 -9.5zM772 232q37 0 63 -11t38.5 -25.5t19.5 -37t8 -35t1 -31.5q0 -12 -3.5 -26t-15 -37.5t-41.5 -38.5t-74 -15q-66 0 -101 37t-35 97q0 15 4 31t16 39t43 38t77 15zM768 34q42 0 42 72
q0 69 -42 69t-42 -72q0 -9 1.5 -21.5t12 -30t28.5 -17.5z" />
    <glyph glyph-name="guilsinglleft" unicode="&#x2039;" horiz-adv-x="385" 
d="M147 457v0v0v0v0h1v0h1v0h1v0h1h1h1h1h1h1h1h1h1h1h1h1h1h1h1h1h1h1h1h1h1h1h1h1h1h1h1h1h1h1h1h1h1h1h1h2h1h1h1h1h1h2h1h1h1h2h1h1h1h2h1h1h2h1h1h2h1h2h1h1h2h1h2h1h2h1h1h2h1h2h1h2h1h2h1h2h2h1h2h1h2h1h2h2h1h2h2h1h2h1h2h2h1h2h2h2h1h2h2h1h2h2h2h1h2h2h2h1h2h2h2
h2h2h1h2h10l-95 -179q2 -3 56.5 -81t56.5 -78q-4 -1 -38 -1q-22 0 -77.5 0.5t-61.5 0.5q0 -1 -11 16t-27 42t-32 50.5t-27 42.5l-11 18q1 0 25 40t48 82.5t24 46.5z" />
    <glyph glyph-name="guilsinglright" unicode="&#x203a;" horiz-adv-x="385" 
d="M238 457q0 -4 24 -46.5t48 -82.5t25 -40q-7 -11 -18 -28.5t-35 -55t-39.5 -62t-15.5 -23.5q-6 0 -61.5 -0.5t-77.5 -0.5q-34 0 -38 1q2 0 56.5 78t56.5 81l-95 179v0v0h1v0h1v0h1h1h1h1h1h1h1h1h1h1h1h1h1h1h1h1h1h1h1h1h1h1h1h1h2h1h1h1h1h1h1h1h1h1h2h1h1h1h1h2h1h1h1
h2h1h1h2h1h1h2h1h1h2h1h1h2h1h2h1h2h1h2h1h2h1h2h1h2h1h2h1h2h1h2h2h1h2h1h2h2h1h2h2h1h2h2h2h1h2h2h2h1h2h2h2h2h1h2h2h2h2h2h2h1h2h2h2h2h2h2h2h2h9z" />
    <glyph glyph-name="exclamdbl" unicode="&#x203c;" horiz-adv-x="667" 
d="M50 596h269l-17 -415h-222zM88 45q0 42 29.5 72t72.5 30t73 -30t30 -72t-30 -72.5t-73 -30.5q-42 0 -72 30.5t-30 72.5zM348 596h269l-17 -415h-222zM386 45q0 42 29.5 72t72.5 30t73 -30t30 -72t-30 -72.5t-73 -30.5q-42 0 -72 30.5t-30 72.5z" />
    <glyph glyph-name="fraction" unicode="&#x2044;" horiz-adv-x="488" 
d="M215 692h223l-176 -715h-212z" />
    <glyph glyph-name="zerosuperior" unicode="&#x2070;" horiz-adv-x="325" 
d="M166 609q38 0 62 -13.5t33 -37.5t11.5 -39.5t2.5 -37.5q0 -11 -3 -24t-12.5 -34.5t-34 -35.5t-61.5 -14q-55 0 -84.5 34t-29.5 89q0 10 1.5 21t8 28.5t18 30.5t34.5 23t54 10zM163 428q34 0 34 66q0 62 -33 62q-35 0 -35 -65q0 -63 34 -63z" />
    <glyph glyph-name="foursuperior" unicode="&#x2074;" horiz-adv-x="282" 
d="M50 587l84 5l-14 -101h30l7 101h75v-229h-86l4 72h-100v152z" />
    <glyph glyph-name="fivesuperior" unicode="&#x2075;" horiz-adv-x="280" 
d="M125 505q20 4 37 4q22 0 36.5 -7t21 -18t8.5 -19.5t2 -17.5q0 -84 -116 -84l-64 6v59q23 -3 44 -3q46 0 46 18q-1 18 -41 18l-49 -5l7 140l173 7v-68h-100z" />
    <glyph glyph-name="sixsuperior" unicode="&#x2076;" horiz-adv-x="333" 
d="M176 339q-126 0 -126 105q0 18 6.5 39t25.5 50t64 48t110 19h5l22 -79h-3q-54 0 -97 -20l3 -8q4 1 9 1q18 0 35 -3.5t35 -19.5t18 -43v-6q0 -8 -1.5 -16t-8 -21t-17 -22.5t-31.5 -16.5t-49 -7zM175 444q-10 0 -17 -6t-7 -14t7 -13.5t17 -5.5t17.5 6t7.5 13q0 8 -7.5 14
t-17.5 6z" />
    <glyph glyph-name="sevensuperior" unicode="&#x2077;" horiz-adv-x="267" 
d="M50 597h167v-60l-64 -164h-96l75 158h-77z" />
    <glyph glyph-name="eightsuperior" unicode="&#x2078;" horiz-adv-x="308" 
d="M142 600h6q21 0 32.5 -0.5t28.5 -4t26 -9.5t16 -18.5t7 -30.5q0 -23 -10.5 -42t-32.5 -19q4 0 11 -2t18 -14t11 -32q0 -27 -26.5 -41t-64.5 -14q-4 0 -13.5 1t-14.5 1q-15 2 -24 3.5t-24 7t-22.5 17t-7.5 28.5q0 6 1.5 14t11 19.5t26.5 11.5q-2 0 -5 1t-11 5t-14.5 10
t-11.5 17t-5 24q0 67 92 67zM178 450q0 14 -23 14q-25 0 -25 -17q0 -16 22 -16h4q22 0 22 19zM176 528q0 14 -24 14t-24 -18q0 -15 22 -15h4q22 0 22 19z" />
    <glyph glyph-name="ninesuperior" unicode="&#x2079;" horiz-adv-x="303" 
d="M144 600q109 0 109 -91q0 -11 -3 -25t-14 -34.5t-29 -37t-52.5 -28t-80.5 -11.5h-4l-20 69h2q49 0 85 18l-3 6h-8q-15 0 -29.5 3t-30.5 16.5t-16 37.5v5q0 9 3 19t11 23t29 21.5t51 8.5zM144 509q9 0 15 5t6 12t-6 12t-15 5t-15 -5t-6 -12t6 -12t15 -5z" />
    <glyph glyph-name="Euro" unicode="&#x20ac;" horiz-adv-x="650" 
d="M-40 236v63h75v36h-77v67h87q9 38 26.5 70.5t49.5 65.5t87 52t127 19t125.5 -20.5t83 -55.5t44.5 -72t20 -80q-109 -16 -196 -26q-11 118 -82 118q-58 0 -80 -71h61v-67h-72v-36h78v-63h-71q19 -94 83 -94q41 0 59.5 25t23.5 74l203 21q-2 -26 -7 -53t-23.5 -67
t-47.5 -69.5t-82.5 -51t-124.5 -21.5q-120 0 -194 64t-94 172h-82z" />
    <glyph glyph-name="trademark" unicode="&#x2122;" horiz-adv-x="694" 
d="M50 591v6h251v-82h-63v-197h-113l-7 190h-68v83zM333 318v271l119 8l42 -128l31 128h119v-279h-85l5 106h-12l-31 -106h-64l-28 106h-8v-106h-88z" />
    <glyph glyph-name="ff" unicode="&#xfb00;" horiz-adv-x="1094" 
d="M819 434v-97l207 8l-6 -152h-190v-192h-227l-7 192h-313v-192h-227l-21 594h477v-161h-240v-89h319l-9 250h477v-161h-240z" />
    <glyph glyph-name="fi" unicode="&#xfb01;" horiz-adv-x="861" 
d="M272 434v-97l207 8l-6 -152h-190v-192h-227l-21 594h477v-161h-240zM610 0l-21 503h231v-503h-210zM625 531l15 75l-58 44l83 17l34 58l24 -59l103 -18l-67 -53l7 -64l-75 28z" />
    <glyph glyph-name="fl" unicode="&#xfb02;" horiz-adv-x="1094" 
d="M272 434v-97l207 8l-6 -152h-190v-192h-227l-21 594h477v-161h-240zM582 596h267l-15 -429l208 10l17 -177h-447z" />
    <glyph glyph-name="ffi" unicode="&#xfb03;" horiz-adv-x="1408" 
d="M272 434v-97l207 8l-6 -152h-190v-192h-227l-21 594h477v-161h-240zM819 434v-97l207 8l-6 -152h-190v-192h-227l-21 594h477v-161h-240zM1157 0l-21 503h231v-503h-210zM1172 531l15 75l-58 44l83 17l34 58l24 -59l103 -18l-67 -53l7 -64l-75 28z" />
    <glyph glyph-name="ffl" unicode="&#xfb04;" horiz-adv-x="1626" 
d="M834 434v-97l207 8l-6 -152h-190v-192h-227l-7 192h-313v-192h-227l-21 594h477v-161h-240v-89h319l-9 250h477v-161h-240zM1099 589h267l-15 -429l208 10l17 -177h-447z" />
    <glyph glyph-name="s_t" unicode="&#xfb06;" horiz-adv-x="1172" 
d="M264 342v-5q2 -27 66 -27h29q52 0 89.5 -13.5t55.5 -35t25.5 -41t8.5 -39.5v-11q0 -43 -14 -75t-36.5 -51t-57 -31t-68 -16.5t-77.5 -6.5q-5 0 -14 -0.5t-14 -0.5q-50 0 -103.5 6.5t-81.5 13.5l-28 7l-14 173q3 -1 43.5 -4.5t89.5 -7.5t68 -4q59 0 59 38q0 26 -90 26h-34
q-44 0 -77.5 13t-50.5 30.5t-27.5 40t-13.5 36t-3 24.5v8q0 44 17 79.5t47 57.5t62.5 37t72 22.5t65.5 10.5t53 4l25 1q6 0 18 0.5t17 0.5q38 0 76 -3t57 -6l19 -3l-9 -219q-113 4 -203 4q-47 0 -47 -33zM601 585v12h536v-175h-135v-422h-241l-15 406h-145v179z" />
    <glyph glyph-name="dieresisacute" horiz-adv-x="368" 
d="M35 712q0 26 18 44.5t44 18.5t44.5 -18.5t18.5 -44.5t-18.5 -44t-44.5 -18t-44 18t-18 44zM242 692q0 19 13 32.5t32 13.5t32.5 -13.5t13.5 -32.5t-13.5 -32t-32.5 -13t-32 13t-13 32z" />
    <glyph glyph-name="cyrflex" horiz-adv-x="263" 
d="M228 648h-69l-28 72l-25 -73q-64 0 -71 1q2 7 12 31.5t19 45.5t9 23h113q1 -3 9.5 -24.5t18.5 -45.5t12 -30z" />
    <glyph glyph-name="dieresisgrave" horiz-adv-x="368" 
d="M35 712q0 26 18 44.5t44 18.5t44.5 -18.5t18.5 -44.5t-18.5 -44t-44.5 -18t-44 18t-18 44zM242 692q0 19 13 32.5t32 13.5t32.5 -13.5t13.5 -32.5t-13.5 -32t-32.5 -13t-32 13t-13 32z" />
    <glyph glyph-name="_0013" horiz-adv-x="1135" 
d="M978 706q1 -2 1 -7q0 -11 -11.5 -19.5t-23.5 -8.5q-16 0 -28 9q11 15 26 30q10 10 20 10t16 -14zM629 679q-11 0 -18.5 7.5t-7.5 17.5q0 11 7.5 18.5t18.5 7.5t19 -7.5t8 -18.5q0 -10 -8 -17.5t-19 -7.5zM691 667q-12 0 -12 12t12 12q9 0 9 -12t-9 -12zM600 413
q-25 0 -42 24t-17 62t17.5 62.5t41.5 24.5q25 0 41 -24.5t16 -62.5t-16 -62t-41 -24zM600 527q0 -2 -1.5 -7t-2.5 -10.5t-1 -10.5q0 -6 1 -11.5t2.5 -10.5t1.5 -7q7 14 7 29q0 14 -7 28zM890 402q-25 0 -40.5 25t-15.5 63t15.5 63t40.5 25q26 0 43 -25t17 -63
q0 -37 -17 -62.5t-43 -25.5zM890 519q-4 -20 -4 -29q0 -1 4 -29q7 10 7 29q0 22 -7 29zM1050 389l34 9v-38q0 -8 -3 -28.5t-16.5 -65t-35.5 -83.5q-103 -183 -329 -183h-39q-244 19 -445 170q-45 33 -84 71.5t-52 54.5t-18 24l-12 16l13 17q101 133 210 208q-63 23 -110 98
l-13 20l19 16l10 6q10 6 27 14t40 16t55 13.5t65 5.5q100 0 203 -54l19 -12l-5 -17q5 1 17 1q46 0 85.5 -23t63.5 -62q51 76 141 76q72 0 122.5 -50.5t50.5 -121.5q0 -60 -35 -106q2 1 9.5 4t12.5 4zM486 367q-31 28 -43 59q-24 -20 -42 -33q41 -16 85 -26zM742 398
q-28 -40 -67 -57q16 -2 50 -2q48 0 72 2q-32 23 -55 57zM890 607q-44 0 -78 -30t-40 -74v-23q3 -47 37 -80t81 -33q51 0 86 35t35 85t-35 85t-86 35zM718 487v19q-2 45 -36.5 77t-81.5 32q-49 0 -84.5 -35t-35.5 -85q0 -48 36 -83t84 -35q46 0 79.5 30t38.5 75v5zM983 207
q29 50 43 118q-154 -39 -301 -39q-68 0 -134.5 8t-111 19t-83 24t-54 20t-21.5 10l-5 4l113 116v8q0 50 24.5 90.5t66.5 63.5q4 8 4 10q-77 37 -158 37q-72 0 -142 -31q40 -54 103 -69q60 -14 98 -14q-47 -13 -102.5 -50.5t-98.5 -79t-71.5 -73.5t-35.5 -43q53 -67 131 -125
q85 -63 204 -111.5t248 -48.5q197 0 283 156zM694 239q9 0 9 -8q0 -3 -2 -5l-19 -70q-6 -25 -11 -37q-8 -22 -32 -22q-9 0 -20 4t-11 12q0 4 1 5l5 12q2 5 8 5q2 0 5 -3q4 -2 10 -2q7 0 7 6q-8 0 -8 7l-27 81q-1 2 -1 5q0 10 8 10l16 1h4q8 0 8 -8q0 -11 6 -31t7 -27l9 58
q2 7 28 7zM772 243q18 0 29 -16q9 -16 9 -38q0 -55 -40 -55q-10 0 -14 1v-24q0 -9 -7 -10l-16 -3q-1 0 -2 -0.5t-2 -0.5q-8 0 -8 10v92q0 7 -0.5 12.5t-1.5 8t-1 3.5v2q-1 2 -1 3q0 6 7 8l14 5l2 1l2 1q6 0 9 -7q9 7 21 7zM756 165h8q9 0 9 23t-7 23q-4 0 -10 -4v-42z
M908 166l4 -10q2 -1 2 -5q0 -17 -40 -17q-48 0 -48 53q0 24 13 40t34 16q43 0 43 -57q0 -11 -10 -11h-42q1 -10 13 -10q4 0 16 4l6 3q5 0 9 -6zM872 212q-7 0 -8 -7h14q-1 7 -6 7zM618 261l-7 -15q-7 -7 -12 -7h-24v-92q0 -11 -9 -11h-18q-9 0 -9 11v92h-6q-11 -4 -11 -25
v-11q0 -9 -9 -9q-1 0 -5.5 -0.5t-6.5 -0.5q-7 0 -9 9q-6 16 -6 31q0 41 54 41h68q11 0 11 -9q0 -1 -0.5 -2t-0.5 -2z" />
    <glyph glyph-name="Macronsmall" horiz-adv-x="472" 
d="M50 653v102h368l4 -102h-372z" />
    <glyph glyph-name="Macron" horiz-adv-x="472" 
d="M50 653v102h368l4 -102h-372z" />
    <glyph glyph-name="Ring" horiz-adv-x="238" 
d="M35 722q0 34 24.5 59t59.5 25t59.5 -25t24.5 -59t-24.5 -59t-59.5 -25t-59.5 25t-24.5 59zM99 725q0 -9 6 -15t15 -6t15.5 6t6.5 15t-6.5 15.5t-15.5 6.5t-15 -6.5t-6 -15.5z" />
    <glyph glyph-name="Caron" horiz-adv-x="263" 
d="M35 747h69l28 -72l25 73q64 0 71 -1q-2 -7 -12 -31.5t-19 -45.5t-9 -23h-113q-1 3 -9.5 24.5t-18.5 45.5t-12 30z" />
    <glyph glyph-name="Breve" horiz-adv-x="238" 
d="M35 731l64 1q1 -10 7 -21.5t14 -11.5q7 0 14 11.5t8 20.5h61q0 -35 -24.5 -59.5t-59.5 -24.5t-59.5 24.5t-24.5 59.5z" />
    <glyph glyph-name="Acute" horiz-adv-x="223" 
d="M35 648l41 101h112l-72 -102q-74 0 -81 1z" />
    <glyph glyph-name="Cedilla" horiz-adv-x="270" 
d="M62 10h77l-11 -34q31 0 51.5 -9.5t28 -24t10 -23.5t2.5 -17q0 -39 -22.5 -63t-47.5 -30t-56 -6l-44 3v96q20 -5 45 -5q43 0 43 26q0 31 -53 31l-23 -2v58z" />
    </font>
</defs>
</svg>
